<?xml version="1.0" encoding="UTF-8" standalone="no"?>
<!-- Created with Inkscape (http://www.inkscape.org/) -->

<svg
   xmlns:dc="http://purl.org/dc/elements/1.1/"
   xmlns:cc="http://creativecommons.org/ns#"
   xmlns:rdf="http://www.w3.org/1999/02/22-rdf-syntax-ns#"
   xmlns:svg="http://www.w3.org/2000/svg"
   xmlns="http://www.w3.org/2000/svg"
   xmlns:xlink="http://www.w3.org/1999/xlink"
   xmlns:sodipodi="http://sodipodi.sourceforge.net/DTD/sodipodi-0.dtd"
   xmlns:inkscape="http://www.inkscape.org/namespaces/inkscape"
   width="584.64569"
   height="205.51181"
   id="svg2"
   version="1.1"
   inkscape:version="0.48.4 r9939"
   sodipodi:docname="Fig.21.01.svg">
  <sodipodi:namedview
     id="base"
     pagecolor="#dcdcdc"
     bordercolor="#ff0606"
     borderopacity="1"
     inkscape:pageopacity="1"
     inkscape:pageshadow="2"
     inkscape:zoom="1.6666954"
     inkscape:cx="435.66465"
     inkscape:cy="131.78312"
     inkscape:document-units="mm"
     inkscape:current-layer="layer1"
     showgrid="true"
     units="mm"
     inkscape:showpageshadow="false"
     borderlayer="true"
     fit-margin-top="0"
     fit-margin-left="0"
     fit-margin-right="0"
     fit-margin-bottom="0"
     inkscape:window-width="1334"
     inkscape:window-height="767"
     inkscape:window-x="110"
     inkscape:window-y="25"
     inkscape:window-maximized="0"
     inkscape:snap-bbox="true"
     inkscape:bbox-paths="true"
     inkscape:snap-global="true"
     showguides="true"
     inkscape:guide-bbox="true"
     inkscape:snap-nodes="true"
     inkscape:snap-to-guides="true">
    <inkscape:grid
       type="xygrid"
       id="grid3002"
       empspacing="5"
       visible="true"
       enabled="true"
       snapvisiblegridlinesonly="true"
       spacingx="2mm"
       spacingy="2mm"
       originx="1.1288889mm"
       originy="-37.999999mm"
       units="mm" />
  </sodipodi:namedview>
  <defs
     id="defs4">
    <linearGradient
       inkscape:collect="always"
       xlink:href="#linearGradient3888-9"
       id="linearGradient3450"
       gradientUnits="userSpaceOnUse"
       gradientTransform="matrix(1.1394611,0,0,0.58518512,-681.81649,529.05304)"
       x1="59.350403"
       y1="-60.236233"
       x2="87.696861"
       y2="31.889753" />
    <linearGradient
       inkscape:collect="always"
       id="linearGradient3888-9">
      <stop
         style="stop-color:#888888;stop-opacity:1;"
         offset="0"
         id="stop3890-4" />
      <stop
         style="stop-color:#888888;stop-opacity:0;"
         offset="1"
         id="stop3892-6" />
    </linearGradient>
    <linearGradient
       inkscape:collect="always"
       xlink:href="#linearGradient3870-2"
       id="linearGradient3452"
       gradientUnits="userSpaceOnUse"
       gradientTransform="matrix(1.1394611,0,0,0.58518512,-681.81649,529.05304)"
       x1="95.22641"
       y1="-59.793339"
       x2="123.12993"
       y2="3.5432959" />
    <linearGradient
       id="linearGradient3870-2">
      <stop
         style="stop-color:#000250;stop-opacity:1;"
         offset="0"
         id="stop3872-0" />
      <stop
         style="stop-color:#000185;stop-opacity:0;"
         offset="1"
         id="stop3874-3" />
    </linearGradient>
    <linearGradient
       y2="31.889753"
       x2="87.696861"
       y1="-60.236233"
       x1="59.350403"
       gradientTransform="matrix(1.1394611,0,0,0.58518512,-33.544783,977.08644)"
       gradientUnits="userSpaceOnUse"
       id="linearGradient3196"
       xlink:href="#linearGradient3888-9"
       inkscape:collect="always" />
    <linearGradient
       y2="3.5432959"
       x2="123.12993"
       y1="-59.793339"
       x1="95.22641"
       gradientTransform="matrix(1.1394611,0,0,0.58518512,-33.544783,977.08644)"
       gradientUnits="userSpaceOnUse"
       id="linearGradient3198"
       xlink:href="#linearGradient3870-2"
       inkscape:collect="always" />
    <linearGradient
       y2="3.8477914"
       x2="145.42229"
       y1="-59.938171"
       x1="131.85765"
       gradientTransform="matrix(0.37876389,0,0,0.3066416,-659.35006,451.53492)"
       gradientUnits="userSpaceOnUse"
       id="linearGradient3415"
       xlink:href="#linearGradient3249"
       inkscape:collect="always" />
    <linearGradient
       id="linearGradient3249">
      <stop
         id="stop3251"
         offset="0"
         style="stop-color:#888888;stop-opacity:1;" />
      <stop
         id="stop3253"
         offset="1"
         style="stop-color:#ffffff;stop-opacity:1;" />
    </linearGradient>
    <linearGradient
       y2="8.1136484"
       x2="171.44165"
       y1="-71.377922"
       x1="156.54872"
       gradientTransform="matrix(0.37876389,0,0,0.3066416,-659.35006,451.53492)"
       gradientUnits="userSpaceOnUse"
       id="linearGradient3417"
       xlink:href="#linearGradient3870-2-8"
       inkscape:collect="always" />
    <linearGradient
       id="linearGradient3870-2-8">
      <stop
         style="stop-color:#000250;stop-opacity:1;"
         offset="0"
         id="stop3872-0-3" />
      <stop
         style="stop-color:#000185;stop-opacity:0;"
         offset="1"
         id="stop3874-3-7" />
    </linearGradient>
    <linearGradient
       inkscape:collect="always"
       xlink:href="#linearGradient3249"
       id="linearGradient3097"
       gradientUnits="userSpaceOnUse"
       gradientTransform="matrix(0.61529922,0,0,0.4888793,-47.261003,916.23077)"
       x1="131.85765"
       y1="-59.938171"
       x2="145.42229"
       y2="3.8477914" />
    <linearGradient
       inkscape:collect="always"
       xlink:href="#linearGradient3870-2-8"
       id="linearGradient3099"
       gradientUnits="userSpaceOnUse"
       gradientTransform="matrix(0.61529922,0,0,0.4888793,-47.261003,916.23077)"
       x1="156.54872"
       y1="-71.377922"
       x2="171.44165"
       y2="8.1136484" />
    <linearGradient
       inkscape:collect="always"
       xlink:href="#linearGradient3249"
       id="linearGradient3022"
       gradientUnits="userSpaceOnUse"
       gradientTransform="matrix(0.61529922,0,0,0.25184276,-25.992892,969.601)"
       x1="131.85765"
       y1="-59.938171"
       x2="145.42229"
       y2="3.8477914" />
    <linearGradient
       inkscape:collect="always"
       xlink:href="#linearGradient3870-2-8"
       id="linearGradient3024"
       gradientUnits="userSpaceOnUse"
       gradientTransform="matrix(0.61529922,0,0,0.25184276,-25.992892,969.601)"
       x1="156.54872"
       y1="-71.377922"
       x2="171.44165"
       y2="8.1136484" />
    <linearGradient
       y2="31.889753"
       x2="87.696861"
       y1="-60.236233"
       x1="59.350403"
       gradientTransform="matrix(0.42947703,0,0,0.58518512,-22.205914,993.5323)"
       gradientUnits="userSpaceOnUse"
       id="linearGradient3276"
       xlink:href="#linearGradient3888-9-1"
       inkscape:collect="always" />
    <linearGradient
       inkscape:collect="always"
       id="linearGradient3888-9-1">
      <stop
         style="stop-color:#888888;stop-opacity:1;"
         offset="0"
         id="stop3890-4-3" />
      <stop
         style="stop-color:#888888;stop-opacity:0;"
         offset="1"
         id="stop3892-6-2" />
    </linearGradient>
    <linearGradient
       y2="3.5432959"
       x2="123.12993"
       y1="-59.793339"
       x1="95.22641"
       gradientTransform="matrix(0.42947703,0,0,0.58518512,-22.205914,993.5323)"
       gradientUnits="userSpaceOnUse"
       id="linearGradient3278"
       xlink:href="#linearGradient3870-2-82"
       inkscape:collect="always" />
    <linearGradient
       id="linearGradient3870-2-82">
      <stop
         style="stop-color:#000250;stop-opacity:1;"
         offset="0"
         id="stop3872-0-2" />
      <stop
         style="stop-color:#000185;stop-opacity:0;"
         offset="1"
         id="stop3874-3-71" />
    </linearGradient>
    <marker
       style="overflow:visible"
       id="Arrow2Mendwj"
       refX="0"
       refY="0"
       orient="auto"
       inkscape:stockid="Arrow2Mendwj">
      <path
         transform="scale(-0.6,-0.6)"
         d="M 8.7185878,4.0337352 -2.2072895,0.01601326 8.7185884,-4.0017078 c -1.7454984,2.3720609 -1.7354408,5.6174519 -6e-7,8.035443 z"
         style="fill:#2d897a;fill-rule:evenodd;stroke:#2d897a;stroke-width:0.625;stroke-linejoin:round"
         id="path5949"
         inkscape:connector-curvature="0" />
    </marker>
    <linearGradient
       inkscape:collect="always"
       xlink:href="#linearGradient3888-9-1"
       id="linearGradient3391"
       gradientUnits="userSpaceOnUse"
       gradientTransform="matrix(0.42947703,0,0,0.58518512,-20.149413,811.41726)"
       x1="59.350403"
       y1="-60.236233"
       x2="87.696861"
       y2="31.889753" />
    <linearGradient
       inkscape:collect="always"
       xlink:href="#linearGradient3870-2-82"
       id="linearGradient3393"
       gradientUnits="userSpaceOnUse"
       gradientTransform="matrix(0.42947703,0,0,0.58518512,-20.149413,811.41726)"
       x1="95.22641"
       y1="-59.793339"
       x2="123.12993"
       y2="3.5432959" />
    <linearGradient
       inkscape:collect="always"
       xlink:href="#linearGradient3888-9-1"
       id="linearGradient3395"
       gradientUnits="userSpaceOnUse"
       gradientTransform="matrix(0.42947703,0,0,0.58518512,263.48838,811.19143)"
       x1="59.350403"
       y1="-60.236233"
       x2="87.696861"
       y2="31.889753" />
    <linearGradient
       inkscape:collect="always"
       xlink:href="#linearGradient3870-2-82"
       id="linearGradient3397"
       gradientUnits="userSpaceOnUse"
       gradientTransform="matrix(0.42947703,0,0,0.58518512,263.48838,811.19143)"
       x1="95.22641"
       y1="-59.793339"
       x2="123.12993"
       y2="3.5432959" />
    <linearGradient
       inkscape:collect="always"
       xlink:href="#linearGradient3888-9-1"
       id="linearGradient3399"
       gradientUnits="userSpaceOnUse"
       gradientTransform="matrix(0.42947703,0,0,0.58518512,-20.149413,933.35346)"
       x1="59.350403"
       y1="-60.236233"
       x2="87.696861"
       y2="31.889753" />
    <linearGradient
       inkscape:collect="always"
       xlink:href="#linearGradient3870-2-82"
       id="linearGradient3401"
       gradientUnits="userSpaceOnUse"
       gradientTransform="matrix(0.42947703,0,0,0.58518512,-20.149413,933.35346)"
       x1="95.22641"
       y1="-59.793339"
       x2="123.12993"
       y2="3.5432959" />
    <linearGradient
       inkscape:collect="always"
       xlink:href="#linearGradient3888-9-1"
       id="linearGradient3403"
       gradientUnits="userSpaceOnUse"
       gradientTransform="matrix(0.42947703,0,0,0.58518512,263.48838,933.12763)"
       x1="59.350403"
       y1="-60.236233"
       x2="87.696861"
       y2="31.889753" />
    <linearGradient
       inkscape:collect="always"
       xlink:href="#linearGradient3870-2-82"
       id="linearGradient3405"
       gradientUnits="userSpaceOnUse"
       gradientTransform="matrix(0.42947703,0,0,0.58518512,263.48838,933.12763)"
       x1="95.22641"
       y1="-59.793339"
       x2="123.12993"
       y2="3.5432959" />
    <linearGradient
       inkscape:collect="always"
       xlink:href="#linearGradient3888-9-1"
       id="linearGradient3086"
       gradientUnits="userSpaceOnUse"
       gradientTransform="matrix(0.42947703,0,0,0.58518512,263.66161,1009.6166)"
       x1="59.350403"
       y1="-60.236233"
       x2="87.696861"
       y2="31.889753" />
    <linearGradient
       inkscape:collect="always"
       xlink:href="#linearGradient3870-2-82"
       id="linearGradient3088"
       gradientUnits="userSpaceOnUse"
       gradientTransform="matrix(0.42947703,0,0,0.58518512,263.66161,1009.6166)"
       x1="95.22641"
       y1="-59.793339"
       x2="123.12993"
       y2="3.5432959" />
    <linearGradient
       inkscape:collect="always"
       xlink:href="#linearGradient3888-9-1"
       id="linearGradient3092"
       gradientUnits="userSpaceOnUse"
       gradientTransform="matrix(0.42947703,0,0,0.58518512,-19.976183,1009.8424)"
       x1="59.350403"
       y1="-60.236233"
       x2="87.696861"
       y2="31.889753" />
    <linearGradient
       inkscape:collect="always"
       xlink:href="#linearGradient3870-2-82"
       id="linearGradient3094"
       gradientUnits="userSpaceOnUse"
       gradientTransform="matrix(0.42947703,0,0,0.58518512,-19.976183,1009.8424)"
       x1="95.22641"
       y1="-59.793339"
       x2="123.12993"
       y2="3.5432959" />
    <linearGradient
       inkscape:collect="always"
       xlink:href="#linearGradient3888-9-1"
       id="linearGradient3106"
       gradientUnits="userSpaceOnUse"
       gradientTransform="matrix(0.42947703,0,0,0.58518512,263.66161,887.68041)"
       x1="59.350403"
       y1="-60.236233"
       x2="87.696861"
       y2="31.889753" />
    <linearGradient
       inkscape:collect="always"
       xlink:href="#linearGradient3870-2-82"
       id="linearGradient3108"
       gradientUnits="userSpaceOnUse"
       gradientTransform="matrix(0.42947703,0,0,0.58518512,263.66161,887.68041)"
       x1="95.22641"
       y1="-59.793339"
       x2="123.12993"
       y2="3.5432959" />
    <linearGradient
       inkscape:collect="always"
       xlink:href="#linearGradient3888-9-1"
       id="linearGradient3119"
       gradientUnits="userSpaceOnUse"
       gradientTransform="matrix(0.42947703,0,0,0.58518512,-19.976183,887.90624)"
       x1="59.350403"
       y1="-60.236233"
       x2="87.696861"
       y2="31.889753" />
    <linearGradient
       inkscape:collect="always"
       xlink:href="#linearGradient3870-2-82"
       id="linearGradient3121"
       gradientUnits="userSpaceOnUse"
       gradientTransform="matrix(0.42947703,0,0,0.58518512,-19.976183,887.90624)"
       x1="95.22641"
       y1="-59.793339"
       x2="123.12993"
       y2="3.5432959" />
    <linearGradient
       inkscape:collect="always"
       id="linearGradient3888-9-1-2">
      <stop
         style="stop-color:#888888;stop-opacity:1;"
         offset="0"
         id="stop3890-4-3-7" />
      <stop
         style="stop-color:#888888;stop-opacity:0;"
         offset="1"
         id="stop3892-6-2-0" />
    </linearGradient>
    <linearGradient
       id="linearGradient3870-2-82-4">
      <stop
         style="stop-color:#000250;stop-opacity:1;"
         offset="0"
         id="stop3872-0-2-9" />
      <stop
         style="stop-color:#000185;stop-opacity:0;"
         offset="1"
         id="stop3874-3-71-1" />
    </linearGradient>
    <linearGradient
       id="linearGradient3433">
      <stop
         style="stop-color:#000250;stop-opacity:1;"
         offset="0"
         id="stop3435" />
      <stop
         style="stop-color:#000185;stop-opacity:0;"
         offset="1"
         id="stop3437" />
    </linearGradient>
    <linearGradient
       id="linearGradient3447">
      <stop
         style="stop-color:#000250;stop-opacity:1;"
         offset="0"
         id="stop3449" />
      <stop
         style="stop-color:#000185;stop-opacity:0;"
         offset="1"
         id="stop3451" />
    </linearGradient>
    <linearGradient
       id="linearGradient3461">
      <stop
         style="stop-color:#000250;stop-opacity:1;"
         offset="0"
         id="stop3463" />
      <stop
         style="stop-color:#000185;stop-opacity:0;"
         offset="1"
         id="stop3465" />
    </linearGradient>
    <marker
       style="overflow:visible"
       id="Arrow2Mendwj-3"
       refX="0"
       refY="0"
       orient="auto"
       inkscape:stockid="Arrow2Mendwj">
      <path
         transform="scale(-0.6,-0.6)"
         d="M 8.7185878,4.0337352 -2.2072895,0.01601326 8.7185884,-4.0017078 c -1.7454984,2.3720609 -1.7354408,5.6174519 -6e-7,8.035443 z"
         style="fill:#2d897a;fill-rule:evenodd;stroke:#2d897a;stroke-width:0.625;stroke-linejoin:round"
         id="path5949-0"
         inkscape:connector-curvature="0" />
    </marker>
    <linearGradient
       inkscape:collect="always"
       xlink:href="#linearGradient3888-9-1-2"
       id="linearGradient3149"
       gradientUnits="userSpaceOnUse"
       gradientTransform="matrix(0.42947703,0,0,0.58518512,-19.976183,887.90624)"
       x1="59.350403"
       y1="-60.236233"
       x2="87.696861"
       y2="31.889753" />
    <linearGradient
       inkscape:collect="always"
       xlink:href="#linearGradient3870-2-82-4"
       id="linearGradient3151"
       gradientUnits="userSpaceOnUse"
       gradientTransform="matrix(0.42947703,0,0,0.58518512,-19.976183,887.90624)"
       x1="95.22641"
       y1="-59.793339"
       x2="123.12993"
       y2="3.5432959" />
    <marker
       style="overflow:visible"
       id="Arrow2MendwjS"
       refX="0"
       refY="0"
       orient="auto"
       inkscape:stockid="Arrow2MendwjS">
      <path
         transform="scale(-0.6,-0.6)"
         d="M 8.7185878,4.0337352 -2.2072895,0.01601326 8.7185884,-4.0017078 c -1.7454984,2.3720609 -1.7354408,5.6174519 -6e-7,8.035443 z"
         style="fill:#c64163;fill-rule:evenodd;stroke:#c64163;stroke-width:0.625;stroke-linejoin:round"
         id="path3203"
         inkscape:connector-curvature="0" />
    </marker>
    <marker
       inkscape:stockid="Arrow2Sendv"
       orient="auto"
       refY="0"
       refX="0"
       id="Arrow2Sendv"
       style="overflow:visible">
      <path
         id="path7041"
         style="fill:#191100;fill-rule:evenodd;stroke:#191100;stroke-width:0.625;stroke-linejoin:round"
         d="M 8.7185878,4.0337352 -2.2072895,0.01601326 8.7185884,-4.0017078 c -1.7454984,2.3720609 -1.7354408,5.6174519 -6e-7,8.035443 z"
         transform="matrix(-0.3,0,0,-0.3,0.69,0)"
         inkscape:connector-curvature="0" />
    </marker>
    <marker
       style="overflow:visible"
       id="Arrow2MendWTH"
       refX="0"
       refY="0"
       orient="auto"
       inkscape:stockid="Arrow2MendWTH">
      <path
         transform="scale(-0.6,-0.6)"
         d="M 8.7185878,4.0337352 -2.2072895,0.01601326 8.7185884,-4.0017078 c -1.7454984,2.3720609 -1.7354408,5.6174519 -6e-7,8.035443 z"
         style="fill:#c64163;fill-rule:evenodd;stroke:#c64163;stroke-width:0.625;stroke-linejoin:round"
         id="path4408"
         inkscape:connector-curvature="0" />
    </marker>
    <marker
       style="overflow:visible"
       id="Arrow2MendWTHf"
       refX="0"
       refY="0"
       orient="auto"
       inkscape:stockid="Arrow2MendWTHf">
      <path
         transform="scale(-0.6,-0.6)"
         d="M 8.7185878,4.0337352 -2.2072895,0.01601326 8.7185884,-4.0017078 c -1.7454984,2.3720609 -1.7354408,5.6174519 -6e-7,8.035443 z"
         style="fill:#0000ff;fill-rule:evenodd;stroke:#0000ff;stroke-width:0.625;stroke-linejoin:round"
         id="path3256"
         inkscape:connector-curvature="0" />
    </marker>
    <marker
       style="overflow:visible"
       id="Arrow2MendWTHB"
       refX="0"
       refY="0"
       orient="auto"
       inkscape:stockid="Arrow2MendWTHB">
      <path
         transform="scale(-0.6,-0.6)"
         d="M 8.7185878,4.0337352 -2.2072895,0.01601326 8.7185884,-4.0017078 c -1.7454984,2.3720609 -1.7354408,5.6174519 -6e-7,8.035443 z"
         style="fill:#0000ff;fill-rule:evenodd;stroke:#0000ff;stroke-width:0.625;stroke-linejoin:round"
         id="path3259"
         inkscape:connector-curvature="0" />
    </marker>
    <marker
       style="overflow:visible"
       id="Arrow2MendWTHH"
       refX="0"
       refY="0"
       orient="auto"
       inkscape:stockid="Arrow2MendWTHH">
      <path
         transform="scale(-0.6,-0.6)"
         d="M 8.7185878,4.0337352 -2.2072895,0.01601326 8.7185884,-4.0017078 c -1.7454984,2.3720609 -1.7354408,5.6174519 -6e-7,8.035443 z"
         style="fill:#ff0000;fill-rule:evenodd;stroke:#ff0000;stroke-width:0.625;stroke-linejoin:round"
         id="path3262"
         inkscape:connector-curvature="0" />
    </marker>
  </defs>
  <metadata
     id="metadata7">
    <rdf:RDF>
      <cc:Work
         rdf:about="">
        <dc:format>image/svg+xml</dc:format>
        <dc:type
           rdf:resource="http://purl.org/dc/dcmitype/StillImage" />
        <dc:title />
      </cc:Work>
    </rdf:RDF>
  </metadata>
  <g
     inkscape:groupmode="layer"
     id="layer2"
     inkscape:label="Background"
     transform="translate(11.086615,-719.29138)"
     style="display:inline">
    <rect
       style="fill:#ffffff;stroke:none;display:inline"
       id="rect3907"
       width="584.64569"
       height="205.51181"
       x="-11.086615"
       y="719.29138"
       rx="0" />
  </g>
  <g
     inkscape:label="Locked"
     id="layer3"
     inkscape:groupmode="layer"
     sodipodi:insensitive="true"
     transform="translate(0.45669361,106.2992)">
    <rect
       ry="10.629921"
       rx="10.629921"
       y="-97.685982"
       x="4.4291334"
       height="188.92615"
       width="260.43307"
       id="rect3106"
       style="fill:#92c7be;fill-opacity:1;stroke:#2d897a;stroke-width:1.77165365;stroke-miterlimit:4;stroke-opacity:1;stroke-dasharray:none;display:inline" />
  </g>
  <g
     inkscape:label="Layer 1"
     inkscape:groupmode="layer"
     id="layer1"
     transform="translate(11.086615,-719.29138)"
     style="display:inline">
    <text
       xml:space="preserve"
       style="font-size:14px;font-style:normal;font-variant:normal;font-weight:normal;font-stretch:normal;text-align:start;text-anchor:start;fill:#004438;fill-opacity:1;stroke:none;display:inline;font-family:DejaVu Sans;-inkscape-font-specification:DejaVu Sans"
       x="5.5163016"
       y="746.66119"
       id="text3261"><tspan
         style="font-size:16px;fill:#004438"
         id="tspan3263"
         sodipodi:role="line"
         x="5.5163016"
         y="746.66119">Repo usr1</tspan></text>
    <rect
       ry="10.62992"
       rx="10.629921"
       y="727.26379"
       x="383.21649"
       height="97.072685"
       width="175.56694"
       id="rect3097"
       style="fill:#f2b1c1;fill-opacity:1;stroke:#c64163;stroke-width:1.77165353;stroke-miterlimit:4;stroke-opacity:1;stroke-dasharray:none" />
    <path
       sodipodi:nodetypes="ccc"
       inkscape:connector-curvature="0"
       id="path3893"
       d="m 35.433071,769.10982 0,84.22726 -14.173229,7.08661"
       style="fill:none;stroke:#000000;stroke-width:1.77165353;stroke-linecap:butt;stroke-linejoin:miter;stroke-opacity:1" />
    <path
       transform="matrix(0.5833333,0,0,0.58333332,-154.7244,729.83816)"
       d="m 336.61417,67.322845 c 0,5.870744 -4.75917,10.629921 -10.62992,10.629921 -5.87074,0 -10.62992,-4.759177 -10.62992,-10.629921 0,-5.870743 4.75918,-10.629921 10.62992,-10.629921 5.87075,0 10.62992,4.759178 10.62992,10.629921 z"
       sodipodi:ry="10.629921"
       sodipodi:rx="10.629921"
       sodipodi:cy="67.322845"
       sodipodi:cx="325.98425"
       id="path3101"
       style="fill:#ff0000;fill-opacity:1;stroke:#00100d;stroke-width:3.03712034;stroke-miterlimit:4;stroke-opacity:1;stroke-dasharray:none"
       sodipodi:type="arc" />
    <path
       sodipodi:type="arc"
       style="fill:#ffff00;fill-opacity:1;stroke:#00100d;stroke-width:3.03712034;stroke-miterlimit:4;stroke-opacity:1;stroke-dasharray:none"
       id="path3889"
       sodipodi:cx="325.98425"
       sodipodi:cy="67.322845"
       sodipodi:rx="10.629921"
       sodipodi:ry="10.629921"
       d="m 336.61417,67.322845 c 0,5.870744 -4.75917,10.629921 -10.62992,10.629921 -5.87074,0 -10.62992,-4.759177 -10.62992,-10.629921 0,-5.870743 4.75918,-10.629921 10.62992,-10.629921 5.87075,0 10.62992,4.759178 10.62992,10.629921 z"
       transform="matrix(0.5833333,0,0,0.58333332,-154.7244,786.53107)" />
    <path
       style="fill:none;stroke:#000000;stroke-width:1.77165353;stroke-linecap:butt;stroke-linejoin:miter;stroke-opacity:1"
       d="m 21.259842,762.0232 0,105.4871"
       id="path3082"
       inkscape:connector-curvature="0"
       sodipodi:nodetypes="cc" />
    <g
       transform="translate(-6.8999844,-13.961102)"
       id="g4018">
      <path
         sodipodi:nodetypes="ccc"
         inkscape:connector-curvature="0"
         id="path3906"
         d="m 56.692913,775.98429 0,7.08662 7.08662,0"
         style="fill:none;stroke:#ff0000;stroke-width:2.65748024;stroke-linecap:butt;stroke-linejoin:miter;stroke-opacity:1" />
      <path
         sodipodi:nodetypes="ccccc"
         inkscape:connector-curvature="0"
         id="path3908"
         d="m 56.692913,775.98429 0,14.17323 7.08662,0 0,14.17323 7.08661,0"
         style="fill:none;stroke:#ff0000;stroke-width:2.65748024;stroke-linecap:butt;stroke-linejoin:miter;stroke-opacity:1" />
      <path
         sodipodi:nodetypes="cc"
         inkscape:connector-curvature="0"
         id="path3910"
         d="m 63.779523,797.24414 7.08662,0"
         style="fill:none;stroke:#ff0000;stroke-width:2.65748024;stroke-linecap:butt;stroke-linejoin:miter;stroke-opacity:1" />
      <path
         inkscape:connector-curvature="0"
         id="path3912"
         d="m 56.692913,790.15752 0,21.25985 7.08662,0 0,7.08661 7.08661,0"
         style="fill:none;stroke:#ff0000;stroke-width:2.65748024;stroke-linecap:butt;stroke-linejoin:miter;stroke-opacity:1"
         sodipodi:nodetypes="ccccc" />
    </g>
    <g
       style="stroke:#ffff00"
       transform="translate(-6.8999844,-13.961102)"
       id="g4024">
      <path
         style="fill:none;stroke:#ffff00;stroke-width:2.65748024;stroke-linecap:butt;stroke-linejoin:miter;stroke-opacity:1"
         d="m 56.692913,832.6772 0,7.08663 7.08662,0"
         id="path3916"
         inkscape:connector-curvature="0"
         sodipodi:nodetypes="ccc" />
      <path
         style="fill:none;stroke:#ffff00;stroke-width:2.65748024;stroke-linecap:butt;stroke-linejoin:miter;stroke-opacity:1"
         d="m 56.692913,832.6772 0,14.17323 7.08662,0 0,14.17323 7.08661,0"
         id="path3918"
         inkscape:connector-curvature="0"
         sodipodi:nodetypes="ccccc" />
      <path
         style="fill:none;stroke:#ffff00;stroke-width:2.65748024;stroke-linecap:butt;stroke-linejoin:miter;stroke-opacity:1"
         d="m 63.779523,853.93706 7.08662,0"
         id="path3920"
         inkscape:connector-curvature="0"
         sodipodi:nodetypes="cc" />
      <path
         style="fill:none;stroke:#ffff00;stroke-width:2.65748024;stroke-linecap:butt;stroke-linejoin:miter;stroke-opacity:1"
         d="m 56.692913,846.85043 0,21.25986 7.08662,0 0,7.0866 7.08661,0"
         id="path3922"
         inkscape:connector-curvature="0"
         sodipodi:nodetypes="ccccc" />
    </g>
    <rect
       ry="0"
       y="762.6969"
       x="93.01181"
       height="20.374044"
       width="69.980286"
       id="rect4068"
       style="fill:#fd3301;fill-opacity:1;stroke:#191100;stroke-width:1.77165353;stroke-miterlimit:4;stroke-opacity:1;stroke-dasharray:none;display:inline" />
    <g
       style="font-size:12px;font-style:normal;font-variant:normal;font-weight:normal;font-stretch:normal;text-align:center;line-height:125%;letter-spacing:0px;word-spacing:0px;writing-mode:lr-tb;text-anchor:middle;fill:#000000;fill-opacity:1;fill-rule:nonzero;stroke:none;display:inline;font-family:DejaVu Sans Mono;-inkscape-font-specification:DejaVu Sans Mono"
       id="text4070">
      <path
         d="m 101.37756,769.64331 0,1.40625 c -0.41147,-0.23958 -0.82553,-0.41926 -1.24219,-0.53906 -0.416674,-0.11979 -0.841153,-0.17968 -1.273439,-0.17969 -0.651046,10e-6 -1.138025,0.10678 -1.460938,0.32031 -0.317711,0.20834 -0.476565,0.52866 -0.476562,0.96094 -3e-6,0.39063 0.119788,0.6823 0.359375,0.875 0.239579,0.19271 0.835933,0.38021 1.789062,0.5625 l 0.578125,0.10938 c 0.713537,0.13542 1.252597,0.40625 1.617187,0.8125 0.36978,0.40625 0.55468,0.93489 0.55469,1.58593 -10e-6,0.86459 -0.3073,1.54167 -0.92188,2.03125 -0.61459,0.48438 -1.468752,0.72657 -2.562497,0.72657 -0.432295,0 -0.88542,-0.0469 -1.359375,-0.14063 -0.473961,-0.0885 -0.986981,-0.22396 -1.539062,-0.40625 l 0,-1.48437 c 0.536456,0.27604 1.049476,0.48437 1.539062,0.625 0.48958,0.13541 0.953121,0.20312 1.390625,0.20312 0.635412,0 1.127599,-0.1276 1.476563,-0.38281 0.348954,-0.26042 0.523434,-0.6224 0.523434,-1.08594 0,-0.66666 -0.638023,-1.1276 -1.914059,-1.38281 l -0.0625,-0.0156 -0.539063,-0.10937 c -0.828128,-0.16146 -1.432294,-0.43229 -1.8125,-0.8125 -0.38021,-0.38541 -0.570314,-0.90885 -0.570312,-1.57031 -2e-6,-0.83854 0.283852,-1.48437 0.851562,-1.9375 0.567706,-0.45833 1.377601,-0.6875 2.429688,-0.6875 0.468744,0 0.919265,0.0443 1.351564,0.13281 0.43228,0.0833 0.85676,0.21094 1.27344,0.38281"
         style="font-size:16px;line-height:125%;fill:#000000;font-family:DejaVu Sans Mono;-inkscape-font-specification:DejaVu Sans Mono"
         id="path4620" />
      <path
         d="m 108.19787,766.85425 0,2.48437 3.26562,0 0,1.11719 -3.26562,0 0,4.75 c -10e-6,0.64584 0.12239,1.09636 0.36719,1.35156 0.24478,0.25521 0.67187,0.38282 1.28125,0.38282 l 1.61718,0 0,1.14843 -1.75781,0 c -1.07813,0 -1.83855,-0.21614 -2.28125,-0.64843 -0.44271,-0.4323 -0.66407,-1.17709 -0.66406,-2.23438 l 0,-4.75 -2.33594,0 0,-1.11719 2.33594,0 0,-2.48437 1.4375,0"
         style="font-size:16px;line-height:125%;fill:#000000;font-family:DejaVu Sans Mono;-inkscape-font-specification:DejaVu Sans Mono"
         id="path4622" />
      <path
         d="m 114.54943,774.77612 0,-5.42187 1.4375,0 0,5.42187 c 0,0.78646 0.13802,1.36459 0.41406,1.73438 0.28125,0.36979 0.71354,0.55469 1.29688,0.55469 0.67708,0 1.1953,-0.23698 1.55469,-0.71094 0.35936,-0.47917 0.53905,-1.16406 0.53906,-2.05469 l 0,-4.94531 1.44531,0 0,8.73437 -1.44531,0 0,-1.3125 c -0.25522,0.50521 -0.60417,0.88802 -1.04688,1.14844 -0.4375,0.26042 -0.95052,0.39063 -1.53906,0.39063 -0.89584,0 -1.5625,-0.29167 -2,-0.875 -0.4375,-0.58854 -0.65625,-1.47656 -0.65625,-2.66407"
         style="font-size:16px;line-height:125%;fill:#000000;font-family:DejaVu Sans Mono;-inkscape-font-specification:DejaVu Sans Mono"
         id="path4624" />
      <path
         d="m 129.35412,770.45581 0,-4.52344 1.4375,0 0,12.15625 -1.4375,0 0,-1.10156 c -0.23959,0.43229 -0.5599,0.76302 -0.96094,0.99219 -0.39584,0.22396 -0.85417,0.33594 -1.375,0.33594 -1.05729,0 -1.89063,-0.40886 -2.5,-1.22657 -0.60417,-0.82291 -0.90625,-1.95572 -0.90625,-3.39843 0,-1.42187 0.30469,-2.53646 0.91406,-3.34375 0.60938,-0.8125 1.4401,-1.21875 2.49219,-1.21875 0.52604,0 0.98958,0.11459 1.39063,0.34375 0.40103,0.22396 0.71614,0.55209 0.94531,0.98437 m -4.22656,3.26563 c -1e-5,1.11458 0.17708,1.95573 0.53125,2.52343 0.35416,0.56771 0.8776,0.85157 1.57031,0.85157 0.6927,0 1.21874,-0.28646 1.57812,-0.85938 0.36458,-0.57291 0.54687,-1.41145 0.54688,-2.51562 -1e-5,-1.10937 -0.1823,-1.94791 -0.54688,-2.51563 -0.35938,-0.57291 -0.88542,-0.85937 -1.57812,-0.85937 -0.69271,0 -1.21615,0.28386 -1.57031,0.85156 -0.35417,0.56771 -0.53126,1.40886 -0.53125,2.52344"
         style="font-size:16px;line-height:125%;fill:#000000;font-family:DejaVu Sans Mono;-inkscape-font-specification:DejaVu Sans Mono"
         id="path4626" />
      <path
         d="m 138.97912,775.27612 c -0.23959,0.60938 -0.54428,1.41146 -0.91406,2.40625 -0.51563,1.375 -0.86199,2.21354 -1.03907,2.51563 -0.23958,0.40625 -0.53906,0.71093 -0.89843,0.91406 -0.35938,0.20312 -0.77865,0.30468 -1.25782,0.30469 l -1.15625,0 0,-1.20313 0.85157,0 c 0.42187,0 0.7526,-0.12239 0.99218,-0.36718 0.23958,-0.2448 0.54427,-0.87761 0.91407,-1.89844 l -3.38282,-8.60938 1.52344,0 2.59375,6.84375 2.55469,-6.84375 1.52344,0 -2.30469,5.9375"
         style="font-size:16px;line-height:125%;fill:#000000;font-family:DejaVu Sans Mono;-inkscape-font-specification:DejaVu Sans Mono"
         id="path4628" />
      <path
         d="m 145.72131,775.70581 1.96875,0 0,2.38281 -1.96875,0 0,-2.38281"
         style="font-size:16px;line-height:125%;fill:#000000;font-family:DejaVu Sans Mono;-inkscape-font-specification:DejaVu Sans Mono"
         id="path4630" />
      <path
         d="m 153.63537,776.7605 2.45312,0 0,-8.91406 -2.64062,0.59375 0,-1.4375 2.625,-0.57813 1.57812,0 0,10.33594 2.42188,0 0,1.32812 -6.4375,0 0,-1.32812"
         style="font-size:16px;line-height:125%;fill:#000000;font-family:DejaVu Sans Mono;-inkscape-font-specification:DejaVu Sans Mono"
         id="path4632" />
    </g>
    <rect
       ry="0"
       y="762.6969"
       x="411.73621"
       height="20.374037"
       width="111.78741"
       id="rect4074"
       style="fill:#fd3301;fill-opacity:1;stroke:#191100;stroke-width:1.77165353;stroke-miterlimit:4;stroke-opacity:1;stroke-dasharray:none;display:inline" />
    <g
       style="font-size:16px;font-style:normal;font-variant:normal;font-weight:normal;font-stretch:normal;text-align:start;line-height:125%;letter-spacing:0px;word-spacing:0px;writing-mode:lr-tb;text-anchor:start;fill:#000000;fill-opacity:1;fill-rule:nonzero;stroke:none;display:inline;font-family:DejaVu Sans Mono;-inkscape-font-specification:DejaVu Sans Mono"
       id="text4076">
      <path
         d="m 420.20618,773.69019 -0.47657,0 c -0.83854,0 -1.47135,0.14844 -1.89843,0.44531 -0.42188,0.29167 -0.63282,0.72917 -0.63282,1.3125 0,0.52604 0.15886,0.9349 0.47657,1.22656 0.3177,0.29167 0.75781,0.4375 1.32031,0.4375 0.79166,0 1.41406,-0.27344 1.86719,-0.82031 0.45312,-0.55208 0.68228,-1.3125 0.6875,-2.28125 l 0,-0.32031 -1.34375,0 m 2.78906,-0.59375 0,4.99218 -1.44531,0 0,-1.29687 c -0.3073,0.52083 -0.69532,0.90625 -1.16407,1.15625 -0.46354,0.24479 -1.02865,0.36719 -1.69531,0.36719 -0.89063,0 -1.60156,-0.25 -2.13281,-0.75 -0.53125,-0.50521 -0.79688,-1.17969 -0.79688,-2.02344 0,-0.97396 0.32552,-1.71354 0.97657,-2.21875 0.65624,-0.50521 1.61718,-0.75781 2.88281,-0.75781 l 1.92969,0 0,-0.22657 c -0.005,-0.69791 -0.1823,-1.20312 -0.53125,-1.51562 -0.34897,-0.3177 -0.90626,-0.47656 -1.67188,-0.47656 -0.48959,0 -0.98438,0.0703 -1.48437,0.21093 -0.50001,0.14064 -0.98698,0.34636 -1.46094,0.61719 l 0,-1.4375 c 0.53125,-0.20312 1.03906,-0.35416 1.52344,-0.45312 0.48958,-0.10416 0.96353,-0.15625 1.42187,-0.15625 0.72395,0 1.34114,0.10678 1.85156,0.32031 0.51562,0.21355 0.93229,0.53386 1.25,0.96094 0.19791,0.26042 0.33854,0.58334 0.42188,0.96875 0.0833,0.38021 0.12499,0.95313 0.125,1.71875"
         style="line-height:125%;fill:#000000;font-family:DejaVu Sans Mono;-inkscape-font-specification:DejaVu Sans Mono"
         id="path4554" />
      <path
         d="m 431.29211,766.42456 1.48438,0 -6.14063,13.14844 -1.49218,0 6.14843,-13.14844"
         style="line-height:125%;fill:#000000;font-family:DejaVu Sans Mono;-inkscape-font-specification:DejaVu Sans Mono"
         id="path4556" />
      <path
         d="m 441.14368,773.72144 c -1e-5,-1.11458 -0.17709,-1.95573 -0.53125,-2.52344 -0.35418,-0.5677 -0.87761,-0.85156 -1.57032,-0.85156 -0.69792,0 -1.22656,0.28646 -1.58593,0.85937 -0.35938,0.56772 -0.53907,1.40626 -0.53907,2.51563 0,1.10417 0.17969,1.94271 0.53907,2.51562 0.35937,0.57292 0.88801,0.85938 1.58593,0.85938 0.69271,0 1.21614,-0.28386 1.57032,-0.85157 0.35416,-0.5677 0.53124,-1.40885 0.53125,-2.52343 m -4.22657,-3.26563 c 0.22917,-0.42707 0.54427,-0.7552 0.94532,-0.98437 0.40624,-0.22916 0.87499,-0.34375 1.40625,-0.34375 1.05207,0 1.8802,0.40625 2.48437,1.21875 0.60416,0.80729 0.90624,1.92188 0.90625,3.34375 -10e-6,1.44271 -0.30469,2.57552 -0.91406,3.39843 -0.60417,0.81771 -1.4349,1.22657 -2.49219,1.22657 -0.52084,0 -0.98177,-0.11198 -1.38281,-0.33594 -0.39584,-0.22917 -0.71355,-0.5599 -0.95313,-0.99219 l 0,1.10156 -1.4375,0 0,-12.15625 1.4375,0 0,4.52344"
         style="line-height:125%;fill:#000000;font-family:DejaVu Sans Mono;-inkscape-font-specification:DejaVu Sans Mono"
         id="path4558" />
      <path
         d="m 450.54211,766.42456 1.48438,0 -6.14063,13.14844 -1.49218,0 6.14843,-13.14844"
         style="line-height:125%;fill:#000000;font-family:DejaVu Sans Mono;-inkscape-font-specification:DejaVu Sans Mono"
         id="path4560" />
      <path
         d="m 460.82336,769.64331 0,1.40625 c -0.41146,-0.23958 -0.82552,-0.41926 -1.24218,-0.53906 -0.41668,-0.11979 -0.84115,-0.17968 -1.27344,-0.17969 -0.65105,10e-6 -1.13803,0.10678 -1.46094,0.32031 -0.31771,0.20834 -0.47656,0.52866 -0.47656,0.96094 0,0.39063 0.11979,0.6823 0.35937,0.875 0.23958,0.19271 0.83594,0.38021 1.78907,0.5625 l 0.57812,0.10938 c 0.71354,0.13542 1.2526,0.40625 1.61719,0.8125 0.36978,0.40625 0.55468,0.93489 0.55469,1.58593 -1e-5,0.86459 -0.3073,1.54167 -0.92188,2.03125 -0.61459,0.48438 -1.46875,0.72657 -2.5625,0.72657 -0.43229,0 -0.88542,-0.0469 -1.35937,-0.14063 -0.47396,-0.0885 -0.98698,-0.22396 -1.53907,-0.40625 l 0,-1.48437 c 0.53646,0.27604 1.04948,0.48437 1.53907,0.625 0.48958,0.13541 0.95312,0.20312 1.39062,0.20312 0.63541,0 1.1276,-0.1276 1.47656,-0.38281 0.34896,-0.26042 0.52344,-0.6224 0.52344,-1.08594 0,-0.66666 -0.63803,-1.1276 -1.91406,-1.38281 l -0.0625,-0.0156 -0.53906,-0.10937 c -0.82813,-0.16146 -1.4323,-0.43229 -1.8125,-0.8125 -0.38021,-0.38541 -0.57032,-0.90885 -0.57032,-1.57031 0,-0.83854 0.28386,-1.48437 0.85157,-1.9375 0.5677,-0.45833 1.3776,-0.6875 2.42968,-0.6875 0.46875,0 0.91927,0.0443 1.35157,0.13281 0.43228,0.0833 0.85676,0.21094 1.27343,0.38281"
         style="line-height:125%;fill:#000000;font-family:DejaVu Sans Mono;-inkscape-font-specification:DejaVu Sans Mono"
         id="path4562" />
      <path
         d="m 467.64368,766.85425 0,2.48437 3.26562,0 0,1.11719 -3.26562,0 0,4.75 c -1e-5,0.64584 0.12239,1.09636 0.36718,1.35156 0.24479,0.25521 0.67187,0.38282 1.28125,0.38282 l 1.61719,0 0,1.14843 -1.75781,0 c -1.07813,0 -1.83855,-0.21614 -2.28125,-0.64843 -0.44271,-0.4323 -0.66407,-1.17709 -0.66406,-2.23438 l 0,-4.75 -2.33594,0 0,-1.11719 2.33594,0 0,-2.48437 1.4375,0"
         style="line-height:125%;fill:#000000;font-family:DejaVu Sans Mono;-inkscape-font-specification:DejaVu Sans Mono"
         id="path4564" />
      <path
         d="m 473.99524,774.77612 0,-5.42187 1.4375,0 0,5.42187 c 0,0.78646 0.13802,1.36459 0.41406,1.73438 0.28125,0.36979 0.71354,0.55469 1.29688,0.55469 0.67707,0 1.1953,-0.23698 1.55468,-0.71094 0.35937,-0.47917 0.53906,-1.16406 0.53907,-2.05469 l 0,-4.94531 1.44531,0 0,8.73437 -1.44531,0 0,-1.3125 c -0.25522,0.50521 -0.60418,0.88802 -1.04688,1.14844 -0.4375,0.26042 -0.95052,0.39063 -1.53906,0.39063 -0.89584,0 -1.5625,-0.29167 -2,-0.875 -0.4375,-0.58854 -0.65625,-1.47656 -0.65625,-2.66407"
         style="line-height:125%;fill:#000000;font-family:DejaVu Sans Mono;-inkscape-font-specification:DejaVu Sans Mono"
         id="path4566" />
      <path
         d="m 488.79993,770.45581 0,-4.52344 1.4375,0 0,12.15625 -1.4375,0 0,-1.10156 c -0.23959,0.43229 -0.55991,0.76302 -0.96094,0.99219 -0.39584,0.22396 -0.85417,0.33594 -1.375,0.33594 -1.0573,0 -1.89063,-0.40886 -2.5,-1.22657 -0.60417,-0.82291 -0.90625,-1.95572 -0.90625,-3.39843 0,-1.42187 0.30469,-2.53646 0.91406,-3.34375 0.60937,-0.8125 1.4401,-1.21875 2.49219,-1.21875 0.52604,0 0.98958,0.11459 1.39062,0.34375 0.40104,0.22396 0.71614,0.55209 0.94532,0.98437 m -4.22657,3.26563 c 0,1.11458 0.17708,1.95573 0.53125,2.52343 0.35417,0.56771 0.8776,0.85157 1.57032,0.85157 0.6927,0 1.21874,-0.28646 1.57812,-0.85938 0.36458,-0.57291 0.54687,-1.41145 0.54688,-2.51562 -1e-5,-1.10937 -0.1823,-1.94791 -0.54688,-2.51563 -0.35938,-0.57291 -0.88542,-0.85937 -1.57812,-0.85937 -0.69272,0 -1.21615,0.28386 -1.57032,0.85156 -0.35417,0.56771 -0.53125,1.40886 -0.53125,2.52344"
         style="line-height:125%;fill:#000000;font-family:DejaVu Sans Mono;-inkscape-font-specification:DejaVu Sans Mono"
         id="path4568" />
      <path
         d="m 498.42493,775.27612 c -0.23959,0.60938 -0.54428,1.41146 -0.91407,2.40625 -0.51563,1.375 -0.86198,2.21354 -1.03906,2.51563 -0.23959,0.40625 -0.53906,0.71093 -0.89844,0.91406 -0.35937,0.20312 -0.77864,0.30468 -1.25781,0.30469 l -1.15625,0 0,-1.20313 0.85156,0 c 0.42188,0 0.75261,-0.12239 0.99219,-0.36718 0.23958,-0.2448 0.54427,-0.87761 0.91406,-1.89844 l -3.38281,-8.60938 1.52344,0 2.59375,6.84375 2.55469,-6.84375 1.52343,0 -2.30468,5.9375"
         style="line-height:125%;fill:#000000;font-family:DejaVu Sans Mono;-inkscape-font-specification:DejaVu Sans Mono"
         id="path4570" />
      <path
         d="m 505.16711,775.70581 1.96875,0 0,2.38281 -1.96875,0 0,-2.38281"
         style="line-height:125%;fill:#000000;font-family:DejaVu Sans Mono;-inkscape-font-specification:DejaVu Sans Mono"
         id="path4572" />
      <path
         d="m 518.71399,766.68237 0,1.45313 c -0.32813,-0.1927 -0.67709,-0.33853 -1.04688,-0.4375 -0.36979,-0.10416 -0.75521,-0.15624 -1.15625,-0.15625 -1,10e-6 -1.75781,0.37761 -2.27343,1.13281 -0.51563,0.75001 -0.77344,1.85678 -0.77344,3.32031 0.25,-0.52082 0.59635,-0.91926 1.03906,-1.19531 0.44271,-0.28124 0.95052,-0.42187 1.52344,-0.42187 1.12499,0 1.99478,0.34636 2.60937,1.03906 0.61979,0.6875 0.92968,1.66407 0.92969,2.92969 -10e-6,1.26041 -0.31771,2.23698 -0.95312,2.92968 -0.63543,0.69271 -1.52866,1.03907 -2.67969,1.03907 -1.35417,0 -2.34636,-0.48438 -2.97656,-1.45313 -0.63021,-0.97396 -0.94532,-2.5052 -0.94532,-4.59375 0,-1.96874 0.37761,-3.46874 1.13282,-4.5 0.76041,-1.03645 1.85937,-1.55468 3.29687,-1.55469 0.38541,10e-6 0.77083,0.0417 1.15625,0.125 0.38541,0.0781 0.75781,0.19272 1.11719,0.34375 m -2.8125,4.92969 c -0.67188,10e-6 -1.20053,0.24219 -1.58594,0.72656 -0.38542,0.48438 -0.57813,1.15365 -0.57812,2.00782 -10e-6,0.85417 0.1927,1.52344 0.57812,2.00781 0.38541,0.48437 0.91406,0.72656 1.58594,0.72656 0.69791,0 1.22395,-0.22916 1.57812,-0.6875 0.35416,-0.46354 0.53125,-1.14583 0.53125,-2.04687 0,-0.90625 -0.17709,-1.58854 -0.53125,-2.04688 -0.35417,-0.45833 -0.88021,-0.68749 -1.57812,-0.6875"
         style="line-height:125%;fill:#000000;font-family:DejaVu Sans Mono;-inkscape-font-specification:DejaVu Sans Mono"
         id="path4574" />
    </g>
    <text
       xml:space="preserve"
       style="font-size:14px;font-style:normal;font-variant:normal;font-weight:normal;font-stretch:normal;text-align:start;text-anchor:start;fill:#620018;fill-opacity:1;stroke:none;display:inline;font-family:DejaVu Sans;-inkscape-font-specification:DejaVu Sans"
       x="395.10684"
       y="745.62085"
       id="text3115"><tspan
         style="font-size:16px;fill:#620018"
         id="tspan3117"
         sodipodi:role="line"
         x="395.10684"
         y="745.62085">Repo bare1.git</tspan></text>
    <path
       style="fill:none;stroke:#000000;stroke-width:1.77165353;stroke-linecap:butt;stroke-linejoin:miter;stroke-opacity:1"
       d="m 106.91336,825.59049 0.88579,28.34647 -14.173204,7.08661"
       id="path4100"
       inkscape:connector-curvature="0"
       sodipodi:nodetypes="ccc" />
    <path
       sodipodi:type="arc"
       style="fill:#0000ff;fill-opacity:1;stroke:#00100d;stroke-width:3.03712034;stroke-miterlimit:4;stroke-opacity:1;stroke-dasharray:none"
       id="path4102"
       sodipodi:cx="325.98425"
       sodipodi:cy="67.322845"
       sodipodi:rx="10.629921"
       sodipodi:ry="10.629921"
       d="m 336.61417,67.322845 c 0,5.870744 -4.75917,10.629921 -10.62992,10.629921 -5.87074,0 -10.62992,-4.759177 -10.62992,-10.629921 0,-5.870743 4.75918,-10.629921 10.62992,-10.629921 5.87075,0 10.62992,4.759178 10.62992,10.629921 z"
       transform="matrix(0.5833333,0,0,0.58333332,-83.244083,786.31883)" />
    <path
       sodipodi:nodetypes="cc"
       inkscape:connector-curvature="0"
       id="path4106"
       d="m 92.740159,818.50387 0.885787,49.60631"
       style="fill:none;stroke:#000000;stroke-width:1.77165353;stroke-linecap:butt;stroke-linejoin:miter;stroke-opacity:1" />
    <g
       style="stroke:#0000ff"
       id="g4108"
       transform="translate(64.280337,42.519581)">
      <path
         style="fill:none;stroke:#0000ff;stroke-width:2.65748024;stroke-linecap:butt;stroke-linejoin:miter;stroke-opacity:1"
         d="m 56.692913,775.98429 0,7.08662 7.08662,0"
         id="path4110"
         inkscape:connector-curvature="0"
         sodipodi:nodetypes="ccc" />
      <path
         style="fill:none;stroke:#0000ff;stroke-width:2.65748024;stroke-linecap:butt;stroke-linejoin:miter;stroke-opacity:1"
         d="m 56.692913,775.98429 0,14.17323 7.08662,0 0,14.17323 7.08661,0"
         id="path4112"
         inkscape:connector-curvature="0"
         sodipodi:nodetypes="ccccc" />
      <path
         style="fill:none;stroke:#0000ff;stroke-width:2.65748024;stroke-linecap:butt;stroke-linejoin:miter;stroke-opacity:1"
         d="m 63.779523,797.24414 7.08662,0"
         id="path4114"
         inkscape:connector-curvature="0"
         sodipodi:nodetypes="cc" />
      <path
         sodipodi:nodetypes="ccccc"
         style="fill:none;stroke:#0000ff;stroke-width:2.65748024;stroke-linecap:butt;stroke-linejoin:miter;stroke-opacity:1"
         d="m 56.692913,790.15752 0,21.25985 7.08662,0 0,7.08661 7.08661,0"
         id="path4116"
         inkscape:connector-curvature="0" />
    </g>
    <rect
       style="fill:#0197fd;fill-opacity:1;stroke:#191100;stroke-width:1.77165353;stroke-miterlimit:4;stroke-opacity:1;stroke-dasharray:none;display:inline"
       id="rect4128"
       width="69.980286"
       height="20.374044"
       x="155.90555"
       y="819.38983"
       ry="0" />
    <g
       style="font-size:12px;font-style:normal;font-variant:normal;font-weight:normal;font-stretch:normal;text-align:center;line-height:125%;letter-spacing:0px;word-spacing:0px;writing-mode:lr-tb;text-anchor:middle;fill:#000000;fill-opacity:1;fill-rule:nonzero;stroke:none;display:inline;font-family:DejaVu Sans Mono;-inkscape-font-specification:DejaVu Sans Mono"
       id="text4130">
      <path
         d="m 164.2713,826.33624 0,1.40625 c -0.41146,-0.23957 -0.82553,-0.41926 -1.24219,-0.53906 -0.41667,-0.11978 -0.84115,-0.17968 -1.27343,-0.17969 -0.65105,10e-6 -1.13803,0.10678 -1.46094,0.32032 -0.31771,0.20834 -0.47657,0.52865 -0.47656,0.96093 -1e-5,0.39063 0.11978,0.6823 0.35937,0.875 0.23958,0.19272 0.83593,0.38022 1.78906,0.5625 l 0.57813,0.10938 c 0.71353,0.13542 1.2526,0.40625 1.61719,0.8125 0.36978,0.40625 0.55468,0.9349 0.55468,1.58594 0,0.86458 -0.3073,1.54166 -0.92187,2.03125 -0.61459,0.48437 -1.46876,0.72656 -2.5625,0.72656 -0.4323,0 -0.88542,-0.0469 -1.35938,-0.14063 -0.47396,-0.0885 -0.98698,-0.22396 -1.53906,-0.40625 l 0,-1.48437 c 0.53646,0.27604 1.04948,0.48437 1.53906,0.625 0.48958,0.13542 0.95312,0.20312 1.39063,0.20312 0.63541,0 1.1276,-0.1276 1.47656,-0.38281 0.34895,-0.26041 0.52343,-0.62239 0.52344,-1.08594 -1e-5,-0.66666 -0.63803,-1.1276 -1.91406,-1.38281 l -0.0625,-0.0156 -0.53907,-0.10938 c -0.82812,-0.16145 -1.43229,-0.43229 -1.8125,-0.8125 -0.38021,-0.38541 -0.57031,-0.90885 -0.57031,-1.57031 0,-0.83854 0.28385,-1.48437 0.85156,-1.9375 0.56771,-0.45833 1.3776,-0.68749 2.42969,-0.6875 0.46875,1e-5 0.91927,0.0443 1.35156,0.13281 0.43229,0.0833 0.85677,0.21095 1.27344,0.38281"
         style="font-size:16px;line-height:125%;fill:#000000;font-family:DejaVu Sans Mono;-inkscape-font-specification:DejaVu Sans Mono"
         id="path4605" />
      <path
         d="m 171.09161,823.54718 0,2.48438 3.26563,0 0,1.11718 -3.26563,0 0,4.75 c 0,0.64584 0.12239,1.09636 0.36719,1.35157 0.24479,0.2552 0.67187,0.38281 1.28125,0.38281 l 1.61719,0 0,1.14844 -1.75781,0 c -1.07813,0 -1.83855,-0.21615 -2.28125,-0.64844 -0.44272,-0.43229 -0.66407,-1.17708 -0.66407,-2.23438 l 0,-4.75 -2.33593,0 0,-1.11718 2.33593,0 0,-2.48438 1.4375,0"
         style="font-size:16px;line-height:125%;fill:#000000;font-family:DejaVu Sans Mono;-inkscape-font-specification:DejaVu Sans Mono"
         id="path4607" />
      <path
         d="m 177.44318,831.46906 0,-5.42188 1.4375,0 0,5.42188 c -1e-5,0.78646 0.13801,1.36458 0.41406,1.73437 0.28125,0.36979 0.71354,0.55469 1.29687,0.55469 0.67708,0 1.19531,-0.23698 1.55469,-0.71094 0.35937,-0.47916 0.53906,-1.16406 0.53906,-2.05469 l 0,-4.94531 1.44532,0 0,8.73438 -1.44532,0 0,-1.3125 c -0.25521,0.5052 -0.60417,0.88802 -1.04687,1.14843 -0.43751,0.26042 -0.95053,0.39063 -1.53906,0.39063 -0.89584,0 -1.56251,-0.29167 -2,-0.875 -0.43751,-0.58854 -0.65626,-1.47656 -0.65625,-2.66406"
         style="font-size:16px;line-height:125%;fill:#000000;font-family:DejaVu Sans Mono;-inkscape-font-specification:DejaVu Sans Mono"
         id="path4609" />
      <path
         d="m 192.24786,827.14874 0,-4.52343 1.4375,0 0,12.15625 -1.4375,0 0,-1.10157 c -0.23959,0.4323 -0.5599,0.76302 -0.96093,0.99219 -0.39584,0.22396 -0.85418,0.33594 -1.375,0.33594 -1.0573,0 -1.89063,-0.40886 -2.5,-1.22656 -0.60417,-0.82292 -0.90625,-1.95573 -0.90625,-3.39844 0,-1.42187 0.30468,-2.53645 0.91406,-3.34375 0.60937,-0.81249 1.4401,-1.21874 2.49219,-1.21875 0.52603,1e-5 0.98957,0.11459 1.39062,0.34375 0.40104,0.22396 0.71614,0.55209 0.94531,0.98437 m -4.22656,3.26563 c 0,1.11458 0.17708,1.95573 0.53125,2.52344 0.35416,0.5677 0.8776,0.85156 1.57031,0.85156 0.69271,0 1.21875,-0.28646 1.57813,-0.85938 0.36458,-0.57291 0.54687,-1.41145 0.54687,-2.51562 0,-1.10937 -0.18229,-1.94791 -0.54687,-2.51563 -0.35938,-0.57291 -0.88542,-0.85936 -1.57813,-0.85937 -0.69271,1e-5 -1.21615,0.28386 -1.57031,0.85156 -0.35417,0.56771 -0.53125,1.40886 -0.53125,2.52344"
         style="font-size:16px;line-height:125%;fill:#000000;font-family:DejaVu Sans Mono;-inkscape-font-specification:DejaVu Sans Mono"
         id="path4611" />
      <path
         d="m 201.87286,831.96906 c -0.23959,0.60937 -0.54427,1.41145 -0.91406,2.40625 -0.51563,1.37499 -0.86198,2.21354 -1.03906,2.51562 -0.23959,0.40625 -0.53907,0.71093 -0.89844,0.91406 -0.35938,0.20312 -0.77865,0.30469 -1.25781,0.30469 l -1.15625,0 0,-1.20312 0.85156,0 c 0.42187,-10e-6 0.7526,-0.1224 0.99219,-0.36719 0.23958,-0.2448 0.54427,-0.87761 0.91406,-1.89844 l -3.38281,-8.60937 1.52344,0 2.59375,6.84375 2.55468,-6.84375 1.52344,0 -2.30469,5.9375"
         style="font-size:16px;line-height:125%;fill:#000000;font-family:DejaVu Sans Mono;-inkscape-font-specification:DejaVu Sans Mono"
         id="path4613" />
      <path
         d="m 208.61505,832.39874 1.96875,0 0,2.38282 -1.96875,0 0,-2.38282"
         style="font-size:16px;line-height:125%;fill:#000000;font-family:DejaVu Sans Mono;-inkscape-font-specification:DejaVu Sans Mono"
         id="path4615" />
      <path
         d="m 217.3338,833.45343 5.35938,0 0,1.32813 -7.08594,0 0,-1.32813 c 0.97395,-1.02604 1.82552,-1.93229 2.55469,-2.71875 0.72916,-0.78645 1.23176,-1.34114 1.50781,-1.66406 0.52083,-0.63541 0.87239,-1.14843 1.05469,-1.53906 0.18228,-0.39583 0.27343,-0.79948 0.27343,-1.21094 0,-0.65103 -0.19271,-1.16145 -0.57812,-1.53125 -0.38022,-0.36978 -0.90365,-0.55468 -1.57031,-0.55469 -0.47397,10e-6 -0.97136,0.086 -1.49219,0.25781 -0.52084,0.17189 -1.07292,0.4323 -1.65625,0.78125 l 0,-1.59375 c 0.53646,-0.25519 1.0625,-0.4479 1.57812,-0.57812 0.52083,-0.1302 1.03385,-0.1953 1.53907,-0.19531 1.14062,10e-6 2.05728,0.30469 2.75,0.91406 0.69791,0.60417 1.04686,1.39844 1.04687,2.38281 -1e-5,0.50001 -0.11719,1.00001 -0.35156,1.5 -0.22918,0.50001 -0.60418,1.05209 -1.125,1.65625 -0.29167,0.33855 -0.71615,0.8073 -1.27344,1.40625 -0.55209,0.59896 -1.39584,1.49479 -2.53125,2.6875"
         style="font-size:16px;line-height:125%;fill:#000000;font-family:DejaVu Sans Mono;-inkscape-font-specification:DejaVu Sans Mono"
         id="path4617" />
    </g>
    <rect
       style="fill:#0197fd;fill-opacity:1;stroke:#191100;stroke-width:1.77165353;stroke-miterlimit:4;stroke-opacity:1;stroke-dasharray:none;display:inline"
       id="rect4134"
       width="111.78741"
       height="20.374037"
       x="411.73621"
       y="791.04333"
       ry="0" />
    <g
       style="font-size:16px;font-style:normal;font-variant:normal;font-weight:normal;font-stretch:normal;text-align:start;line-height:125%;letter-spacing:0px;word-spacing:0px;writing-mode:lr-tb;text-anchor:start;fill:#000000;fill-opacity:1;fill-rule:nonzero;stroke:none;display:inline;font-family:DejaVu Sans Mono;-inkscape-font-specification:DejaVu Sans Mono"
       id="text4136">
      <path
         d="m 421.85461,797.98975 0,1.40625 c -0.41146,-0.23958 -0.82552,-0.41927 -1.24218,-0.53907 -0.41668,-0.11978 -0.84115,-0.17968 -1.27344,-0.17968 -0.65105,0 -1.13803,0.10677 -1.46094,0.32031 -0.31771,0.20834 -0.47656,0.52865 -0.47656,0.96094 0,0.39063 0.11979,0.68229 0.35937,0.875 0.23958,0.19271 0.83594,0.38021 1.78907,0.5625 l 0.57812,0.10937 c 0.71354,0.13542 1.2526,0.40626 1.61719,0.8125 0.36978,0.40625 0.55468,0.9349 0.55469,1.58594 -1e-5,0.86458 -0.3073,1.54167 -0.92188,2.03125 -0.61459,0.48437 -1.46875,0.72656 -2.5625,0.72656 -0.43229,0 -0.88542,-0.0469 -1.35937,-0.14062 -0.47396,-0.0885 -0.98698,-0.22396 -1.53907,-0.40625 l 0,-1.48438 c 0.53646,0.27604 1.04948,0.48438 1.53907,0.625 0.48958,0.13542 0.95312,0.20313 1.39062,0.20313 0.63541,0 1.1276,-0.12761 1.47656,-0.38282 0.34896,-0.26041 0.52344,-0.62239 0.52344,-1.08593 0,-0.66667 -0.63803,-1.1276 -1.91406,-1.38282 l -0.0625,-0.0156 -0.53906,-0.10938 c -0.82813,-0.16145 -1.4323,-0.43228 -1.8125,-0.8125 -0.38021,-0.38541 -0.57032,-0.90884 -0.57032,-1.57031 0,-0.83853 0.28386,-1.48437 0.85157,-1.9375 0.5677,-0.45832 1.3776,-0.68749 2.42968,-0.6875 0.46875,10e-6 0.91927,0.0443 1.35157,0.13281 0.43228,0.0833 0.85676,0.21095 1.27343,0.38282"
         style="line-height:125%;fill:#000000;font-family:DejaVu Sans Mono;-inkscape-font-specification:DejaVu Sans Mono"
         id="path4577" />
      <path
         d="m 428.67493,795.20068 0,2.48438 3.26562,0 0,1.11719 -3.26562,0 0,4.75 c -1e-5,0.64583 0.12239,1.09635 0.36718,1.35156 0.24479,0.25521 0.67187,0.38281 1.28125,0.38281 l 1.61719,0 0,1.14844 -1.75781,0 c -1.07813,0 -1.83855,-0.21615 -2.28125,-0.64844 -0.44271,-0.43229 -0.66407,-1.17708 -0.66406,-2.23437 l 0,-4.75 -2.33594,0 0,-1.11719 2.33594,0 0,-2.48438 1.4375,0"
         style="line-height:125%;fill:#000000;font-family:DejaVu Sans Mono;-inkscape-font-specification:DejaVu Sans Mono"
         id="path4579" />
      <path
         d="m 435.02649,803.12256 0,-5.42188 1.4375,0 0,5.42188 c 0,0.78646 0.13802,1.36458 0.41406,1.73437 0.28125,0.3698 0.71354,0.55469 1.29688,0.55469 0.67707,0 1.1953,-0.23698 1.55468,-0.71094 0.35937,-0.47916 0.53906,-1.16406 0.53907,-2.05468 l 0,-4.94532 1.44531,0 0,8.73438 -1.44531,0 0,-1.3125 c -0.25522,0.50521 -0.60418,0.88802 -1.04688,1.14844 -0.4375,0.26041 -0.95052,0.39062 -1.53906,0.39062 -0.89584,0 -1.5625,-0.29167 -2,-0.875 -0.4375,-0.58854 -0.65625,-1.47656 -0.65625,-2.66406"
         style="line-height:125%;fill:#000000;font-family:DejaVu Sans Mono;-inkscape-font-specification:DejaVu Sans Mono"
         id="path4581" />
      <path
         d="m 449.83118,798.80225 0,-4.52344 1.4375,0 0,12.15625 -1.4375,0 0,-1.10156 c -0.23959,0.43229 -0.55991,0.76302 -0.96094,0.99218 -0.39584,0.22396 -0.85417,0.33594 -1.375,0.33594 -1.0573,0 -1.89063,-0.40885 -2.5,-1.22656 -0.60417,-0.82292 -0.90625,-1.95573 -0.90625,-3.39844 0,-1.42187 0.30469,-2.53645 0.91406,-3.34375 0.60937,-0.81249 1.4401,-1.21874 2.49219,-1.21875 0.52604,10e-6 0.98958,0.11459 1.39062,0.34375 0.40104,0.22397 0.71614,0.55209 0.94532,0.98438 m -4.22657,3.26562 c 0,1.11459 0.17708,1.95573 0.53125,2.52344 0.35417,0.56771 0.8776,0.85156 1.57032,0.85156 0.6927,0 1.21874,-0.28646 1.57812,-0.85937 0.36458,-0.57292 0.54687,-1.41146 0.54688,-2.51563 -1e-5,-1.10937 -0.1823,-1.94791 -0.54688,-2.51562 -0.35938,-0.57291 -0.88542,-0.85937 -1.57812,-0.85938 -0.69272,10e-6 -1.21615,0.28386 -1.57032,0.85156 -0.35417,0.56772 -0.53125,1.40886 -0.53125,2.52344"
         style="line-height:125%;fill:#000000;font-family:DejaVu Sans Mono;-inkscape-font-specification:DejaVu Sans Mono"
         id="path4583" />
      <path
         d="m 459.45618,803.62256 c -0.23959,0.60938 -0.54428,1.41146 -0.91407,2.40625 -0.51563,1.375 -0.86198,2.21354 -1.03906,2.51562 -0.23959,0.40625 -0.53906,0.71094 -0.89844,0.91407 -0.35937,0.20312 -0.77864,0.30468 -1.25781,0.30468 l -1.15625,0 0,-1.20312 0.85156,0 c 0.42188,0 0.75261,-0.1224 0.99219,-0.36719 0.23958,-0.24479 0.54427,-0.8776 0.91406,-1.89844 l -3.38281,-8.60937 1.52344,0 2.59375,6.84375 2.55469,-6.84375 1.52343,0 -2.30468,5.9375"
         style="line-height:125%;fill:#000000;font-family:DejaVu Sans Mono;-inkscape-font-specification:DejaVu Sans Mono"
         id="path4585" />
      <path
         d="m 466.19836,804.05225 1.96875,0 0,2.38281 -1.96875,0 0,-2.38281"
         style="line-height:125%;fill:#000000;font-family:DejaVu Sans Mono;-inkscape-font-specification:DejaVu Sans Mono"
         id="path4587" />
      <path
         d="m 473.08899,794.771 7.34375,0 0,0.67187 -4.17188,10.99219 -1.64843,0 4.0625,-10.33594 -5.58594,0 0,-1.32812"
         style="line-height:125%;fill:#000000;font-family:DejaVu Sans Mono;-inkscape-font-specification:DejaVu Sans Mono"
         id="path4589" />
    </g>
    <rect
       style="fill:#f2b1c1;fill-opacity:1;stroke:#c64163;stroke-width:1.77165353;stroke-miterlimit:4;stroke-opacity:1;stroke-dasharray:none"
       id="rect3138"
       width="175.56694"
       height="76.181091"
       x="383.38974"
       y="840.28137"
       rx="10.629921"
       ry="10.62992" />
    <text
       id="text3146"
       y="858.63843"
       x="395.28009"
       style="font-size:14px;font-style:normal;font-variant:normal;font-weight:normal;font-stretch:normal;text-align:start;text-anchor:start;fill:#620018;fill-opacity:1;stroke:none;display:inline;font-family:DejaVu Sans;-inkscape-font-specification:DejaVu Sans"
       xml:space="preserve"><tspan
         y="858.63843"
         x="395.28009"
         sodipodi:role="line"
         id="tspan3148"
         style="font-size:16px;fill:#620018">Repo bare2.git</tspan></text>
    <rect
       ry="0"
       y="876.0827"
       x="411.73621"
       height="20.374037"
       width="111.78741"
       id="rect3150"
       style="fill:#0197fd;fill-opacity:1;stroke:#191100;stroke-width:1.77165353;stroke-miterlimit:4;stroke-opacity:1;stroke-dasharray:none;display:inline" />
    <g
       style="font-size:16px;font-style:normal;font-variant:normal;font-weight:normal;font-stretch:normal;text-align:start;line-height:125%;letter-spacing:0px;word-spacing:0px;writing-mode:lr-tb;text-anchor:start;fill:#000000;fill-opacity:1;fill-rule:nonzero;stroke:none;display:inline;font-family:DejaVu Sans Mono;-inkscape-font-specification:DejaVu Sans Mono"
       id="text3152">
      <path
         d="m 419.5343,883.61505 c 0.17708,-0.37499 0.40104,-0.65103 0.67188,-0.82812 0.27603,-0.18229 0.60676,-0.27343 0.99218,-0.27344 0.70312,10e-6 1.19791,0.27344 1.48438,0.82031 0.29166,0.54168 0.43749,1.56511 0.4375,3.07031 l 0,5.07032 -1.3125,0 0,-5.00782 c -1e-5,-1.23436 -0.0703,-1.99999 -0.21094,-2.29687 -0.13542,-0.30208 -0.38542,-0.45312 -0.75,-0.45313 -0.41667,1e-5 -0.70313,0.16147 -0.85937,0.48438 -0.15105,0.31771 -0.22657,1.07292 -0.22657,2.26562 l 0,5.00782 -1.3125,0 0,-5.00782 c 0,-1.24999 -0.0755,-2.02082 -0.22656,-2.3125 -0.14584,-0.29166 -0.41146,-0.43749 -0.79687,-0.4375 -0.38021,1e-5 -0.64584,0.16147 -0.79688,0.48438 -0.14583,0.31771 -0.21875,1.07292 -0.21875,2.26562 l 0,5.00782 -1.30469,0 0,-8.75 1.30469,0 0,0.75 c 0.17187,-0.3125 0.38542,-0.54947 0.64063,-0.71094 0.26041,-0.16666 0.55468,-0.24999 0.88281,-0.25 0.39583,10e-6 0.72395,0.0911 0.98437,0.27344 0.26562,0.1823 0.47135,0.45834 0.61719,0.82812"
         style="line-height:125%;fill:#000000;font-family:DejaVu Sans Mono;-inkscape-font-specification:DejaVu Sans Mono"
         id="path4592" />
      <path
         d="m 429.36243,887.07599 -0.47657,0 c -0.83854,0 -1.47135,0.14844 -1.89843,0.44531 -0.42188,0.29167 -0.63282,0.72917 -0.63282,1.3125 0,0.52605 0.15886,0.9349 0.47657,1.22656 0.3177,0.29167 0.75781,0.4375 1.32031,0.4375 0.79166,0 1.41406,-0.27343 1.86719,-0.82031 0.45312,-0.55208 0.68228,-1.3125 0.6875,-2.28125 l 0,-0.32031 -1.34375,0 m 2.78906,-0.59375 0,4.99219 -1.44531,0 0,-1.29688 c -0.3073,0.52084 -0.69532,0.90625 -1.16407,1.15625 -0.46354,0.24479 -1.02865,0.36719 -1.69531,0.36719 -0.89063,0 -1.60156,-0.25 -2.13281,-0.75 -0.53125,-0.50521 -0.79688,-1.17969 -0.79688,-2.02344 0,-0.97395 0.32552,-1.71354 0.97657,-2.21875 0.65624,-0.5052 1.61718,-0.75781 2.88281,-0.75781 l 1.92969,0 0,-0.22656 c -0.005,-0.69791 -0.1823,-1.20312 -0.53125,-1.51563 -0.34897,-0.3177 -0.90626,-0.47655 -1.67188,-0.47656 -0.48959,10e-6 -0.98438,0.0703 -1.48437,0.21094 -0.50001,0.14063 -0.98698,0.34636 -1.46094,0.61718 l 0,-1.4375 c 0.53125,-0.20311 1.03906,-0.35415 1.52344,-0.45312 0.48958,-0.10416 0.96353,-0.15624 1.42187,-0.15625 0.72395,10e-6 1.34114,0.10678 1.85156,0.32031 0.51562,0.21355 0.93229,0.53386 1.25,0.96094 0.19791,0.26042 0.33854,0.58334 0.42188,0.96875 0.0833,0.38021 0.12499,0.95313 0.125,1.71875"
         style="line-height:125%;fill:#000000;font-family:DejaVu Sans Mono;-inkscape-font-specification:DejaVu Sans Mono"
         id="path4594" />
      <path
         d="m 441.10461,883.02911 0,1.40625 c -0.41146,-0.23957 -0.82552,-0.41926 -1.24218,-0.53906 -0.41668,-0.11978 -0.84115,-0.17968 -1.27344,-0.17969 -0.65105,1e-5 -1.13803,0.10678 -1.46094,0.32032 -0.31771,0.20834 -0.47656,0.52865 -0.47656,0.96093 0,0.39063 0.11979,0.6823 0.35937,0.875 0.23958,0.19272 0.83594,0.38022 1.78907,0.5625 l 0.57812,0.10938 c 0.71354,0.13542 1.2526,0.40625 1.61719,0.8125 0.36978,0.40625 0.55468,0.9349 0.55469,1.58594 -1e-5,0.86458 -0.3073,1.54166 -0.92188,2.03125 -0.61459,0.48437 -1.46875,0.72656 -2.5625,0.72656 -0.43229,0 -0.88542,-0.0469 -1.35937,-0.14063 -0.47396,-0.0885 -0.98698,-0.22395 -1.53907,-0.40625 l 0,-1.48437 c 0.53646,0.27604 1.04948,0.48438 1.53907,0.625 0.48958,0.13542 0.95312,0.20312 1.39062,0.20312 0.63541,0 1.1276,-0.1276 1.47656,-0.38281 0.34896,-0.26041 0.52344,-0.62239 0.52344,-1.08594 0,-0.66666 -0.63803,-1.1276 -1.91406,-1.38281 l -0.0625,-0.0156 -0.53906,-0.10938 c -0.82813,-0.16145 -1.4323,-0.43229 -1.8125,-0.8125 -0.38021,-0.38541 -0.57032,-0.90885 -0.57032,-1.57031 0,-0.83854 0.28386,-1.48437 0.85157,-1.9375 0.5677,-0.45833 1.3776,-0.68749 2.42968,-0.6875 0.46875,10e-6 0.91927,0.0443 1.35157,0.13281 0.43228,0.0833 0.85676,0.21095 1.27343,0.38281"
         style="line-height:125%;fill:#000000;font-family:DejaVu Sans Mono;-inkscape-font-specification:DejaVu Sans Mono"
         id="path4596" />
      <path
         d="m 447.92493,880.24005 0,2.48438 3.26562,0 0,1.11718 -3.26562,0 0,4.75 c -1e-5,0.64584 0.12239,1.09636 0.36718,1.35157 0.24479,0.25521 0.67187,0.38281 1.28125,0.38281 l 1.61719,0 0,1.14844 -1.75781,0 c -1.07813,0 -1.83855,-0.21615 -2.28125,-0.64844 -0.44271,-0.43229 -0.66407,-1.17708 -0.66406,-2.23438 l 0,-4.75 -2.33594,0 0,-1.11718 2.33594,0 0,-2.48438 1.4375,0"
         style="line-height:125%;fill:#000000;font-family:DejaVu Sans Mono;-inkscape-font-specification:DejaVu Sans Mono"
         id="path4598" />
      <path
         d="m 461.44055,886.74005 0,0.70313 -6.22656,0 0,0.0469 c 0,0.95313 0.24739,1.69011 0.74219,2.21094 0.49999,0.52083 1.20312,0.78125 2.10937,0.78125 0.45833,0 0.9375,-0.0729 1.4375,-0.21875 0.49999,-0.14583 1.03385,-0.36719 1.60156,-0.66406 l 0,1.42968 c -0.54688,0.22396 -1.07552,0.39063 -1.58593,0.5 -0.50522,0.11459 -0.9948,0.17188 -1.46875,0.17188 -1.35938,0 -2.42188,-0.40625 -3.1875,-1.21875 -0.76563,-0.81771 -1.14844,-1.94271 -1.14844,-3.375 0,-1.39583 0.375,-2.51041 1.125,-3.34375 0.75,-0.83333 1.75,-1.24999 3,-1.25 1.11458,10e-6 1.99218,0.37761 2.63281,1.13281 0.64583,0.75522 0.96874,1.78647 0.96875,3.09375 m -1.4375,-0.42187 c -0.0208,-0.84375 -0.22136,-1.48437 -0.60156,-1.92188 -0.37501,-0.4427 -0.91667,-0.66405 -1.625,-0.66406 -0.69271,10e-6 -1.26303,0.22917 -1.71094,0.6875 -0.44792,0.45834 -0.71354,1.09375 -0.79687,1.90625 l 4.73437,-0.008"
         style="line-height:125%;fill:#000000;font-family:DejaVu Sans Mono;-inkscape-font-specification:DejaVu Sans Mono"
         id="path4600" />
      <path
         d="m 471.40149,884.52911 c -0.3073,-0.23957 -0.6198,-0.41405 -0.9375,-0.52343 -0.31772,-0.10937 -0.66667,-0.16406 -1.04688,-0.16407 -0.89584,1e-5 -1.58073,0.28126 -2.05468,0.84375 -0.47397,0.56251 -0.71095,1.37501 -0.71094,2.4375 l 0,4.35157 -1.44531,0 0,-8.75 1.44531,0 0,1.71093 c 0.23958,-0.61978 0.60677,-1.09374 1.10156,-1.42187 0.5,-0.33333 1.09114,-0.49999 1.77344,-0.5 0.35416,10e-6 0.68489,0.0443 0.99219,0.13281 0.30728,0.0886 0.60155,0.22657 0.88281,0.41406 l 0,1.46875"
         style="line-height:125%;fill:#000000;font-family:DejaVu Sans Mono;-inkscape-font-specification:DejaVu Sans Mono"
         id="path4602" />
    </g>
    <path
       style="fill:#ff0000;stroke:#ff0000;stroke-width:1.77165353;stroke-linecap:butt;stroke-linejoin:miter;stroke-miterlimit:4;stroke-opacity:1;stroke-dasharray:none;marker-mid:none;marker-end:url(#Arrow2MendWTHH);display:inline"
       d="m 177.16535,775.98429 226.77166,0"
       id="path7557"
       inkscape:connector-curvature="0"
       sodipodi:nodetypes="cc" />
    <path
       sodipodi:nodetypes="cc"
       inkscape:connector-curvature="0"
       id="path3167"
       d="M 233.85827,832.6772 403.93701,804.33075"
       style="fill:#ff0000;stroke:#0000ff;stroke-width:1.77165353;stroke-linecap:butt;stroke-linejoin:miter;stroke-miterlimit:4;stroke-opacity:1;stroke-dasharray:none;marker-mid:none;marker-end:url(#Arrow2MendWTHB);display:inline" />
    <path
       sodipodi:nodetypes="cc"
       inkscape:connector-curvature="0"
       id="path3171"
       d="m 233.85827,832.6772 170.07874,49.6063"
       style="fill:#ff0000;stroke:#0000ff;stroke-width:1.77165353;stroke-linecap:butt;stroke-linejoin:miter;stroke-miterlimit:4;stroke-opacity:1;stroke-dasharray:none;marker-mid:none;marker-end:url(#Arrow2MendWTHf);display:inline" />
    <text
       xml:space="preserve"
       style="font-size:16px;font-style:normal;font-variant:normal;font-weight:normal;font-stretch:normal;text-align:start;line-height:125%;letter-spacing:0px;word-spacing:0px;writing-mode:lr;text-anchor:start;fill:#ffffff;fill-opacity:1;fill-rule:nonzero;stroke:none;display:inline;font-family:DejaVu Sans Mono;-inkscape-font-specification:DejaVu Sans Mono"
       x="301.74695"
       y="766.72443"
       id="text3530"
       sodipodi:linespacing="125%"><tspan
         id="tspan3532"
         style="font-size:16px;font-style:normal;font-variant:normal;font-weight:normal;font-stretch:normal;text-align:start;line-height:125%;writing-mode:lr;text-anchor:start;fill:#00100d;font-family:DejaVu Sans Mono;-inkscape-font-specification:DejaVu Sans Mono"
         sodipodi:role="line"
         x="301.74695"
         y="766.72443">a)</tspan></text>
    <text
       sodipodi:linespacing="125%"
       id="text3534"
       y="810.72443"
       x="315.74695"
       style="font-size:16px;font-style:normal;font-variant:normal;font-weight:normal;font-stretch:normal;text-align:start;line-height:125%;letter-spacing:0px;word-spacing:0px;writing-mode:lr;text-anchor:start;fill:#ffffff;fill-opacity:1;fill-rule:nonzero;stroke:none;display:inline;font-family:DejaVu Sans Mono;-inkscape-font-specification:DejaVu Sans Mono"
       xml:space="preserve"><tspan
         y="810.72443"
         x="315.74695"
         sodipodi:role="line"
         style="font-size:16px;font-style:normal;font-variant:normal;font-weight:normal;font-stretch:normal;text-align:start;line-height:125%;writing-mode:lr;text-anchor:start;fill:#00100d;font-family:DejaVu Sans Mono;-inkscape-font-specification:DejaVu Sans Mono"
         id="tspan3536">b)</tspan></text>
    <text
       xml:space="preserve"
       style="font-size:16px;font-style:normal;font-variant:normal;font-weight:normal;font-stretch:normal;text-align:start;line-height:125%;letter-spacing:0px;word-spacing:0px;writing-mode:lr;text-anchor:start;fill:#ffffff;fill-opacity:1;fill-rule:nonzero;stroke:none;display:inline;font-family:DejaVu Sans Mono;-inkscape-font-specification:DejaVu Sans Mono"
       x="327.74695"
       y="852.72443"
       id="text3538"
       sodipodi:linespacing="125%"><tspan
         id="tspan3540"
         style="font-size:16px;font-style:normal;font-variant:normal;font-weight:normal;font-stretch:normal;text-align:start;line-height:125%;writing-mode:lr;text-anchor:start;fill:#00100d;font-family:DejaVu Sans Mono;-inkscape-font-specification:DejaVu Sans Mono"
         sodipodi:role="line"
         x="327.74695"
         y="852.72443">c)</tspan></text>
    <rect
       style="fill:#fd3301;fill-opacity:1;stroke:#191100;stroke-width:1.77165353;stroke-miterlimit:4;stroke-opacity:1;stroke-dasharray:none;display:inline"
       id="rect3542"
       width="69.980286"
       height="20.374044"
       x="93.107368"
       y="647.20673"
       ry="0" />
    <text
       xml:space="preserve"
       style="font-size:12px;font-style:normal;font-variant:normal;font-weight:normal;font-stretch:normal;text-align:center;line-height:125%;letter-spacing:0px;word-spacing:0px;writing-mode:lr-tb;text-anchor:middle;fill:#ffffff;fill-opacity:1;fill-rule:nonzero;stroke:none;display:inline;font-family:DejaVu Sans Mono;-inkscape-font-specification:DejaVu Sans Mono"
       x="127.55905"
       y="662.59845"
       id="text3544"
       sodipodi:linespacing="125%"><tspan
         id="tspan3546"
         style="font-size:16px;font-style:normal;font-variant:normal;font-weight:normal;font-stretch:normal;text-align:center;line-height:125%;writing-mode:lr-tb;text-anchor:middle;fill:#00100d;font-family:DejaVu Sans Mono;-inkscape-font-specification:DejaVu Sans Mono"
         sodipodi:role="line"
         x="127.55905"
         y="662.59845">study.1</tspan></text>
    <rect
       style="fill:#fd3301;fill-opacity:1;stroke:#191100;stroke-width:1.77165353;stroke-miterlimit:4;stroke-opacity:1;stroke-dasharray:none;display:inline"
       id="rect3548"
       width="111.78741"
       height="20.374037"
       x="411.83176"
       y="647.20673"
       ry="0" />
    <text
       xml:space="preserve"
       style="font-size:16px;font-style:normal;font-variant:normal;font-weight:normal;font-stretch:normal;text-align:start;line-height:125%;letter-spacing:0px;word-spacing:0px;writing-mode:lr-tb;text-anchor:start;fill:#ffffff;fill-opacity:1;fill-rule:nonzero;stroke:none;display:inline;font-family:DejaVu Sans Mono;-inkscape-font-specification:DejaVu Sans Mono"
       x="414.81735"
       y="662.59845"
       id="text3550"
       sodipodi:linespacing="125%"><tspan
         id="tspan3552"
         style="font-size:16px;font-style:normal;font-variant:normal;font-weight:normal;font-stretch:normal;text-align:start;line-height:125%;writing-mode:lr-tb;text-anchor:start;fill:#00100d;font-family:DejaVu Sans Mono;-inkscape-font-specification:DejaVu Sans Mono"
         sodipodi:role="line"
         x="414.81735"
         y="662.59845">a/b/study.6</tspan></text>
    <rect
       ry="0"
       y="675.55316"
       x="411.83176"
       height="20.374037"
       width="111.78741"
       id="rect3554"
       style="fill:#0197fd;fill-opacity:1;stroke:#191100;stroke-width:1.77165353;stroke-miterlimit:4;stroke-opacity:1;stroke-dasharray:none;display:inline" />
    <text
       sodipodi:linespacing="125%"
       id="text3556"
       y="690.94489"
       x="414.3486"
       style="font-size:16px;font-style:normal;font-variant:normal;font-weight:normal;font-stretch:normal;text-align:start;line-height:125%;letter-spacing:0px;word-spacing:0px;writing-mode:lr-tb;text-anchor:start;fill:#000000;fill-opacity:1;fill-rule:nonzero;stroke:none;display:inline;font-family:DejaVu Sans Mono;-inkscape-font-specification:DejaVu Sans Mono"
       xml:space="preserve"><tspan
         y="690.94489"
         x="414.3486"
         sodipodi:role="line"
         style="font-size:16px;font-style:normal;font-variant:normal;font-weight:normal;font-stretch:normal;text-align:start;line-height:125%;writing-mode:lr-tb;text-anchor:start;fill:#000000;font-family:DejaVu Sans Mono;-inkscape-font-specification:DejaVu Sans Mono"
         id="tspan3558">study.7</tspan></text>
  </g>
</svg>
