<?xml version="1.0" encoding="UTF-8" standalone="no"?>
<!-- Generator: Adobe Illustrator 13.0.2, SVG Export Plug-In . SVG Version: 6.00 Build 14948)  -->

<svg
   xmlns:dc="http://purl.org/dc/elements/1.1/"
   xmlns:cc="http://creativecommons.org/ns#"
   xmlns:rdf="http://www.w3.org/1999/02/22-rdf-syntax-ns#"
   xmlns:svg="http://www.w3.org/2000/svg"
   xmlns="http://www.w3.org/2000/svg"
   xmlns:sodipodi="http://sodipodi.sourceforge.net/DTD/sodipodi-0.dtd"
   xmlns:inkscape="http://www.inkscape.org/namespaces/inkscape"
   id="Layer_1"
   xml:space="preserve"
   viewBox="0 0 515.06726 476.61575"
   version="1.1"
   y="0px"
   x="0px"
   inkscape:version="0.48.4 r9939"
   width="100%"
   height="100%"
   sodipodi:docname="ThanksForWatching.1.svg"><defs
     id="defs55" /><sodipodi:namedview
     pagecolor="#deeff5"
     bordercolor="#e2243c"
     borderopacity="1"
     objecttolerance="10"
     gridtolerance="10"
     guidetolerance="10"
     inkscape:pageopacity="1"
     inkscape:pageshadow="2"
     inkscape:window-width="1267"
     inkscape:window-height="876"
     id="namedview53"
     showgrid="true"
     fit-margin-top="0"
     fit-margin-left="0"
     fit-margin-right="0"
     fit-margin-bottom="0"
     inkscape:showpageshadow="false"
     units="mm"
     inkscape:document-units="mm"
     inkscape:zoom="1.3553759"
     inkscape:cx="264.35471"
     inkscape:cy="154.26132"
     inkscape:window-x="47"
     inkscape:window-y="53"
     inkscape:window-maximized="0"
     inkscape:current-layer="layer2"><inkscape:grid
       type="xygrid"
       id="grid3134"
       empspacing="5"
       visible="true"
       enabled="true"
       snapvisiblegridlinesonly="true"
       units="mm"
       spacingx="2mm"
       spacingy="2mm"
       originx="19.697759mm"
       originy="60.509716mm" /></sodipodi:namedview><metadata
     id="metadata51"><rdf:RDF><cc:Work><dc:format>image/svg+xml</dc:format><dc:type
           rdf:resource="http://purl.org/dc/dcmitype/StillImage" /><cc:license
           rdf:resource="http://creativecommons.org/licenses/publicdomain/" /><dc:publisher><cc:Agent
             rdf:about="http://openclipart.org/"><dc:title>Openclipart</dc:title></cc:Agent></dc:publisher><dc:title>man using binoculars 2</dc:title><dc:date>2009-06-13T22:19:38</dc:date><dc:description>The Art of Caricaturing by Mitchell Smith, 1941 Frederick J. Drake &amp; Co. - stated as Public Domain by Archive.org</dc:description><dc:source>https://openclipart.org/detail/26612/man-using-binoculars-2-by-johnny_automatic</dc:source><dc:creator><cc:Agent><dc:title>johnny_automatic</dc:title></cc:Agent></dc:creator><dc:subject><rdf:Bag><rdf:li>binoculars</rdf:li><rdf:li>caricature</rdf:li><rdf:li>cartoon</rdf:li><rdf:li>externalsource</rdf:li><rdf:li>man</rdf:li><rdf:li>person</rdf:li><rdf:li>sitting</rdf:li><rdf:li>watching</rdf:li></rdf:Bag></dc:subject></cc:Work><cc:License
         rdf:about="http://creativecommons.org/licenses/publicdomain/"><cc:permits
           rdf:resource="http://creativecommons.org/ns#Reproduction" /><cc:permits
           rdf:resource="http://creativecommons.org/ns#Distribution" /><cc:permits
           rdf:resource="http://creativecommons.org/ns#DerivativeWorks" /></cc:License></rdf:RDF></metadata><g
     inkscape:groupmode="layer"
     id="layer1"
     inkscape:label="Background"
     style="display:inline"
     transform="translate(78.18119,4.6628881)"
     sodipodi:insensitive="true"><rect
       style="fill:#ffffff;fill-opacity:1;stroke:none;display:inline"
       id="rect3127"
       width="515.06726"
       height="476.61575"
       x="-78.18119"
       y="-4.6628881"
       ry="0" /></g><g
     inkscape:groupmode="layer"
     id="layer2"
     inkscape:label="Foreground"
     style="display:inline"
     transform="translate(78.18119,4.6628881)"><path
       transform="translate(6.2283304e-6,0)"
       style="fill-rule:evenodd"
       d="m 163.54804,245.74071 c 0.267,1.199 -2.319,1.292 -4.058,1.476 -2.932,0.308 -6.304,0.18 -9.96,0.369 -5.747,0.296 -11.506,2.141 -16.968,2.581 -5.725,0.464 -11.163,0.035 -16.23,1.476 -0.756,-0.35 -1.022,-1.19 -1.476,-1.845 -2.13,0.91 -4.774,0.036 -7.009,0.369 -1.248,0.187 -1.83,1.024 -2.951,1.106 -1.497,0.111 -2.924,-0.308 -4.426,-0.367 -11.418997,-0.464 -24.238997,-1.263 -36.887997,-0.369 -0.884,-1.083 -1.213,-2.722 -1.106,-4.796 0.992,-0.729 1.817,-1.626 3.689,-1.476 0.084,-3.974 2.655,-5.459 5.533,-6.641 1.305,-13.942 19.813,-10.681 30.985997,-14.755 -0.007,-0.602 -2.085,0.592 -2.582,-0.369 -0.278997,-2.918 -2.174997,-4.219 -2.213997,-7.377 -3.126,-4.866 -4.433,-11.553 -7.008,-16.969 -1.636,-1.719 -2.32,-3.827 -3.689,-5.901 -2.862,-4.337 -5.583,-11.77 -8.116,-17.338 -1.9,-4.181 -4.102,-7.884 -6.271,-12.174 -0.213,-0.423 -0.087,-0.781 -0.368,-1.105 -1.414,-1.632 -3.771,-8.351 -3.32,-11.806 0.214,-1.658 2.967,-7.182 4.426,-8.483 1.914,-1.71 5.025,-2.038 8.116,-1.476 0.303,-2.256 0.294,-5.16 0,-8.116 2.22,0.682 2.208,-0.658 4.057,-1.105 23.218997,0.758 43.172997,4.78 63.078997,8.853 -4.12,-5.594 -11.519,-7.909 -18.813,-10.328 -1.403,-0.544 -0.072,1.647 -1.476,1.106 -3.973,-2.531 -7.915,-1.437 -13.648,-2.582 -1.555,-0.311 -3.122,-1.521 -4.795,-1.845 -0.805,-0.156 -1.835,0.201 -2.582,0 -4.606,-1.238 -9.061997,-3.396 -13.280997,-4.426 -1.75,-0.428 -3.671,-0.225 -5.164,-0.739 -1.085,-0.372 -1.846,-1.427 -2.951,-1.476 -2.581,-0.111 -4.667,2.184 -7.01,2.214 -12.117,7.52 -28.074,11.12 -46.824,10.75 -4.857,-0.098 -12.483,-0.467 -18.075,0.736 -1.984,0.428 -3.826,2.34 -5.902,1.108 -0.856,-1.157 -0.351,-2.716 -0.369,-4.427 -0.019,-1.688 -0.477,-3.835 -0.369,-5.165 0.069,-0.861 0.708,-3.223 1.106,-5.165 0.788,-3.835 1.77,-7.297 3.688,-10.328 4.272,-6.745 8.292,-15.849005 11.435,-24.346005 2.901,-7.84 5.168,-13.782 8.854,-19.55 3.176,-1.989 6.297,-4.033 10.697,-4.796 2.386,-5.018 7.86,-11.804 1.845,-16.969 -1.863,0.392 -3.67,-0.552 -5.902,-0.738 -3.019,-0.25 -6.281,0.515 -9.59,0.369 -3.034,-0.133 -5.814,-1.298 -8.854,-0.738 -1.416,0.261 -2.389,1.441 -3.688,1.845 -3.101,0.962 -5.972,0.119 -9.222,0.369 -6.149,-4.059 -9.209,-13.027 -7.37700003,-22.871 2.57700003,-5.726 8.91000003,-12.289 16.96900003,-11.436 3.698,0.392 5.487,2.753 8.853,4.059 0.771,1.319 1.544,2.636 4.058,2.212 1.045,-0.798 0.998,-2.689 1.476,-4.057 2.152,-1.177 2.821,-3.431 5.164,-4.795 5.586,-3.253 12.663,-0.58 16.969,2.582 0.309,0.429 0.486,0.989 0.368,1.845 4.514,0.282 8.856,0.737 12.912,1.476 -1.348,2.124 -6.666,-1.318 -7.747,1.476 2.056,1.581 3.517,-0.549 5.533,-0.37 2.056,0.185 3.673,2.673 6.64,1.845 3.223,2.846 8.526,5.432 8.484,10.329 -3.214,-0.959 -5.541,-8.427 -9.59,-8.484 -4.297,-0.06 -4.887,7.712 -9.96,7.747 0.941,-3.978 4.945,-4.892 6.271,-8.485 -2.316,-2.996 -3.379,0.243 -4.796,1.845 -2.185,2.472 -4.357,4.317 -7.377,5.902 0.042,-0.021 -1.107,2.262 -2.214,0.738 1.786,-3.629 6.204,-4.97 8.116,-8.853 -2.454,0.519 -3.556,3.009 -5.164,4.426 -1.716,1.51 -3.874,2.499 -5.165,4.426 -3.314,-0.031 -5.755,2.127 -7.747,4.427 -0.358,3.312 0.536,5.612 1.845,7.747 1.416,2.31 6.408,7.569 6.639,11.436 0.225,3.722 -2.936,6.223 -4.427,9.589 2.963,0.623 6.297,-1.568 10.33,-1.106 2.194,-2.107 2.362,-6.244 3.688,-9.222 2.98,-2.921 9.707,-2.097 11.066,-6.64 -4.417,0.36 -8.14,0.024 -9.591,-2.582 -1.736,-9.153 3.787,-13.141 9.222,-16.23 2.828,1.722 6.131,2.967 8.485,5.164 7.402,-0.149 13.034,1.474 20.288997,1.475 -0.268997,-1.127 0.636,-1.085 0.368,-2.212 -1.068997,-1.093 -3.616997,-1.18 -5.901997,-1.475 -1.462,-0.191 -3.892,0.816 -4.426,-1.108 0.834,-2.558 3.865,-0.36 5.902,0 1.834,0.326 4.011997,-0.348 5.164997,0.738 5.173,-10.648 18.447,-16.949 32.83,-14.754 14.158,2.158 27.701,11.538 25.454,27.666 -0.562,4.035 -4.335,10.348 -7.01,12.91 -1.778,1.705 -4.389,2.492 -5.901,4.426 1.379,7.316 -0.823,13.486 -5.533,15.862 1.848,1.458 3.448,1.845 4.795,4.057 0.866,1.421 0.522,3.317 1.845,4.426 2.118,1.78 7.102,1.829 9.959,2.953 1.296,0.509 2.834,1.938 4.427,2.951 3.41,2.167 5.104,3.763 7.377,7.377 1.825,2.903 2.474,4.153 4.059,7.747005 -0.302,3.745 1.215,5.671 1.106,9.222 0.662,0.457 3.396,-0.611 4.058,0.737 1.378,-0.025 0.387,2.319 1.476,2.583 1.138,1.04 2.707,0.717 5.164,1.106 3.726,0.59 7.775,3.391 12.174,5.165 4.658,1.879 9.339,3.407 12.173,5.164 0.405,0.25 0.63,1.139 1.107,1.476 1.199,0.85 3.488,1.474 4.058,3.32 11.119,6.341 19.186,15.734 26.56,25.821 3.08,-0.846 6.729,-2.523 10.328,-4.427 0.179,-0.095 0.472,-0.965 0.737,-1.106 1.105,-0.584 2.629,-0.855 4.059,-1.476 2.868,-1.245 5.018,-2.354 8.483,-3.689 1.968,-0.756 8.399,-3.372 11.066,-2.95 0.808,0.127 2.798,1.432 3.689,2.214 1.593,1.396 1.831,4.923 2.951,7.746 -1.286,3.018 -3.338,5.269 -6.641,6.271 -0.264,1.001 1.74,-0.265 1.476,0.737 0.842,3.184 1.693,8.021 3.689,8.853 0.117,0.855 -0.06,1.417 -0.369,1.845 2.242,3.136 2.881,7.682 4.427,11.436 0.364,0.886 0.979,2.067 1.845,2.582 v 2.214 c 3.201,8.408 6.779,17.341 10.697,25.452 0.521,1.081 0.523,2.781 1.845,3.32 0.28,2.792 1.562,4.584 1.106,8.116 -1.537,2.643 -4.383,3.978 -8.854,3.688 -5.025,-5.672 -7.562,-13.835 -11.436,-20.656 -0.586,-1.729 -1.144,-3.6 -1.845,-5.165 -0.651,-1.456 -1.54,-3.053 -2.582,-4.058 -0.392,-3.79 -2.072,-6.287 -3.32,-9.222 -5.557,2.065 -9.923,5.322 -15.493,7.377 -3.624,1.958 -7.243,3.323 -10.697,5.164 -1.741,0.929 -3.346,2.097 -5.163,2.952 -2.949,1.387 -6.988,1.671 -9.592,3.688 3.728,13.611 9.08,25.597 14.019,37.995 8.528,-0.343 18.535,-2.369 28.033,-1.106 0.689,0.092 1.537,0.704 2.214,0.738 3.695,0.182 7.404,-0.518 11.067,0 2.01,0.284 3.978,1.012 5.901,1.476 1.648,0.396 4.391,0.243 5.165,2.213 -0.455,1.191 -1.974,0.151 -2.583,0 -3.614,-0.896 -8.005,-1.749 -13.279,-1.476 -3.588,0.186 -7.647,-0.262 -10.697,0.369 -2.091,0.432 -3.161,1.663 -6.271,1.845 -4.777,0.277 -10.633,-0.03 -16.6,0.369 -0.881,0.059 -1.716,0.62 -2.583,0.736 -2.673,0.363 -5.682,-0.127 -8.483,0 -10.422,0.474 -21.561,-0.68 -30.986,0 -1.309,0.095 -2.487,0.691 -3.688,0.739 -2.317,0.09 -4.523,-0.556 -6.64,-0.369 -2.448,0.214 -4.703,1.89 -7.01,0 -3.098,0.47 -7.809,1.286 -11.065,0.369 0.182,-2.188 2.831,-1.154 4.427,-1.476 2.583,-0.522 5.32,-1.557 9.222,-1.107 2.142,-1.592 6.375,-0.823 10.328,-1.106 4.853,-0.349 8.226,-2.046 11.437,-3.689 1.552,-0.569 0.059,1.909 1.106,1.845 4.755,-3.044 10.175,-1.205 17.338,-1.845 -1.712,-6.405 -5.033,-11.197 -6.641,-17.706 -6.813,-11.017 -10.914,-24.743 -15.493,-37.994 -2.846,0.104 -4.857,1.045 -8.116,0.737 -2.264,-1.548 -4.141,-3.481 -4.796,-6.641 -3.249,1.294 -5.653,-0.522 -8.483,-1.106 -1.739,-0.358 -3.455,-0.075 -5.165,-0.369 -6.731,-1.154 -12.171,-5.646 -17.705,-1.843 -7.026,-1.059 -14.87,1.054 -22.503,-1.108 -0.728,-0.205 -1.455,-0.917 -2.212,-1.106 -3.736,-0.934 -6.932,-1.169 -10.328,-2.581 -1.054,-0.438 -2.163,-1.325 -3.32,-1.845 -2.943,-1.321 -5.104,-1.895 -6.64,-4.427 -0.97,-0.109 -0.29,1.431 -1.476,1.106 -2.834,-1.331 -6.096,1.143 -9.959,0 1.348,1.651 2,2.091 1.475,5.165 2.186,-0.396 1.358,-3.807 4.057,-3.689 1.937,1.597 -0.812,2.186 -0.738,4.057 0.968,1.369 3.042,1.632 3.689,3.32 v 3.689 c 2.768,3.913 7.963,6.102 9.96,11.435 1.057,2.823 1.588,7.083 3.319,9.961 1.192,1.981 3.613,3.062 3.689,5.532 2.663,0.282 4.944,1.229 7.747,0.369 0.74,0.871 0.971,2.47 0.369,3.689 2.137,-0.416 2.682,0.76 4.057,1.106 -1.306,3.175 1.345,3.55 1.476,6.271 -1.189,0.901 -3.529,0.651 -4.427,1.845 -0.229,2.318 2.553,1.627 2.582,3.688 -1.809,1.607 -1.123,2.722 -0.737,5.534 -0.519,1.816 -3.234,1.438 -4.059,2.951 -6.278,0.853 -10.409,3.854 -15.861,5.532 -1.589,0.483 -1.166,-1.046 -1.845,-1.476 -6.613,0.52 -9.181,5.083 -12.542,8.853 -0.071,0.299 -0.37,0.368 -0.37,0.739 13.321,-3.238 28.693,-3.935 45.004,-3.32 1.076,-0.092 1.273,0.694 1.845,1.106 1.59,0.42 4.98,-0.88 5.45,0.74 z M 41.818043,7.810705 c -0.79,1.054 -2.149,1.539 -3.688,1.845 -1.427,2.63 -4.504,3.611 -4.795,7.377 2.091,-0.359 3.963,1.432 5.532,0.368 -1.058,-0.728 0.128,-2.301 0,-3.319 1.509,-0.707 1.98,-2.358 3.689,-2.951 3.185,-1.108 6.744,0.588 10.328,0.737 -2.634,-2.405 -5.709,-4.373 -11.066,-4.057 z m -24.715,4.058 c -2.643,-0.18 -6.121,1.585 -7.747,2.582 -7.345,4.509 -8.64500003,15.749 -4.796,22.872 1.907,3.529 4.725,6.002 10.329,4.794 -7.062,-1.72 -10.036,-6.816 -8.853,-14.755 0.095,-0.635 -0.064,-1.286 0,-1.845 0.057,-0.489 0.644,-0.327 0.737,-0.737 -0.015,0.067 -0.473,-0.943 -0.369,-1.476 0.552,-2.829 3.188,-3.93 5.164,-5.534 1.367,-1.109 2.243,-2.341 2.951,-2.582 3.315,-1.126 6.629,1.022 10.697,0.369 -2.989,-1.242 -5.227,-3.49 -8.113,-3.688 z m 25.453,6.271 c 2.474,0.478 5.326,0.578 8.116,0.739 1.018,-2.062 1.968,-6.142 5.164,-4.796 -0.21,1.633 -2.584,1.104 -2.582,2.951 3.009,1.416 4.432,-1.297 5.165,-3.32 -1.672,-0.665 -4.411,-0.263 -6.64,-0.369 -2.128,0.824 -2.532,3.37 -4.426,4.426 -1.284,-2.38 1.454,-2.963 1.845,-4.795 -3.913,-0.345 -3.569,3.563 -5.903,4.795 -0.736,-2.469 1.82,-3.575 1.107,-4.795 -1.331,1.006 -2.012,2.66 -1.846,5.164 z m 105.499997,1.106 c -6.576,-4.392 -16.223,-7.2 -26.928,-5.164 -3.513,0.667 -5.609,2.288 -8.116,3.688 -1.64,0.918 -3.715,1.423 -4.795,2.214 -3.416,2.5 -4.928,6.785 -6.639,9.959 1.966,0 4.35,-0.416 4.426,1.476 -5.84,-1.628 -10.383997,9.266 -4.426,11.805 -2.185997,-2.521 -1.435,-12.973 4.426,-10.697 0.228,1.948 -2.176,1.267 -2.951,2.212 -1.106,2.351 -1.295,7.178 1.476,7.747 -0.342,0.889 -0.674,1.786 -1.107,2.582 -3.025,0.443 -4.085997,-1.078 -6.638997,-1.106 -3.755,3.653 -11.295,5.387 -9.96,12.911 4.116,2.27 11.32,-0.245 14.386997,-2.214 1.224,-0.785 2.01,-2.7 3.32,-2.212 -0.386,3.302 -3.472,3.907 -4.059,7.008 0.131,1.223 1.104,1.6 1.845,2.214 -0.653,-6.574 8.686,-4.122 12.542,-3.32 1.878,2.738 0.766,5.569 -1.845,6.271 -3.405,0.916 -8.031,-1.814 -10.328,-2.583 1.423,2.457 3.314,4.395 5.533,6.64 1.602,1.621 4.413,4.912 7.01,5.165 1.115,0.11 2.017,-0.711 3.32,-1.108 6.304,-1.914 13.609,-2.335 20.657,-1.475 4.399,-2.241 5.581,-7.699 5.165,-14.755 1.033,-2.291 5.294,-3.308 5.163,-5.533 -0.164,0.844 -2.23,1.669 -2.951,0.737 2.019,-2.778 7.279,-4.276 7.01,-8.116 -2.659,2.283 -5.351,6.423 -8.485,7.01 -0.884,5.387 -3.904,8.638 -8.853,9.959 -0.236,4.099 -9.475,6.047 -7.747,0 0.371,0.001 0.44,-0.299 0.739,-0.368 1.725,-0.374 1.225,1.479 2.951,1.106 1.231,-0.613 2.085,-1.604 2.582,-2.951 6.432,-0.714 9.74,-7.603 7.747,-14.387 -1.358,-0.554 -1.719,-1.36 -2.951,-1.476 -3.051,-0.285 -5.108,3.361 -7.009,3.32 -0.215,-2.429 2.145,-2.282 2.583,-4.057 0.246,-1.6 -1.857,-0.85 -1.476,-2.583 2.558,-1.57 2.293,3.226 4.796,1.845 -0.062,-2.398 -2.477,-2.442 -2.583,-4.795 3.895,0.041 3.011,4.86 6.641,5.165 0.274,-0.932 0.992,-3.737 -0.37,-4.057 -0.318,0.91 0.095,2.553 -1.106,2.582 -0.685,-2.145 -0.085,-5.572 -1.476,-7.01 2.393,-1.579 2.123,1.243 2.951,2.583 0.776,1.255 1.642,1.498 1.845,2.951 0.256,1.849 -1.687,3.754 0,4.795 1.343,-3.458 0.671,-6.328 0,-10.33 -0.853,-1.483 -3.544,-1.129 -3.32,-3.688 5.115,0.541 5.521,5.791 6.271,10.698 2.175,-3.762 -0.905,-8.655 -0.738,-11.436 1.543,-0.312 1.46,1 2.214,1.475 0.035,-0.579 -0.05,-1.279 0.737,-1.106 6.695,3.443 1.366,13.926 -2.212,16.969 1.297,-4.655 6.266,-11.274 1.476,-15.493 3.891,6.082 -2.458,12.135 -3.32,15.862 -0.122,0.524 -0.476,2.784 0.369,2.951 1.292,-3.257 5.453,-3.646 5.533,-8.116 4.73,-1.885 1.776,-8.968 1.845,-12.542 1.655,-0.303 1.646,1.058 2.581,1.475 -1.23,-5.292 -3.82,-8.064 -7.76,-10.697 z m -108.819997,-1.106 h 2.214 c 0.055,-0.916 -0.191,-1.531 -0.739,-1.845 0.157,1.263 -1.104,1.109 -1.475,1.845 z m -12.173,0 c -5.308,-0.386 -10.06,-1.885 -13.28,0.739 -2.442,1.989 -4.73,7.881 -4.426,12.173 0.203,2.865 2.154,5.104 3.32,7.377 4.012,2.45 14.436,1.112 22.133,1.845 2.983,0.282 6.208,0.219 8.853,0.368 -0.042,-1.887 -1.22,-0.501 -2.582,-0.737 -0.369,-1.476 -0.822,-2.867 -1.475,-4.059 1.722,-0.737 0.952,-3.965 1.106,-6.27 2.118,-3.662 6.728,-4.832 8.485,-8.854 -5.859,-0.233 -14.664,-2.039 -22.134,-2.582 z m 24.346,3.32 c 1.318,-0.405 2.178,-1.265 2.583,-2.582 -1.447,0.275 -1.984,1.458 -2.583,2.582 z m 21.027,4.796 c -8.626,-0.446 -11.205,15.391 -1.108,13.648 -2.362,-1.932 -4.931,-4.331 -4.057,-7.747 0.816,-3.196 5.603,-3.915 9.222,-4.427 -1.738,-0.206 -2.478,-1.393 -4.057,-1.474 z m -0.738,11.804 c 0.808,0.083 1.986,1.665 2.582,0.738 -2.255,-0.832 -2.599,-6.87 0.738,-5.534 0.093,1.324 -1.108,1.353 -1.106,2.582 1.127,1.216 1.717,4.915 4.427,3.32 -0.836,-1.047 -2.301,-5.974 0,-6.639 0.368,3.202 0.379,8.713 4.057,7.377 -0.662,-1.229 -3.524,-5.861 -0.37,-6.271 -0.387,2.969 1.345,3.82 1.108,6.641 1.142,-0.486 2.046,1.093 2.582,0 -0.912,-0.676 -2.476,-4.26 -0.739,-5.166 0.342,1.958 2.11,4.167 1.845,5.533 3.275,0.661 7.029,0.842 10.328,1.476 -1.788,-4.715 1.576,-8.832 1.845,-10.698 -9.961,1.148 -30.97,-7.46 -27.297,6.641 z m -29.142,1.105 c 0.104,-0.84 -0.088,-1.387 -0.738,-1.476 -0.102,0.843 0.09,1.388 0.738,1.476 z m 32.093,1.845 c -0.045,2.543 -4.493,4.635 -2.951,5.534 2.002,0.281 2.859,-0.585 4.796,-0.369 0.557,-1.976 2.769,-4.018 4.795,-3.32 0.575,2.543 -1.88,2.053 -2.583,3.32 5.042,2.207 0.477,10.201 -0.737,12.542 -4.719,9.096 -13.061,18.2 -15.124,28.403 2.933,0.788 5.489,0.09 8.114,0.369 4.001,0.426 7.047,2.894 10.699,3.32 1.558,-2.489 2.525,-3.105 5.164,-1.845 2.573,-4.683 7.561,-6.95 15.123997,-6.641 1.924,-1.532 3.652,-3.458 5.902,-4.795 1.444,-0.857 3.438,-1.016 4.428,-2.582 -6.837,-3.491 -10.322,-10.336 -15.124997,-15.863 -5.067,2.037 -12.373,2.481 -13.279,-2.582 -1.209,-6.759 6.759,-10.125 10.698,-12.912 -6.536,-0.962 -13.132,-1.867 -19.922,-2.579 z m 70.087997,2.951 c 0.992,0.255 0.714,-0.763 1.107,-1.106 h -1.107 v 1.106 z m -40.95,16.969 c 1.156,0.171 1.646,-0.321 1.476,-1.475 -1.15,-0.172 -1.65,0.321 -1.48,1.475 z m 2.59,0.738 c 0.866,0.363 1.813,0.647 2.953,0.737 -0.284,-1.39 0.449,-1.764 0.368,-2.951 h -2.951 c 0,0.87 -0.64,1.087 -0.37,2.214 z m 4.79,1.106 c 1.857,0.258 2.432,-0.765 2.214,-2.582 -0.428,-0.311 -0.989,-0.488 -1.845,-0.369 -0.57,0.536 -0.32,1.889 -0.37,2.951 z M 97.150043,133.96771 c -2.182,-0.046 -11.172,-2.501 -11.435,1.475 3.534,-0.76 7.33,-1.27 11.435,-1.47 z m 29.136997,3.32 c -1.06,0.517 -1.873,-1.004 -2.212,0 0.26,0.29 2.06,0.82 2.21,0 z m 1.11,0.37 c 1.184,0.307 3.269,1.63 4.426,0.738 -1.16,-0.2 -4.97,-1.25 -4.43,-0.74 z m -19.55,2.95 c -1.09,-0.142 -1.924,-0.899 -2.951,-1.106 -3.16,-0.64 -7.159997,-0.599 -10.327997,0 -1.87,0.354 -3.881,0.419 -5.165,1.106 10.593,0.106 22.119997,1.242 31.355997,1.476 -4.28,-1.78 -8.66,-0.93 -12.91,-1.48 z m 29.51,2.95 c -4.648,-0.162 -8.218,-2.081 -13.279,-1.105 4.08,0.47 9.42,1.64 13.28,1.1 z m 22.14,4.8 c -14.825,-1.019 -28.464,-2.538 -44.265,-3.688 -2.433,-0.178 -4.632,-0.944 -7.01,-1.108 -8.577997,-0.586 -21.425997,-0.753 -29.141997,-1.105 -3.494,-0.159 -5.45,5.825 -7.377,8.115 0.959,4.991 3.571,9.438 5.902,13.648 2.424,4.379 4.698,8.779 6.641,13.279 3.943,9.139 9.502,17.351 12.91,26.93 1.832,5.148 3.201997,10.445 5.164997,15.86 1.753,-0.141 2.661,0.78 4.057,0 -0.536,-2.589 -2.765,-5.068 -3.688,-7.377 -1.939,-4.846 -3.047997,-10.487 -5.533997,-15.861 -1.649,-3.57 -3.803,-7.647 -5.163,-11.066 -0.511,-1.283 -0.811,-2.962 -1.476,-4.059 -0.771,-1.269 -2.417,-2.407 -3.32,-4.058 -1.249,-2.279 -2.098,-5.23 -3.32,-8.115 -2.118,-5.003 -6.398,-10.059 -4.795,-17.337 1.051,-4.767 6.219,-6.429 11.805,-6.64 4.416,-0.167 9.263997,0.876 14.385997,1.475 19.867,2.322 39.021,2.95 57.546,4.427 -0.37,-1.88 -2.39,-2.06 -3.33,-3.33 z m -21.4,-4.06 h 0.737 v -0.739 h -0.737 v 0.74 z m 15.49,1.84 c 0.881,-0.226 2.676,0.462 2.951,-0.369 -0.7,-1.01 -2.53,-0.83 -2.95,0.37 z m 108.82,2.59 c -5.822,3.893 -12.64,6.788 -19.55,9.592 1.241,3.308 4.657,4.441 6.271,7.377 -2.865,2.323 -6.312,1.279 -9.96,1.845 -6.513,1.011 -12.919,4.365 -19.551,5.164 -3.984,0.481 -8.192,-0.265 -11.805,0.738 -2.172,0.604 -7.045,4.143 -7.378,5.901 -0.364,1.931 1.408,5.282 2.951,5.902 1.523,0.612 4.083,-0.5 6.271,-1.106 6.226,-1.725 13.247,-4.92 18.443,-6.271 0.856,-0.496 1.148,-1.558 2.214,-1.845 16.099,-7.386 33.78,-13.19 48.692,-21.764 -0.299,-2.021 1.646,-1.797 1.476,-3.688 -2.031,-0.921 -2.35,-3.553 -3.688,-5.165 -5.82,-1.33 -9.37,2.62 -14.38,3.33 z m -164.519997,14.38 c 5.580997,2.275 15.243997,3.453 20.657997,2.95 -2.073,-1.002 -3.724,-2.425 -5.903,-3.32 -0.431,-0.965 1.14,-1.586 -0.368,-1.475 -2.534,0.54 -4.393,1.754 -7.747,1.475 -0.868,-0.115 -0.219,-1.748 -1.476,-1.475 -1.633,0.457 -2.676,1.505 -5.164997,1.105 -0.815,-0.291 -0.923,-1.289 -1.476,-1.845 -0.371,-1.303 -1.631,0.318 -1.476,-1.105 -0.14,-1.246 0.64,-1.573 1.106,-2.213 1.993,0.462 2.927,0.358 4.058997,-0.738 7.509,1.087 13.983,-1.257 19.181,0 1.843,0.445 3.891,0.076 5.533,0.369 2.023,0.36 4.477,1.519 7.009,1.845 13.546,1.739 27.539,1.401 41.684,1.476 -3.769,-5.458 -12.254,-1.293 -20.657,-2.583 -0.799,-0.122 -1.782,-0.704 -2.582,-0.737 -2.209,-0.095 -4.149,0.514 -6.271,0.369 -3.721,-0.254 -7.706,-1.723 -11.436,-1.107 -1.285,-0.559 -2.144,-1.545 -4.427,-1.106 -1.225,-0.374 -1.154,-2.041 -2.951,-1.845 -0.71,0.766 -1.542,1.409 -2.582,1.845 -0.979,-0.497 -1.108,-1.843 -2.582,-1.845 -3.508,0.683 -8.504,0.316 -11.436,-0.737 -2.521,1.528 -5.442,-0.078 -8.116,-0.369 -0.447,-0.05 -0.733997,0.395 -1.475997,0.369 -1.678,-0.06 -3.412,-1.06 -4.795,-1.107 -2.972,-0.103 -5.596,0.663 -7.377,1.476 -0.878,0.4 -2.055,1.166 -2.582,1.845 -0.856,1.728 -0.128,5.037 -0.37,7.377 3.984,3.765 9.099,8.36 15.124,8.854 -1.804,-0.728 -2.955,-3.83 -1.845,-6.271 -1.579,-0.519 -3.263,-2.872 -4.794,-2.214 1.571,1.112 0.171,3.583 -0.369,4.796 -3.796,-0.347 -4.709,-5.258 -4.796,-8.115 4.303,-2.16 7.19,2.61 10.722,4.05 z m 177.799997,-2.95 v -1.845 h -1.106 c -0.4,1.02 -0.57,2.07 1.11,1.84 z m -106.6,4.43 c -11.528,4.23 -31.11,0.061 -42.423,-0.369 -4.125,-1.206 -8.176,-3.887 -12.91,-3.32 1.064,1.548 3.146,2.112 5.164,3.32 1.87,1.118 3.844,3.193 5.902,3.689 1.649,0.396 3.587,-0.565 5.534,-0.369 2.723,0.273 5.45,1.324 8.484,1.476 8.551,0.427 18.48,0.245 25.823,-0.738 1.803,-0.24 3.709,-1.267 5.533,-1.476 7.081,-0.806 13.586,2.496 19.55,1.476 -5.21,-2.89 -11.94,-4.29 -20.64,-3.69 z m 125.05,46.48 c -3.062,-10.456 -8.145,-20.128 -11.066,-31.724 -1.45,-2.166 -2.552,-4.556 -3.688,-7.008 -1.463,-3.161 -2.578,-7.781 -4.057,-9.961 -2.963,1.219 -5.836,2.526 -8.485,4.059 2.038,6.445 4.521,12.446 7.746,17.706 v 2.214 c 3.894,5.328 4.854,13.592 8.854,18.812 0.867,5.527 4.163,8.625 5.164,14.018 2.037,0.915 2.185,3.719 3.688,5.165 2.456,-0.004 4.269,-0.649 5.903,-1.476 -0.46,-4.83 -2.37,-8.2 -4.05,-11.81 z m -30.62,-45.75 c -0.472,-0.02 -0.511,-0.473 -1.106,-0.369 -0.986,0.858 -2.421,1.269 -3.32,2.214 -1.367,-0.261 -1.583,0.631 -2.95,0.369 -10.727,5.381 -21.972,10.244 -33.199,15.124 1.711,4.928 4.215,9.064 5.533,14.387 3.725,-0.501 6.748,-2.924 9.96,-4.428 10.275,-4.809 20.359,-8.738 30.985,-12.91 -1.27,-5.48 -4.18,-9.33 -5.9,-14.38 z m -164.149997,5.91 c 1.320997,0.523 3.609997,0.079 4.795997,0.738 -0.05,-1.771 0.281,-3.163 1.476,-3.689 0.857,0.251 0.537,1.677 1.476,1.845 0.459,-0.771 1.447,-1.012 1.845,-1.845 -3.005,-0.438 -4.775,-2.11 -8.116,-2.213 -0.03,2.18 -0.03,4.39 -1.472997,5.16 z m -7.377,9.96 c 1.007,0.469 1.471,1.48 2.212,2.213 0.036,-0.58 -0.05,-1.279 0.738,-1.106 4.778,1.616 9.601997,3.185 14.017997,5.165 1.882,-4.411 -0.943,-8.017 -4.059,-9.592 0.799,1.584 2.783,5.349 1.108,7.01 -4.697,-0.839 -6.360997,-6.672 -6.270997,-11.066 2.037997,-0.889 2.730997,2.94 3.319997,1.106 -0.028,-0.643 0.081,-1.147 0.368,-1.476 -3.632997,0.677 -6.538997,-1.324 -8.483997,-1.106 1.267,1.361 7.283997,8.548 2.951,9.959 -3.424,1.115 -6.843,-7.979 -5.533,-11.804 -2.909,-0.17 -4.251,-3.859 -6.271,-3.689 1.458,5.3 6.024,7.5 5.897,14.39 z m 95.909997,-7.38 c -2.849,-1.494 -7.142,-0.765 -11.065,-1.107 -0.682,-0.059 -1.465,-0.682 -2.214,-0.737 -1.549,-0.114 -3.305,0.632 -5.165,0.737 -3.239,0.185 -7.084,-0.328 -9.59,0 -0.861,0.112 -1.404,0.691 -2.214,0.738 -2.712,0.152 -5.856,0.115 -8.483,0 -0.68,-0.03 -1.591,-0.679 -2.214,-0.738 -4.306,-0.409 -8.577,0.531 -12.542,0 5.705,1.465 11.92,3.341 18.074,3.319 3.876,-0.012 8.335,0.236 12.175,-0.367 1.601,-0.252 3.183,-1.339 4.794,-1.478 2.431,-0.205 4.841,0.531 7.01,1.108 6.129,1.628 12.918,4.881 19.551,4.426 0.16,-4.512 4.526,-4.817 6.64,-7.377 -4.2,-0.25 -9.6,1.49 -14.77,1.48 z m -80.05,2.58 c -0.493,-1.105 -1.175,-2.02 -2.212,-2.581 -0.19,1.78 1.09,2.1 2.21,2.58 z m 7.01,2.58 c 0.278,-0.935 -1.409,-1.729 -1.475,-1.106 0.72,0.16 0.3,1.44 1.48,1.11 z m 153.46,3.32 h -1.106 c -11.929,5.534 -24.085,10.837 -36.151,16.231 0.353,2.107 1.137,3.782 1.845,5.533 3.422,-0.359 5.959,-2.618 8.853,-4.058 1.771,-0.881 3.758,-1.369 5.534,-2.214 3.563,-1.693 6.69,-3.421 9.592,-4.796 4.497,-2.131 9.123,-3.573 13.279,-6.271 -1.2,-0.87 -1.97,-2.19 -1.83,-4.42 z m -160.84,33.57 c 1.193,1.021 0.753,3.673 2.212,4.426 0.615,0.002 1.229,0 1.845,0 0.438,-3.356 -1.902,-6.251 -2.951,-9.222 -2.432,-6.884 -4.714,-13.975 -7.008,-21.026 -0.826,-0.772 -1.564,-1.634 -2.213997,-2.581 v -1.845 c -1.948,-0.028 -3.383,-2.507 -5.165,-1.476 6.218997,8.78 11.398997,18.61 13.278997,31.72 z m 10.7,-29.14 c 1.572,0.243 -1.193,-2.778 -1.476,-1.844 0.31,0.8 1.4,0.82 1.48,1.84 z m 153.08,-0.74 h 0.739 v -0.738 h -0.739 v 0.74 z m -155.66,6.64 c 2.693,3.938 5.181,8.446 7.747,12.175 0.815,1.183 1.768,3.514 3.689,3.318 -1.588,-2.591 -3.356,-4.623 -4.796,-7.377 -1.438,-2.753 -2.193,-5.926 -3.688,-8.483 -1.616,-2.764 -4.749,-4.023 -6.271,-6.641 -0.83,2.98 1.84,4.84 3.32,7 z m -1.85,8.49 c 0.773,3.651 1.578,7.275 3.688,9.591 -0.182,2.697 -0.338,3.711 0.369,5.902 -0.041,0.908 -2.702,2.415 -1.106,2.581 2.594,-0.11 4.865,-0.544 6.639,-1.475 -1.807,-4.218 -3.882,-8.169 -5.533,-12.543 -3.763,-5.705 -8.682,-10.254 -11.067,-17.336 -2.05,0.195 -3.685,-1.957 -5.533,-0.738 5.79,3.07 8.51,9.21 12.54,14.03 z m 108.45,-13.28 h -0.737 c -2.591,1.222 -5.669,1.954 -8.485,2.951 7.175,19.63 17.184,36.427 23.609,56.808 2.935,0.351 4.359,-0.807 6.639,-1.108 -7.2,-19.36 -14.16,-38.96 -21.03,-58.65 z m -90.37,22.13 c -0.557,1.288 -2.208,1.481 -3.32,2.214 1.043,1.539 1.719,3.445 3.32,4.427 2.777,-1.034 4.521,-3.103 6.271,-5.165 -3.12,0.54 -4.25,-0.92 -6.27,-1.48 z m 8.48,11.07 c 2.002,-0.58 3.781,-1.384 4.059,-3.688 -2,0.58 -3.78,1.38 -4.06,3.69 z m -7.37,-1.11 c -4.113,-3.689 -8.171,2.005 -12.91,2.212 0.446,1.276 0.998,2.445 0.737,4.427 -1.196,1.278 -3.6,1.305 -5.165,0.369 -0.233,-1.241 -1.058,-1.892 -0.737,-3.688 -3.488,1.011 -6.703,0.034 -10.328,0.736 -1.641,3.278 -6.485997,3.354 -9.221997,5.533 5.769997,0.764 9.783997,1.457 15.123997,2.952 3.807,1.064 8.509,4.848 11.435,3.318 3.31,-7.02 9.432,-11.225 14.756,-16.229 -1.25,0.1 -2.99,-0.28 -3.68,0.37 z m -14.39,4.8 v -1.845 h -1.107 c -0.07,1.05 -0.04,2 1.11,1.84 z m 16.23,2.21 c 2.017,-0.318 3.889,-0.782 4.795,-2.213 -2.5,-0.16 -3.87,0.81 -4.8,2.21 z m 7.38,0.74 c -1.205,1.289 -3.405,1.441 -5.163,2.213 -2.774,1.217 -5.536,2.804 -7.747,4.059 -1.25,0.708 -3.38,0.702 -3.32,2.581 2.16,0.438 2.292,-1.15 3.688,-1.475 4.941,-1.33 9.232,-3.311 14.018,-4.796 -0.15,-1.2 -0.33,-2.38 -1.48,-2.57 z m -52.753997,3.69 c -2.2,2.595 -8.619,0.971 -11.065,3.319 5.067,-1.079 11.248,-1.047 15.124,-3.319 h -4.059 z m -11.065,9.59 c 3.191,-0.218 6.735,-0.205 9.959,-0.369 3.237,-0.164 6.634,-0.087 8.853,-0.737 -5.087,-1.91 -14.624,-1.28 -18.812,1.11 z m 26.558997,8.11 c 1.301,-0.913 2.817,-1.611 3.689,-2.951 -3.886,3.432 -10.216997,1.094 -18.074997,0.737 -8.275,-0.376 -15.163,-0.37 -21.395,0.369 -1.133,-0.766 -3.38,-1.719 -4.059,0 12.426,-0.03 26.481,1.36 39.838997,1.84 z"
       id="path49"
       inkscape:connector-curvature="0" /><g
       style="display:inline"
       transform="translate(1.8684991e-5,0)"
       id="g3035"><path
         inkscape:connector-curvature="0"
         id="path5"
         d="m 83.502043,3.018705 c -2.901,-1.156 -7.554,-0.56 -10.697,-1.476 0.85,-1.18500004 4.491,-1.74600004 6.64,-1.47600004 2.012,0.253 3.971,0.99600004 4.057,2.95200004 z"
         style="fill-rule:evenodd" /><path
         inkscape:connector-curvature="0"
         id="path7"
         d="m 94.569043,21.462705 c 0.566,-8.281 -9.801,-8.575 -11.804,-15.493 -6.822,-2.104 -10.336,4.37 -16.969,4.796 -0.123,-2.573 3.434,-3.446 5.533,-4.427 3.136,-1.466 5.657,-3.171 10.697,-2.951 2.268,1.202 3.977,4.411 6.271,6.271 2.116,1.714 6.663,3.463 7.747,6.27 0.306,0.789 1.616,5.495 -1.475,5.534 z"
         style="fill-rule:evenodd" /><path
         inkscape:connector-curvature="0"
         id="path9"
         d="m 80.552043,8.550705 c 0.004,1.765 -2.385,1.219 -3.32,1.476 -1.169,0.321 -2.651,0.604 -3.688,1.108 -1.628,0.79 -2.672,3.184 -4.426,2.212 2.096,-3.069 6.743,-5.549 11.434,-4.796 z"
         style="fill-rule:evenodd" /><path
         inkscape:connector-curvature="0"
         id="path11"
         d="m 81.659043,13.346705 c 0.156,1.754 -1.939,1.259 -3.32,1.476 -1.546,0.545 -2.187,1.995 -4.427,1.845 0.858,-2.59 4.714,-4.136 7.747,-3.321 z"
         style="fill-rule:evenodd" /><path
         inkscape:connector-curvature="0"
         id="path13"
         d="m 87.929043,17.772705 c -0.039,1.521 -1.489,0.834 -2.213,1.108 -2.142,0.808 -4.249,2.531 -7.009,2.582 1.316,-2.745 6.074,-4.006 9.222,-3.69 z"
         style="fill-rule:evenodd" /><path
         inkscape:connector-curvature="0"
         id="path15"
         d="m 114.85804,26.995705 c -0.459,1.876 -0.392,4.281 -2.214,4.795 -0.984,-0.752 -1.081,-0.671 -0.737,-2.212 -1.163,-1.986 -4.893,-1.623 -7.01,-0.738 0.37,-5.313 7.92,-6.007 9.96,-1.845 z"
         style="fill-rule:evenodd" /><path
         inkscape:connector-curvature="0"
         id="path17"
         d="m 12.309043,26.625705 c 0.485,0.13 0.58,0.65 1.107,0.738 -1.187,3.024 1.606,5.558 0.369,8.483 -1.475,-1.83 -3.024,-6.734 -1.476,-9.221 z"
         style="fill-rule:evenodd" /><path
         inkscape:connector-curvature="0"
         id="path19"
         d="m 14.522043,28.839705 h 1.476 c 0.344,1.606 0.045,3.023 0.369,4.426 0.529,2.291 2.587,3.804 2.213,5.534 -3.473,-1.2 -3.671,-5.674 -4.058,-9.96 z"
         style="fill-rule:evenodd" /><path
         inkscape:connector-curvature="0"
         id="path21"
         d="m 19.317043,28.839705 c 0.596,-0.104 0.635,0.348 1.107,0.369 0.125,2.457 0.384,4.781 1.106,6.639 0.056,1.299 1.819,0.887 1.476,2.583 -3.825,-0.274 -4.805,-6.77 -3.689,-9.591 z"
         style="fill-rule:evenodd" /><path
         inkscape:connector-curvature="0"
         id="path23"
         d="m 23.744043,29.945705 h 1.107 c 1.062,3.119 2.194,6.168 3.688,8.854 -2.973,0.083 -4.827,-5.931 -4.795,-8.854 z"
         style="fill-rule:evenodd" /><path
         inkscape:connector-curvature="0"
         id="path25"
         d="m 28.909043,30.315705 c 0.596,-0.104 0.635,0.348 1.106,0.369 -0.522,3.527 1.855,5.941 1.107,8.483 -2.596,-0.847 -1.796,-5.09 -2.951,-7.377 -0.269,-1.005 0.732,-0.743 0.738,-1.475 z"
         style="fill-rule:evenodd" /><path
         inkscape:connector-curvature="0"
         id="path27"
         d="m 33.705043,31.053705 c 0.761,1.219 -0.982,2.555 -0.369,4.794 -0.089,1.812 2.316,1.127 1.844,3.32 -3.63,0.334 -5.471,-7.414 -1.475,-8.114 z"
         style="fill-rule:evenodd" /><path
         inkscape:connector-curvature="0"
         id="path29"
         d="m 37.024043,31.053705 c 0.429,-0.06 0.657,0.081 0.738,0.368 0.282,3.163 1.196,5.69 2.214,8.116 -3.064,-0.467 -4.497,-5.788 -2.952,-8.484 z"
         style="fill-rule:evenodd" /><path
         inkscape:connector-curvature="0"
         id="path31"
         d="m 107.10804,43.226705 c 0.389,-0.963 2.008,-0.698 2.951,-1.107 1.353,-1.336 1.887,-4.248 1.106,-6.639 -0.728,-0.871 -2.685,-0.512 -3.688,-1.107 v -1.106 c 5.115,-1.631 7.343,3.832 5.902,8.853 -0.93,1.142 -5.04,3.8 -6.27,1.106 z"
         style="fill-rule:evenodd" /><path
         inkscape:connector-curvature="0"
         id="path33"
         d="m 87.929043,35.479705 c 1.322,0.976 2.232,4.045 2.214,5.164 -2.337,0.039 -3.097,-3.179 -2.214,-5.164 z"
         style="fill-rule:evenodd" /><path
         inkscape:connector-curvature="0"
         id="path35"
         d="m 106.73804,39.906705 h -1.845 c -0.222,-0.884 -0.53,-1.683 -0.368,-2.951 2.01,-1.835 3.32,0.835 2.21,2.951 z"
         style="fill-rule:evenodd" /><path
         inkscape:connector-curvature="0"
         id="path37"
         d="m 93.094043,36.586705 h 1.106 c 0.722,1.246 1.369,2.566 1.476,4.426 -2.102,-0.234 -2.414,-2.259 -2.582,-4.426 z"
         style="fill-rule:evenodd" /><path
         inkscape:connector-curvature="0"
         id="path39"
         d="m 90.881043,36.955705 h 1.106 c -0.506,2.103 0.966,2.229 0.737,4.057 -1.815,-0.027 -2.739,-2.499 -1.843,-4.057 z"
         style="fill-rule:evenodd" /><path
         inkscape:connector-curvature="0"
         id="path41"
         d="m 121.86804,61.301705 c -2.394,-0.395 -1.651,-2.78 -3.319,-4.057 -0.8,-0.614 -2.854,-1.094 -4.428,-1.845 -3.251,-1.554 -5.698,-2.906 -7.747,-5.902 -2.699,-0.023 -5.139,0.13 -5.902,1.106 -1.608997,-2.404 2.837,-3.134 5.165,-2.951 2.49,0.195 3.796,1.42 5.165,2.951 0.465,0.521 0.863,1.413 1.476,1.845 3.25,2.294 11.57,2.794 9.59,8.853 z"
         style="fill-rule:evenodd" /><path
         inkscape:connector-curvature="0"
         id="path43"
         d="m 138.46804,48.390705 c -0.008,1.223 -2.085,0.375 -2.583,1.108 0.345,1.376 1.752,1.691 1.845,3.318 -0.358,2.149 -3.625,4.32 -5.533,2.583 0.3,-1.668 2.885,-1.051 3.319,-2.583 -0.167,-1.553 -1.744,-1.697 -2.212,-2.951 0.5,-1.502 3.83,-3.113 5.15,-1.475 z"
         style="fill-rule:evenodd" /><path
         inkscape:connector-curvature="0"
         id="path47"
         d="m 121.12804,228.77071 c 0.889,1.618 1.13,4.81 -0.369,5.901 -4.305,0.617 -5.816,-1.561 -5.533,-5.532 1.09,-1.03 4.33,-0.93 5.9,-0.37 z m -1.84,3.32 c 0.872,-0.916 0.147,-2.314 -1.476,-1.845 -0.09,1.21 0.44,1.78 1.48,1.85 z"
         style="fill-rule:evenodd" /></g><text
       sodipodi:linespacing="125%"
       id="text3012"
       y="533.92633"
       x="-50.905666"
       style="font-size:24px;font-style:normal;font-variant:normal;font-weight:normal;font-stretch:normal;text-align:start;line-height:125%;letter-spacing:0px;word-spacing:0px;writing-mode:lr-tb;text-anchor:start;fill:#000000;fill-opacity:1;stroke:none;font-family:Blackadder ITC;-inkscape-font-specification:Blackadder ITC"
       xml:space="preserve"><tspan
         style="font-size:72px;font-style:italic;font-variant:normal;font-weight:bold;font-stretch:normal;text-align:start;text-anchor:start;font-family:Brush Script MT;-inkscape-font-specification:Brush Script MT Bold Italic"
         id="tspan3014"
         y="533.92633"
         x="-50.905666"
         sodipodi:role="line">Thanks</tspan><tspan
         id="tspan3016"
         style="font-size:72px;font-style:italic;font-variant:normal;font-weight:bold;font-stretch:normal;text-align:start;text-anchor:start;font-family:Brush Script MT;-inkscape-font-specification:Brush Script MT Bold Italic"
         y="623.92633"
         x="-50.905666"
         sodipodi:role="line">  for  watching ...</tspan></text>
<g
       style="font-size:24px;font-style:normal;font-variant:normal;font-weight:normal;font-stretch:normal;text-align:start;line-height:125%;letter-spacing:0px;word-spacing:0px;writing-mode:lr-tb;text-anchor:start;fill:#000000;fill-opacity:1;stroke:none;font-family:Blackadder ITC;-inkscape-font-specification:Blackadder ITC"
       id="text3031"><path
         d="m -15.096397,349.76486 1.160156,0.87891 c -0.304717,0.65625 -0.597686,1.23047 -0.878906,1.72265 -0.281279,0.4922 -0.621123,1.08985 -1.019532,1.79297 -0.398465,0.70313 -0.703152,1.23047 -0.914062,1.58203 -1.757838,3.07032 -3.41018,4.60547 -4.957031,4.60547 -0.656272,0 -1.218771,-0.25781 -1.6875,-0.77343 -0.46877,-0.51563 -0.703145,-1.21876 -0.703125,-2.10938 -2e-5,-1.26562 0.445292,-3 1.335937,-5.20312 0.914041,-2.20312 2.30857,-4.91015 4.183594,-8.1211 1.89841,-3.23436 4.277314,-6.8906 7.136719,-10.96875 2.8593394,-4.0781 6.0819924,-8.37887 9.6679684,-12.90234 -2.06254,-0.30465 -4.5117563,-0.457 -7.3476563,-0.45703 -3.2578441,3e-5 -6.8906531,0.36331 -10.8984371,1.08984 -3.984395,0.7266 -7.46486,1.57035 -10.441407,2.53125 -2.953135,0.93753 -4.429696,1.62894 -4.429687,2.07422 -9e-6,0.16409 0.05859,0.28128 0.175781,0.35156 0.117178,0.0469 0.304678,0.0938 0.5625,0.14063 0.28124,0.0235 0.632802,0.0586 1.054688,0.10547 2.742174,0.37503 4.113266,0.7969 4.113281,1.26562 -1.5e-5,0.2344 -0.597671,0.35159 -1.792969,0.35156 -1.195324,-0.0234 -2.636729,-0.0351 -4.324219,-0.0351 -1.335945,3e-5 -2.3086,-0.0469 -2.917968,-0.14063 -0.585943,-0.11716 -0.98438,-0.31637 -1.195313,-0.59765 -0.187504,-0.30466 -0.281254,-0.76169 -0.28125,-1.3711 -4e-6,-0.3984 0.117183,-1.26559 0.351563,-2.60156 0.445307,-2.48434 1.124994,-4.47652 2.039062,-5.97656 0.937492,-1.49996 2.35546,-2.71871 4.253906,-3.65625 1.921862,-0.9609 4.558579,-1.72261 7.910157,-2.28516 5.624975,-0.96089 10.277314,-1.44136 13.957031,-1.44141 2.7187143,5e-5 4.8632434,0.11724 6.4335936,0.35157 1.5702717,0.21098 2.718708,0.52739 3.4453125,0.94922 0.74995654,0.42192 1.21870607,0.84379 1.40625,1.26562 0.21089317,0.39848 0.48042415,1.10161 0.8085938,2.10938 l 1.0898437,3.23437 c 0.070266,0.21098 0.1288601,0.38676 0.1757813,0.52734 0.046829,0.11723 0.081985,0.24614 0.1054687,0.38672 0.046829,0.14067 0.070266,0.26957 0.070312,0.38672 -4.64e-5,0.9141 -0.2109837,1.73441 -0.6328125,2.46094 -0.3984828,0.7266 -1.14848209,1.81644 -2.25,3.26953 -1.0781674,1.45316 -1.8750416,2.58987 -2.390625,3.41016 -6.0469101,9.82033 -10.1719056,17.08595 -12.3749996,21.79687"
         style="font-size:72px;font-style:italic;font-weight:bold;font-family:Brush Script MT;-inkscape-font-specification:Brush Script MT Bold Italic"
         id="path3038" /><path
         d="m 23.470009,345.68674 0,2.21484 c -2.039087,2.08595 -3.808617,3.79688 -5.308594,5.13281 -1.476582,1.31251 -2.777362,2.3086 -3.902344,2.98828 -1.101579,0.67969 -2.039078,1.01954 -2.8125,1.01954 -1.8281377,0 -2.7421992,-1.07813 -2.7421871,-3.23438 -1.21e-5,-1.73437 0.5624873,-3.73827 1.6875001,-6.01172 1.148422,-2.29686 2.789046,-4.99217 4.921875,-8.08594 -1.054705,0.58596 -2.050798,1.26565 -2.988281,2.03907 -0.937515,0.75001 -1.769546,1.54689 -2.4960941,2.39062 -0.726575,0.82033 -1.3359494,1.52345 -1.828125,2.10938 -1.5234474,1.71094 -2.9882897,3.46875 -4.3945313,5.27343 -1.4062556,1.78126 -2.3554734,2.94141 -2.84765625,3.48047 -0.49219116,0.53907 -0.96094069,0.8086 -1.40625,0.8086 -1.82812595,0 -2.74218745,-2.25 -2.74218745,-6.75 0,-1.47656 0.222656,-3.10546 0.6679687,-4.88672 0.4453114,-1.78124 1.6406227,-4.1367 3.5859375,-7.06641 4.1015541,-6.1406 7.6054569,-11.15622 10.5117189,-15.04687 2.92967,-3.91403 5.355448,-6.86715 7.277344,-8.85938 1.921851,-2.01558 3.210912,-2.99995 3.867187,-2.95312 0.820286,0.0704 1.476535,0.23442 1.96875,0.49218 0.515597,0.25786 0.773409,0.55083 0.773438,0.87891 -2.9e-5,0.58598 -0.410185,1.55864 -1.230469,2.91797 -0.796902,1.33598 -2.179713,3.43363 -4.148438,6.29297 -2.132833,3.02347 -3.644551,5.15628 -4.535156,6.39844 -0.890643,1.21877 -2.226579,2.96487 -4.007812,5.23828 -1.7578259,2.25002 -3.3750118,4.26564 -4.8515629,6.04687 -1.4531334,1.75783 -3.1171943,3.66799 -4.9921875,5.73047 l 0,4.21875 c 3.140617,-3.49217 5.8593643,-6.35155 8.15625,-8.57812 2.2968594,-2.22655 4.2421704,-3.90233 5.8359374,-5.02735 1.59373,-1.14841 2.765603,-1.72263 3.515625,-1.72265 0.703102,2e-5 1.359351,0.42189 1.96875,1.26562 0.60935,0.82033 0.914037,1.50002 0.914063,2.03906 -2.6e-5,0.2344 -0.117213,0.52737 -0.351563,0.87891 -1.687523,2.01564 -3.035178,3.69142 -4.042969,5.02734 -0.984395,1.31252 -1.746113,2.49611 -2.285156,3.55078 -0.53908,1.03126 -0.808611,1.92189 -0.808594,2.67188 -1.7e-5,1.10157 0.527326,1.65235 1.582032,1.65234 1.124979,1e-5 3.62107,-1.51171 7.488281,-4.53515"
         style="font-size:72px;font-style:italic;font-weight:bold;font-family:Brush Script MT;-inkscape-font-specification:Brush Script MT Bold Italic"
         id="path3040" /><path
         d="m 27.653603,339.39377 c 3.562491,-3.23436 7.019519,-5.6367 10.371093,-7.20703 3.351544,-1.57029 5.941386,-2.35544 7.769532,-2.35547 0.492164,3e-5 0.949195,0.21096 1.371093,0.63281 0.421851,0.39846 0.749975,0.86721 0.984375,1.40625 0.257787,0.53909 0.386694,0.93752 0.386719,1.19531 -2.5e-5,0.4219 -0.164088,0.73831 -0.492187,0.94922 -0.32815,0.18752 -0.902368,0.4219 -1.722657,0.70313 0.164039,0.37502 0.374977,0.85549 0.632813,1.4414 0.257788,0.58596 0.457007,1.06643 0.597656,1.44141 0.1406,0.35158 0.210913,0.66799 0.210938,0.94922 -2.5e-5,0.56252 -0.574243,1.6172 -1.722657,3.16406 -1.125022,1.52345 -1.921896,2.64845 -2.390625,3.375 -0.445332,0.72657 -0.667988,1.6172 -0.667968,2.67188 -2e-5,1.73438 0.796854,2.60156 2.390625,2.60156 1.640601,0 4.207004,-1.53515 7.699218,-4.60547 l 0,2.14453 c -5.929711,6.58594 -10.171895,9.87891 -12.726562,9.87891 -0.914079,0 -1.570328,-0.30469 -1.96875,-0.91407 -0.375015,-0.58593 -0.562515,-1.46484 -0.5625,-2.63671 -1.5e-5,-1.85156 0.667953,-4.53515 2.003906,-8.05079 -3.421888,3.79689 -5.964855,6.50391 -7.628906,8.1211 -1.66407,1.59375 -3.035163,2.39062 -4.113281,2.39062 -0.51563,0 -1.160161,-0.44531 -1.933594,-1.33593 -0.77344,-0.89063 -1.464846,-2.03906 -2.074219,-3.44532 -0.585938,-1.42968 -0.878906,-2.90624 -0.878906,-4.42968 0,-1.10156 0.105468,-2.01562 0.316406,-2.74219 0.210937,-0.74999 0.621093,-1.51171 1.230469,-2.28516 0.609372,-0.77342 1.582028,-1.79295 2.917969,-3.05859 m 16.839843,-3.86719 c -6.093765,2.78908 -10.441417,5.15627 -13.042968,7.10156 -2.578131,1.94533 -3.867193,3.94923 -3.867188,6.01172 -5e-6,0.75001 0.128902,1.3711 0.386719,1.86328 0.257807,0.46876 0.609369,0.70313 1.054687,0.70313 0.257807,0 0.714837,-0.16406 1.371094,-0.49219 2.460928,-1.45312 4.710925,-3.33983 6.75,-5.66016 2.039046,-2.34373 4.488263,-5.51951 7.347656,-9.52734"
         style="font-size:72px;font-style:italic;font-weight:bold;font-family:Brush Script MT;-inkscape-font-specification:Brush Script MT Bold Italic"
         id="path3042" /><path
         d="m 76.485634,339.32346 c -4.12502,4.59376 -6.187518,7.79297 -6.1875,9.59765 -1.8e-5,1.00782 0.410138,1.51173 1.230469,1.51172 0.679667,10e-6 1.558572,-0.35156 2.636718,-1.05469 1.10154,-0.72655 2.812476,-2.00389 5.132813,-3.83203 l 0,2.42578 c -3.328149,3.28126 -5.882834,5.64844 -7.664063,7.10157 -1.781267,1.45312 -3.234391,2.17968 -4.359375,2.17968 -1.921888,0 -2.882824,-1.26562 -2.882812,-3.79687 -1.2e-5,-0.75 0.117175,-1.48828 0.351562,-2.21485 0.234363,-0.72655 0.550769,-1.47655 0.949219,-2.25 0.421861,-0.79686 1.054673,-1.92186 1.898438,-3.375 0.843733,-1.47655 1.816389,-3.14061 2.917968,-4.99218 -1.335954,0.6797 -3.011734,2.02735 -5.027343,4.04297 -1.312512,1.26563 -2.425792,2.47266 -3.339844,3.62109 -0.914072,1.12501 -1.898446,2.39063 -2.953125,3.79687 -1.031256,1.38282 -1.792974,2.32032 -2.285156,2.8125 -0.468755,0.46876 -0.949223,0.70313 -1.441407,0.70313 -0.750002,0 -1.441408,-0.78515 -2.074218,-2.35547 -0.632813,-1.57031 -0.949219,-3.39843 -0.949219,-5.48437 0,-1.28906 0.140624,-2.29687 0.421875,-3.02344 0.304686,-0.72655 0.890623,-1.7578 1.757812,-3.09375 1.617184,-2.48436 3.011714,-4.30076 4.183594,-5.44922 1.171867,-1.17185 2.296866,-1.75779 3.375,-1.75781 0.749989,2e-5 1.347645,0.12893 1.792969,0.38672 0.468738,0.25783 0.703112,0.65627 0.703125,1.19531 -1.3e-5,0.23439 -0.07033,0.48049 -0.210938,0.73828 -0.140637,0.25783 -0.304699,0.49221 -0.492187,0.70312 -0.164074,0.21096 -0.527355,0.62112 -1.089844,1.23047 -3.703132,4.10158 -5.554692,6.76173 -5.554687,7.98047 -5e-6,0.6797 0.222651,1.01954 0.667968,1.01953 0.281244,1e-5 0.820306,-0.4453 1.617188,-1.33593 0.820304,-0.91406 1.863272,-2.09765 3.128906,-3.55079 1.289051,-1.47654 2.800768,-3.0117 4.535156,-4.60546 1.757796,-1.59373 3.749982,-3.12889 5.976563,-4.60547 1.242165,-0.86717 2.273414,-1.30076 3.09375,-1.30078 0.374975,2e-5 0.738256,0.51564 1.089844,1.54687 0.374974,1.03127 0.562474,2.07424 0.5625,3.12891 -2.6e-5,0.51564 -0.503932,1.3008 -1.511719,2.35547"
         style="font-size:72px;font-style:italic;font-weight:bold;font-family:Brush Script MT;-inkscape-font-specification:Brush Script MT Bold Italic"
         id="path3044" /><path
         d="m 105.59501,345.68674 0,2.35547 c -2.62503,3.07031 -4.82815,5.40234 -6.609376,6.99609 -1.781269,1.57031 -3.269549,2.35547 -4.464844,2.35547 -1.148452,0 -2.19142,-0.33985 -3.128906,-1.01953 -0.914075,-0.67969 -1.746105,-1.61719 -2.496094,-2.8125 -0.726572,-1.19531 -1.593759,-2.85937 -2.601562,-4.99219 -1.195319,1.47657 -2.273443,2.85938 -3.234375,4.14844 -0.960941,1.26562 -1.62891,2.10937 -2.003907,2.53125 -0.375002,0.42187 -0.714845,0.63281 -1.019531,0.63281 -0.632813,0 -1.089844,-0.39844 -1.371094,-1.19531 -0.28125,-0.82031 -0.421874,-2.00391 -0.421875,-3.55078 10e-7,-2.10937 0.246094,-4.13671 0.738282,-6.08204 0.515624,-1.96873 1.242185,-3.87889 2.179687,-5.73046 0.960934,-1.85155 2.179683,-3.84373 3.65625,-5.97657 1.499992,-2.15622 3.175772,-4.40622 5.027344,-6.75 2.554673,-3.23434 4.757796,-5.87105 6.609375,-7.91015 1.851543,-2.06246 3.45701,-3.60934 4.816406,-4.64063 1.38279,-1.05464 2.53122,-1.58198 3.44531,-1.58203 1.12498,5e-5 1.68747,0.50395 1.6875,1.51172 -3e-5,0.86723 -2.07424,3.99613 -6.22265,9.38672 -4.148459,5.36721 -10.195328,12.70314 -18.140629,22.00781 l 0,3.02344 c 5.320304,-5.6953 9.597643,-9.92576 12.832032,-12.69141 3.257792,-2.7656 5.777317,-4.14841 7.558597,-4.14844 0.72653,3e-5 1.28903,0.43362 1.6875,1.30079 0.39841,0.84377 0.59763,1.82814 0.59765,2.95312 -2e-5,2.29689 -0.9844,4.4297 -2.95312,6.39844 -1.968774,1.94532 -4.992208,4.1836 -9.070315,6.71484 0.70311,1.0547 1.324203,1.82813 1.863281,2.32031 0.539046,0.46876 1.218733,0.70313 2.039063,0.70313 0.726544,0 1.511699,-0.24609 2.355469,-0.73828 0.843728,-0.49218 1.699192,-1.11328 2.566402,-1.86328 0.8906,-0.74999 2.24998,-1.96874 4.07813,-3.65625 m -13.88672,1.79297 c 0.890611,-0.58593 1.992172,-1.48827 3.304688,-2.70704 1.335919,-1.24217 2.472637,-2.51951 3.410156,-3.83203 0.937479,-1.33592 1.406229,-2.4492 1.40625,-3.33984 -2.1e-5,-0.37498 -0.164084,-0.56248 -0.492188,-0.5625 -0.890645,2e-5 -2.425799,0.85549 -4.605468,2.56641 -2.156264,1.71095 -4.265637,3.90235 -6.328125,6.57421 0.890614,2e-5 1.992175,0.43361 3.304687,1.30079"
         style="font-size:72px;font-style:italic;font-weight:bold;font-family:Brush Script MT;-inkscape-font-specification:Brush Script MT Bold Italic"
         id="path3046" /><path
         d="m 105.24345,346.67111 0,-0.84375 c 6.04686,-6.37498 10.20702,-10.83982 12.48047,-13.39453 0.51561,-2.88278 1.75779,-4.32419 3.72656,-4.32422 0.49217,3e-5 1.01951,0.14066 1.58203,0.42188 l 0.21094,0.66797 c -0.0938,0.28127 -0.14065,0.67971 -0.14063,1.19531 -2e-5,0.44534 0.16405,1.27737 0.49219,2.49609 0.35154,1.19534 0.62107,2.20315 0.80859,3.02344 0.18748,0.82033 0.28123,1.74611 0.28125,2.77734 -2e-5,1.54689 -0.35158,3.03517 -1.05468,4.46485 -0.70315,1.40626 -1.72268,2.76563 -3.0586,4.07812 -1.33595,1.28907 -3.05861,2.61329 -5.16797,3.97266 0.84374,0.14063 1.51171,0.21094 2.00391,0.21094 0.96092,0 1.99217,-0.23437 3.09375,-0.70313 1.12498,-0.49218 2.2617,-1.13671 3.41016,-1.93359 1.17185,-0.82031 2.53122,-1.87499 4.07812,-3.16407 l 0,2.35547 c -3.00002,2.9297 -5.68361,5.15626 -8.05078,6.67969 -2.3672,1.5 -4.40626,2.25 -6.11719,2.25 -2.20313,0 -4.24219,-0.9375 -6.11719,-2.8125 -1.10156,-1.125 -1.79297,-2.20312 -2.07421,-3.23437 -0.25782,-1.03125 -0.38672,-2.42578 -0.38672,-4.1836 m 13.11328,-5.3789 -0.63281,-5.13282 c -1.45314,1.64065 -4.55861,4.79299 -9.31641,9.45703 1.40624,0.3047 2.36718,0.71486 2.88281,1.23047 0.51562,0.51564 1.24218,1.51173 2.17969,2.98828 1.59374,-0.65624 2.81249,-1.54686 3.65625,-2.67187 0.86717,-1.14843 1.30077,-2.70702 1.30078,-4.67578 -1e-5,-0.23436 -0.0117,-0.4453 -0.0352,-0.63281 -1e-5,-0.18749 -0.0117,-0.37499 -0.0352,-0.5625"
         style="font-size:72px;font-style:italic;font-weight:bold;font-family:Brush Script MT;-inkscape-font-specification:Brush Script MT Bold Italic"
         id="path3048" /><path
         d="m 16.825478,435.68674 0,2.42578 c -1.406269,1.40626 -2.472674,2.42579 -3.199219,3.05859 -0.726579,0.63282 -1.722672,1.27735 -2.988281,1.9336 -1.4e-5,2.13281 -0.105483,3.94921 -0.316407,5.44921 -0.210951,1.5 -0.6797001,3.07031 -1.4062496,4.71094 -0.7265741,1.66406 -1.8515729,3.48046 -3.375,5.44922 -1.5000074,1.9453 -2.9765684,3.43358 -4.4296875,4.46484 -1.45312803,1.05467 -2.5898456,1.58202 -3.4101563,1.58204 -0.9140626,-2e-5 -1.7578118,-0.75002 -2.53125,-2.25 -0.7734352,-1.50002 -1.1601536,-3.3633 -1.1601562,-5.58985 2.6e-6,-2.13282 0.3632835,-4.38282 1.0898437,-6.75 0.7265634,-2.36719 1.8515622,-5.42578 3.375,-9.17578 -1.1484381,-1.49999 -1.7226563,-2.98827 -1.7226562,-4.46484 -10e-8,-1.1953 0.3046871,-2.10937 0.9140625,-2.74219 0.6093734,-0.6328 1.47655999,-1.20702 2.60156245,-1.72266 0.82030805,-1.28904 1.59374485,-2.37889 2.32031255,-3.26953 0.7499933,-0.91404 1.7578048,-2.12107 3.0234375,-3.62109 2.4374886,-5.99997 5.2968611,-11.85934 8.5781251,-17.57813 0.914044,-1.59371 1.570293,-2.66011 1.96875,-3.19922 0.398417,-0.56245 0.820292,-0.8437 1.265625,-0.84375 0.398416,5e-5 0.749978,0.29302 1.054687,0.87891 0.304666,0.58598 0.457009,1.3477 0.457032,2.28516 -2.3e-5,1.14847 -0.128929,2.20316 -0.386719,3.16406 -0.234397,0.96097 -0.585959,1.93363 -1.054688,2.91797 -0.445333,0.96097 -1.078144,2.12112 -1.898437,3.48047 -0.796893,1.3594 -1.28908,2.20315 -1.476563,2.53125 -1.171891,2.06252 -2.496108,4.34768 -3.972656,6.85547 -1.4765744,2.50783 -2.6484482,4.48829 -3.5156249,5.9414 -0.8437591,1.45314 -1.4531335,2.54298 -1.828125,3.26953 1.2656156,1.10158 2.2617084,2.05079 2.9882813,2.84766 0.7499881,0.79688 1.3945187,1.7461 1.9335937,2.84766 0.7968609,-0.30469 1.5234229,-0.66797 2.1796879,-1.08985 0.656234,-0.42187 1.42967,-0.99608 2.320312,-1.72265 0.890607,-0.74999 1.757793,-1.4414 2.601563,-2.07422 m -10.5117191,9.42187 -0.070312,-0.73828 c -0.656259,0.0703 -1.1836022,0.0937 -1.5820313,0.0703 -0.3984451,-0.0469 -0.8671946,-0.15234 -1.40625,-0.3164 -0.5156311,-0.16406 -0.9257869,-0.31641 -1.2304687,-0.45703 -0.2812551,-0.14063 -0.597661,-0.28125 -0.9492188,-0.42188 -1.78125261,4.35937 -2.6718767,7.98047 -2.671875,10.86328 -1.7e-6,1.42968 0.2109356,2.64843 0.6328125,3.65625 0.4453097,1.0078 0.96093418,1.51171 1.546875,1.51172 0.6093705,-1e-5 1.3710885,-0.53907 2.2851563,-1.61719 0.9374928,-1.07813 1.7460858,-2.67188 2.4257812,-4.78125 0.6796782,-2.10938 1.0195216,-4.69922 1.0195313,-7.76953"
         style="font-size:72px;font-style:italic;font-weight:bold;font-family:Brush Script MT;-inkscape-font-specification:Brush Script MT Bold Italic"
         id="path3050" /><path
         d="m 39.39579,435.61642 0,2.35547 c -1.546897,1.40626 -2.789083,2.34376 -3.726562,2.8125 -0.937519,0.46876 -2.285174,0.65626 -4.042969,0.5625 -3.046888,3.60938 -5.730479,5.41407 -8.050781,5.41407 -1.312506,0 -2.507818,-0.4336 -3.585938,-1.30079 -1.078128,-0.86718 -1.945314,-2.05077 -2.601562,-3.55078 -0.632813,-1.49999 -0.949219,-3.17577 -0.949219,-5.02734 0,-1.49999 0.492187,-3.16405 1.476562,-4.99219 1.00781,-1.82811 2.296871,-3.52732 3.867188,-5.09765 1.593743,-1.59373 3.29296,-2.87108 5.097656,-3.83204 1.804675,-0.98435 3.480455,-1.47653 5.027344,-1.47656 1.101546,3e-5 1.968732,0.17581 2.601562,0.52735 0.632794,0.32815 0.9492,0.79689 0.949219,1.40625 -1.9e-5,0.46877 -0.26955,1.00783 -0.808594,1.61718 0.890606,0.18752 1.49998,0.50393 1.828125,0.94922 0.328105,0.4219 0.492167,1.20705 0.492188,2.35547 -2.1e-5,1.12502 -0.269552,2.54299 -0.808594,4.25391 -0.515644,1.71095 -1.230487,3.31641 -2.144531,4.8164 l 0.632812,0.63282 0.527344,0 c 0.398418,0 0.785137,-0.0937 1.160156,-0.28125 0.398417,-0.21093 0.749979,-0.42187 1.054688,-0.63282 0.304666,-0.23436 0.972634,-0.73827 2.003906,-1.51172 m -7.242187,-9.24609 c -1.945327,1.1719 -3.609388,2.2383 -4.992188,3.19922 -1.382822,0.93752 -2.554696,1.89845 -3.515625,2.88281 -0.960944,0.96095 -1.605474,1.93361 -1.933594,2.91797 -0.585942,2.62501 -0.878911,4.04298 -0.878906,4.25391 -5e-6,1.54688 1.078119,2.32031 3.234375,2.32031 1.007804,0 2.695302,-0.86718 5.0625,-2.60156 -0.39845,-1.10156 -0.597668,-2.15624 -0.597656,-3.16407 -1.2e-5,-1.47655 0.304675,-2.97654 0.914062,-4.5 0.609362,-1.54685 1.511704,-3.31638 2.707032,-5.30859"
         style="font-size:72px;font-style:italic;font-weight:bold;font-family:Brush Script MT;-inkscape-font-specification:Brush Script MT Bold Italic"
         id="path3052" /><path
         d="m 38.938759,438.39377 0,-2.28516 c 1.265623,-1.49999 2.22656,-2.77733 2.882812,-3.83203 -0.750002,-0.2578 -1.300783,-0.5742 -1.652343,-0.94922 -0.328127,-0.37498 -0.492189,-0.93748 -0.492188,-1.6875 -10e-7,-0.84373 0.351561,-1.91014 1.054688,-3.19922 0.703122,-1.28904 1.570309,-2.49607 2.601562,-3.62109 1.031244,-1.12498 1.968744,-1.85154 2.8125,-2.17969 0.328117,-0.16403 0.644523,-0.24607 0.949219,-0.24609 0.468741,2e-5 0.703116,0.22268 0.703125,0.66797 -9e-6,0.39846 -0.36329,1.20705 -1.089844,2.42578 4.828112,-0.74998 7.874984,-1.12498 9.140625,-1.125 0.49217,2e-5 0.832013,0.0469 1.019531,0.14062 0.398419,0.21096 0.726544,0.70315 0.984375,1.47657 0.257793,0.77346 0.3867,1.54689 0.386719,2.32031 -1.9e-5,0.49221 -0.222675,1.03127 -0.667969,1.61719 -0.421893,0.56251 -1.160174,1.39454 -2.214843,2.49609 -1.242203,1.33595 -2.285171,2.78908 -3.128907,4.35937 -0.843762,1.57033 -1.265637,2.75392 -1.265625,3.55079 -1.2e-5,1.10157 0.679675,1.65235 2.039063,1.65234 1.429672,1e-5 3.914044,-1.45312 7.453125,-4.35938 l 0,2.35547 c -1.945332,2.03907 -3.5508,3.64454 -4.816406,4.81641 -1.265641,1.17188 -2.437515,2.10938 -3.515625,2.8125 -1.078138,0.67969 -2.039074,1.01953 -2.882813,1.01953 -0.984384,0 -1.804696,-0.44531 -2.460937,-1.33594 -0.656258,-0.91406 -0.984382,-2.22656 -0.984375,-3.9375 -7e-6,-1.0078 0.257805,-2.15624 0.773437,-3.44531 0.515617,-1.28905 1.265616,-2.68358 2.25,-4.18359 1.007802,-1.52343 2.1328,-3.03514 3.375,-4.53516 -0.656263,0.14064 -1.394543,0.29299 -2.214844,0.45703 -0.820323,0.14064 -1.687509,0.29299 -2.601562,0.45703 -0.91407,0.16408 -1.617195,0.29299 -2.109375,0.38672 -1.45313,2.90627 -3.562503,5.54298 -6.328125,7.91016"
         style="font-size:72px;font-style:italic;font-weight:bold;font-family:Brush Script MT;-inkscape-font-specification:Brush Script MT Bold Italic"
         id="path3054" /><path
         d="m 119.27079,439.83517 c -2e-5,1.0547 0.39842,1.58204 1.19531,1.58204 1.03123,0 2.83592,-1.74609 5.41407,-5.23829 -0.0938,-0.65623 -0.14066,-1.08983 -0.14063,-1.30078 -3e-5,-1.26561 0.50388,-2.81248 1.51172,-4.64062 1.00778,-1.82811 2.16794,-3.42186 3.48047,-4.78125 1.31247,-1.35935 2.30856,-2.03904 2.98828,-2.03906 0.82028,2e-5 1.23043,0.98439 1.23047,2.95312 -4e-5,1.61721 -0.3516,3.21096 -1.05469,4.78125 -0.67972,1.57033 -1.67581,3.17579 -2.98828,4.81641 0.21091,0.21095 0.44528,0.4336 0.70312,0.66797 0.25778,0.21094 0.52732,0.39844 0.8086,0.5625 0.30465,0.14063 0.62106,0.21094 0.94922,0.21093 0.7734,1e-5 1.75777,-0.62108 2.95312,-1.86328 l 0,2.4961 c -1.8516,1.92188 -3.45706,2.88281 -4.8164,2.88281 -0.79691,0 -1.42972,-0.0937 -1.89844,-0.28125 -0.44534,-0.21093 -1.01956,-0.57421 -1.72266,-1.08985 -4.31252,5.17969 -7.59377,7.76954 -9.84375,7.76954 -0.8672,0 -1.55861,-0.31641 -2.07422,-0.94922 -0.4922,-0.65625 -0.73829,-1.55859 -0.73828,-2.70703 -10e-6,-0.5625 0.23436,-2.67187 0.70313,-6.32813 -0.91408,1.0547 -1.98049,2.29688 -3.19922,3.72656 -1.21876,1.4297 -2.20314,2.53126 -2.95313,3.30469 -0.75001,0.75 -1.45313,1.33594 -2.10937,1.75781 -0.63282,0.42188 -1.27735,0.63282 -1.9336,0.63282 -0.63281,0 -1.39453,-0.39844 -2.28515,-1.19532 -0.86719,-0.79687 -1.60547,-1.85156 -2.21485,-3.16406 -0.60937,-1.33593 -0.91406,-2.76562 -0.91406,-4.28906 0,-1.47655 0.21094,-2.74218 0.63281,-3.79688 0.42188,-1.05467 1.38281,-2.6367 2.88282,-4.74609 1.35937,-1.87498 2.5664,-3.41014 3.62109,-4.60547 1.05468,-1.19529 2.0039,-2.12107 2.84766,-2.77734 0.86717,-0.65623 1.5703,-0.98435 2.10937,-0.98438 0.32811,3e-5 0.74999,0.0821 1.26563,0.2461 0.53904,0.14065 1.00779,0.33986 1.40625,0.59765 0.42186,0.25784 0.63279,0.52737 0.63281,0.8086 -2e-5,0.89064 -0.39845,2.01564 -1.19531,3.375 -0.77345,1.35939 -1.93361,2.88283 -3.48047,4.57031 -1.54689,1.68751 -3.31642,3.41017 -5.3086,5.16797 -0.53906,1.61719 -0.80859,2.92969 -0.80859,3.9375 0,0.32813 0.0937,0.64453 0.28125,0.94922 0.21093,0.28125 0.45703,0.42188 0.73828,0.42187 0.96093,10e-6 2.80077,-1.49999 5.51953,-4.5 2.74218,-2.99999 6.35155,-7.54686 10.82813,-13.64062 0.16404,-0.23436 0.5156,-0.35154 1.05469,-0.35157 0.58591,3e-5 1.11325,0.12893 1.58203,0.38672 0.49216,0.25784 0.73825,0.6094 0.73828,1.05469 -3e-5,0.25783 -0.62112,1.62893 -1.86328,4.11328 -1.21878,2.48439 -2.28518,4.76955 -3.19922,6.85547 -0.89065,2.06251 -1.33596,3.60938 -1.33594,4.64062"
         style="font-size:72px;font-style:italic;font-weight:bold;font-family:Brush Script MT;-inkscape-font-specification:Brush Script MT Bold Italic"
         id="path3056" /><path
         d="m 140.29423,429.39377 c 3.56249,-3.23436 7.01952,-5.6367 10.37109,-7.20703 3.35155,-1.57029 5.94139,-2.35544 7.76953,-2.35547 0.49217,3e-5 0.9492,0.21096 1.3711,0.63281 0.42185,0.39846 0.74997,0.86721 0.98437,1.40625 0.25779,0.53909 0.38669,0.93752 0.38672,1.19531 -3e-5,0.4219 -0.16409,0.73831 -0.49219,0.94922 -0.32815,0.18752 -0.90237,0.4219 -1.72265,0.70313 0.16404,0.37502 0.37497,0.85549 0.63281,1.4414 0.25779,0.58596 0.45701,1.06643 0.59766,1.44141 0.1406,0.35158 0.21091,0.66799 0.21093,0.94922 -2e-5,0.56252 -0.57424,1.6172 -1.72265,3.16406 -1.12503,1.52345 -1.9219,2.64845 -2.39063,3.375 -0.44533,0.72657 -0.66799,1.6172 -0.66797,2.67188 -2e-5,1.73438 0.79686,2.60156 2.39063,2.60156 1.6406,0 4.207,-1.53515 7.69922,-4.60547 l 0,2.14453 c -5.92972,6.58594 -10.1719,9.87891 -12.72657,9.87891 -0.91408,0 -1.57032,-0.30469 -1.96875,-0.91407 -0.37501,-0.58593 -0.56251,-1.46484 -0.5625,-2.63671 -10e-6,-1.85156 0.66796,-4.53515 2.00391,-8.05079 -3.42189,3.79689 -5.96485,6.50391 -7.62891,8.1211 -1.66407,1.59375 -3.03516,2.39062 -4.11328,2.39062 -0.51563,0 -1.16016,-0.44531 -1.93359,-1.33593 -0.77344,-0.89063 -1.46485,-2.03906 -2.07422,-3.44532 -0.58594,-1.42968 -0.87891,-2.90624 -0.87891,-4.42968 0,-1.10156 0.10547,-2.01562 0.31641,-2.74219 0.21094,-0.74999 0.62109,-1.51171 1.23047,-2.28516 0.60937,-0.77342 1.58203,-1.79295 2.91797,-3.05859 m 16.83984,-3.86719 c -6.09376,2.78908 -10.44142,5.15627 -13.04297,7.10156 -2.57813,1.94533 -3.86719,3.94923 -3.86718,6.01172 -1e-5,0.75001 0.1289,1.3711 0.38671,1.86328 0.25781,0.46876 0.60937,0.70313 1.05469,0.70313 0.25781,0 0.71484,-0.16406 1.3711,-0.49219 2.46092,-1.45312 4.71092,-3.33983 6.75,-5.66016 2.03904,-2.34373 4.48826,-5.51951 7.34765,-9.52734"
         style="font-size:72px;font-style:italic;font-weight:bold;font-family:Brush Script MT;-inkscape-font-specification:Brush Script MT Bold Italic"
         id="path3058" /><path
         d="m 177.77079,417.44064 1.51172,0 c 1.24217,-2.22653 2.36717,-3.79684 3.375,-4.71093 1.00779,-0.93747 2.15623,-1.40622 3.44531,-1.40625 1.28904,3e-5 1.93357,0.293 1.9336,0.8789 -3e-5,0.28129 -0.50393,1.043 -1.51172,2.28516 -1.00784,1.24222 -1.76955,2.28518 -2.28516,3.1289 0.79685,0.0938 1.49998,0.17581 2.10938,0.2461 0.63279,0.0703 1.12497,0.12893 1.47656,0.17578 -1.33596,2.4844 -3.01174,5.02737 -5.02735,7.62891 -0.65626,-0.0469 -1.20704,-0.082 -1.65234,-0.10547 -0.44533,-0.0469 -0.90236,-0.082 -1.37109,-0.10547 -0.44533,-0.0469 -0.99611,-0.0937 -1.65235,-0.14063 -1.26563,2.03909 -2.33204,3.86721 -3.19922,5.48438 -0.84376,1.59376 -1.5,3.0586 -1.96875,4.39453 -0.44532,1.33595 -0.66797,2.60157 -0.66796,3.79687 -1e-5,1.6172 0.64452,2.42579 1.93359,2.42579 0.89061,0 2.05077,-0.46875 3.48047,-1.40625 1.45311,-0.96093 3.3867,-2.42578 5.80078,-4.39454 l 0,2.35547 c -6.32814,6.86719 -11.00392,10.30078 -14.02734,10.30078 -1.0547,0 -1.91016,-0.41015 -2.56641,-1.23046 -0.63282,-0.82032 -0.94922,-1.875 -0.94922,-3.16407 0,-0.86718 0.17578,-1.89843 0.52734,-3.09375 0.375,-1.1953 1.03125,-2.99999 1.96875,-5.41406 -0.32812,0.28126 -0.64453,0.56251 -0.94921,0.84375 -0.28126,0.25782 -0.55079,0.50392 -0.8086,0.73828 -0.23438,0.21095 -0.49219,0.44532 -0.77344,0.70313 -0.28125,0.23438 -0.5625,0.48047 -0.84375,0.73828 l 0,-2.42578 c 2.46094,-2.06249 5.4375,-5.68358 8.92969,-10.86328 -0.35157,-0.0234 -0.67969,-0.0351 -0.98437,-0.0352 -0.3047,-0.0234 -0.66798,-0.0351 -1.08985,-0.0352 -1.38282,3e-5 -2.41406,0.0938 -3.09375,0.28125 -0.28125,0.0703 -0.55078,0.15237 -0.80859,0.2461 -0.23438,0.0703 -0.39844,0.10549 -0.49219,0.10547 -0.0937,2e-5 -0.14063,-0.0703 -0.14062,-0.21094 -1e-5,-0.77342 0.48046,-1.93357 1.4414,-3.48047 0.77344,-1.31247 1.5,-2.28513 2.17969,-2.91797 0.70312,-0.63278 1.54687,-1.05466 2.53125,-1.26562 1.0078,-0.23435 2.41405,-0.35154 4.21875,-0.35157"
         style="font-size:72px;font-style:italic;font-weight:bold;font-family:Brush Script MT;-inkscape-font-specification:Brush Script MT Bold Italic"
         id="path3060" /><path
         d="m 204.59501,435.75705 0,2.35547 c -2.50783,2.46094 -4.55861,4.3711 -6.15234,5.73047 -1.57033,1.35937 -3.04689,2.41406 -4.42969,3.16406 -1.35939,0.75 -2.69532,1.125 -4.00781,1.125 -1.28907,0 -2.47267,-0.50391 -3.55079,-1.51172 -1.07812,-1.03125 -1.92187,-2.36718 -2.53125,-4.00781 -0.60937,-1.66406 -0.91406,-3.42187 -0.91406,-5.27344 0,-1.59374 0.35156,-3.01171 1.05469,-4.25391 0.70312,-1.24217 2.0625,-2.84764 4.07812,-4.8164 2.39062,-2.34373 4.60546,-4.14842 6.64454,-5.41406 2.06248,-1.28904 3.67967,-1.93357 4.85156,-1.9336 0.84373,3e-5 1.55857,0.293 2.14453,0.87891 0.58592,0.58596 0.87889,1.32424 0.87891,2.21484 -2e-5,0.75002 -0.38674,1.81643 -1.16016,3.19922 -0.77346,1.38283 -1.64064,2.58986 -2.60156,3.62109 -0.96096,1.00783 -1.72267,1.51174 -2.28516,1.51172 -0.60939,2e-5 -0.91408,-0.32811 -0.91406,-0.98437 0.0234,-0.18749 0.0351,-0.36327 0.0351,-0.52735 0.0234,-0.16404 0.0352,-0.3281 0.0352,-0.49218 -1e-5,-0.28124 -0.10548,-0.43358 -0.31641,-0.45703 -0.18751,-0.0469 -0.42188,0.0352 -0.70312,0.24609 -2.34376,1.64064 -3.94923,2.80079 -4.81641,3.48047 -0.86719,0.65626 -1.5586,1.32423 -2.07422,2.0039 -0.49219,0.6797 -0.73828,1.39455 -0.73828,2.14454 0,1.38282 0.44531,2.50781 1.33594,3.375 0.89062,0.86719 2.05077,1.30078 3.48047,1.30078 1.47655,0 3.24608,-0.5625 5.30859,-1.6875 2.08592,-1.14843 4.53514,-2.81249 7.34766,-4.99219"
         style="font-size:72px;font-style:italic;font-weight:bold;font-family:Brush Script MT;-inkscape-font-specification:Brush Script MT Bold Italic"
         id="path3062" /><path
         d="m 230.82157,435.68674 0,2.21484 c -2.03909,2.08595 -3.80862,3.79688 -5.30859,5.13281 -1.47658,1.31251 -2.77736,2.3086 -3.90235,2.98828 -1.10158,0.67969 -2.03907,1.01954 -2.8125,1.01954 -1.82813,0 -2.7422,-1.07813 -2.74218,-3.23438 -2e-5,-1.73437 0.56248,-3.73827 1.6875,-6.01172 1.14842,-2.29686 2.78904,-4.99217 4.92187,-8.08594 -1.0547,0.58596 -2.0508,1.26565 -2.98828,2.03907 -0.93751,0.75001 -1.76955,1.54689 -2.49609,2.39062 -0.72658,0.82033 -1.33595,1.52345 -1.82813,2.10938 -1.52345,1.71094 -2.98829,3.46875 -4.39453,5.27343 -1.40626,1.78126 -2.35547,2.94141 -2.84766,3.48047 -0.49219,0.53907 -0.96094,0.8086 -1.40625,0.8086 -1.82812,0 -2.74218,-2.25 -2.74218,-6.75 0,-1.47656 0.22265,-3.10546 0.66797,-4.88672 0.44531,-1.78124 1.64062,-4.1367 3.58593,-7.06641 4.10156,-6.1406 7.60546,-11.15622 10.51172,-15.04687 2.92967,-3.91403 5.35545,-6.86715 7.27735,-8.85938 1.92185,-2.01558 3.21091,-2.99995 3.86718,-2.95312 0.82029,0.0704 1.47654,0.23442 1.96875,0.49218 0.5156,0.25786 0.77341,0.55083 0.77344,0.87891 -3e-5,0.58598 -0.41018,1.55864 -1.23047,2.91797 -0.7969,1.33598 -2.17971,3.43363 -4.14844,6.29297 -2.13283,3.02347 -3.64455,5.15628 -4.53515,6.39844 -0.89065,1.21877 -2.22658,2.96487 -4.00781,5.23828 -1.75783,2.25002 -3.37502,4.26564 -4.85157,6.04687 -1.45313,1.75783 -3.11719,3.66799 -4.99218,5.73047 l 0,4.21875 c 3.14061,-3.49217 5.85936,-6.35155 8.15625,-8.57812 2.29685,-2.22655 4.24217,-3.90233 5.83593,-5.02735 1.59373,-1.14841 2.76561,-1.72263 3.51563,-1.72265 0.7031,2e-5 1.35935,0.42189 1.96875,1.26562 0.60935,0.82033 0.91403,1.50002 0.91406,2.03906 -3e-5,0.2344 -0.11721,0.52737 -0.35156,0.87891 -1.68753,2.01564 -3.03518,3.69142 -4.04297,5.02734 -0.9844,1.31252 -1.74611,2.49611 -2.28516,3.55078 -0.53908,1.03126 -0.80861,1.92189 -0.80859,2.67188 -2e-5,1.10157 0.52732,1.65235 1.58203,1.65234 1.12498,1e-5 3.62107,-1.51171 7.48828,-4.53515"
         style="font-size:72px;font-style:italic;font-weight:bold;font-family:Brush Script MT;-inkscape-font-specification:Brush Script MT Bold Italic"
         id="path3064" /><path
         d="m 245.23563,419.97189 c -0.58595,3e-5 -1.14845,-0.22263 -1.6875,-0.66797 -0.51563,-0.44528 -0.77345,-1.00778 -0.77343,-1.6875 -2e-5,-1.03122 0.49217,-2.17965 1.47656,-3.44531 0.98436,-1.26559 2.00389,-1.8984 3.05859,-1.89844 0.70311,4e-5 1.28905,0.2227 1.75782,0.66797 0.46873,0.42191 0.7031,1.043 0.70312,1.86328 -2e-5,1.00785 -0.48049,2.12113 -1.44141,3.33985 -0.96095,1.21878 -1.9922,1.82815 -3.09375,1.82812 m 2.39063,15.71485 0,2.5664 c -2.27345,2.9297 -4.39455,5.14454 -6.36328,6.64453 -1.96876,1.47657 -3.64454,2.21485 -5.02735,2.21485 -1.92188,0 -3.35156,-1.00781 -4.28906,-3.02344 -0.9375,-2.01562 -1.40625,-4.21874 -1.40625,-6.60937 0,-0.91406 0.0937,-1.78124 0.28125,-2.60157 0.1875,-0.84373 0.41016,-1.53514 0.66797,-2.07422 0.25781,-0.53904 0.73828,-1.38279 1.44141,-2.53125 3.32812,-5.17966 6.37499,-7.7695 9.14062,-7.76953 1.42968,3e-5 2.14452,0.55081 2.14453,1.65235 -1e-5,0.75002 -0.46876,1.92189 -1.40625,3.51562 -0.91407,1.59377 -1.73438,2.73049 -2.46093,3.41016 -2.03908,1.96876 -3.37501,3.33985 -4.00782,4.11328 -0.60938,0.77345 -0.91407,1.65235 -0.91406,2.63672 -1e-5,0.84376 0.3164,1.54688 0.94922,2.10937 0.6328,0.56251 1.45312,0.84376 2.46094,0.84375 1.10155,1e-5 2.30858,-0.39843 3.62109,-1.19531 1.33592,-0.8203 3.05858,-2.12108 5.16797,-3.90234"
         style="font-size:72px;font-style:italic;font-weight:bold;font-family:Brush Script MT;-inkscape-font-specification:Brush Script MT Bold Italic"
         id="path3066" /><path
         d="m 270.97001,429.32346 c -4.12502,4.59376 -6.18752,7.79297 -6.1875,9.59765 -2e-5,1.00782 0.41014,1.51173 1.23047,1.51172 0.67967,10e-6 1.55857,-0.35156 2.63672,-1.05469 1.10154,-0.72655 2.81247,-2.00389 5.13281,-3.83203 l 0,2.42578 c -3.32815,3.28126 -5.88283,5.64844 -7.66406,7.10157 -1.78127,1.45312 -3.23439,2.17968 -4.35938,2.17968 -1.92189,0 -2.88282,-1.26562 -2.88281,-3.79687 -10e-6,-0.75 0.11717,-1.48828 0.35156,-2.21485 0.23436,-0.72655 0.55077,-1.47655 0.94922,-2.25 0.42186,-0.79686 1.05467,-1.92186 1.89844,-3.375 0.84373,-1.47655 1.81639,-3.14061 2.91797,-4.99218 -1.33596,0.6797 -3.01174,2.02735 -5.02735,4.04297 -1.31251,1.26563 -2.42579,2.47266 -3.33984,3.62109 -0.91407,1.12501 -1.89845,2.39063 -2.95313,3.79687 -1.03125,1.38282 -1.79297,2.32032 -2.28515,2.8125 -0.46876,0.46876 -0.94922,0.70313 -1.44141,0.70313 -0.75,0 -1.44141,-0.78515 -2.07422,-2.35547 -0.63281,-1.57031 -0.94922,-3.39843 -0.94922,-5.48437 0,-1.28906 0.14063,-2.29687 0.42188,-3.02344 0.30469,-0.72655 0.89062,-1.7578 1.75781,-3.09375 1.61718,-2.48436 3.01171,-4.30076 4.1836,-5.44922 1.17186,-1.17185 2.29686,-1.75779 3.375,-1.75781 0.74998,2e-5 1.34764,0.12893 1.79296,0.38672 0.46874,0.25783 0.70312,0.65627 0.70313,1.19531 -10e-6,0.23439 -0.0703,0.48049 -0.21094,0.73828 -0.14064,0.25783 -0.3047,0.49221 -0.49219,0.70312 -0.16407,0.21096 -0.52735,0.62112 -1.08984,1.23047 -3.70313,4.10158 -5.55469,6.76173 -5.55469,7.98047 0,0.6797 0.22265,1.01954 0.66797,1.01953 0.28125,1e-5 0.82031,-0.4453 1.61719,-1.33593 0.8203,-0.91406 1.86327,-2.09765 3.12891,-3.55079 1.28905,-1.47654 2.80076,-3.0117 4.53515,-4.60546 1.7578,-1.59373 3.74998,-3.12889 5.97656,-4.60547 1.24217,-0.86717 2.27342,-1.30076 3.09375,-1.30078 0.37498,2e-5 0.73826,0.51564 1.08985,1.54687 0.37497,1.03127 0.56247,2.07424 0.5625,3.12891 -3e-5,0.51564 -0.50393,1.3008 -1.51172,2.35547"
         style="font-size:72px;font-style:italic;font-weight:bold;font-family:Brush Script MT;-inkscape-font-specification:Brush Script MT Bold Italic"
         id="path3068" /><path
         d="m 301.52079,438.04221 -11.67187,9.59765 c -3.28127,5.67187 -6.26955,9.90234 -8.96485,12.69141 -2.69532,2.81248 -4.69922,4.21873 -6.01172,4.21875 -0.70312,-2e-5 -1.05469,-0.43361 -1.05468,-1.30078 -1e-5,-1.68752 0.85546,-3.84377 2.5664,-6.46875 0.67968,-1.03126 1.45312,-2.03907 2.32031,-3.02344 0.89062,-0.98438 1.72265,-1.83985 2.4961,-2.56641 0.79686,-0.70313 1.83983,-1.59375 3.1289,-2.67187 1.28905,-1.05469 2.16796,-1.78125 2.63672,-2.17969 2.34374,-4.78124 4.03123,-8.43749 5.0625,-10.96875 -2.20314,2.34376 -4.12501,4.26563 -5.76562,5.76563 -1.64064,1.5 -3.15236,2.66016 -4.53516,3.48046 -1.35938,0.79688 -2.58985,1.19532 -3.6914,1.19532 -1.19532,0 -2.29688,-0.94922 -3.30469,-2.84766 -1.00782,-1.92187 -1.51172,-3.89062 -1.51172,-5.90625 0,-0.93749 0.21094,-1.92186 0.63281,-2.95312 0.44531,-1.03124 1.125,-2.1328 2.03906,-3.30469 0.9375,-1.17186 2.12109,-2.36717 3.55079,-3.58594 1.42967,-1.24217 3.10545,-2.4492 5.02734,-3.62109 3.6328,-2.27341 6.45701,-3.41013 8.47266,-3.41016 1.49997,3e-5 2.24997,0.55081 2.25,1.65234 -3e-5,1.52347 -1.62893,3.01175 -4.88672,4.46485 -1.99221,0.86721 -3.97267,2.01564 -5.94141,3.44531 -1.94532,1.4297 -3.52735,2.95314 -4.74609,4.57031 -1.19532,1.59376 -1.79298,3.03517 -1.79297,4.32422 -1e-5,0.63282 0.15234,1.13673 0.45703,1.51172 0.30468,0.37501 0.70312,0.56251 1.19531,0.5625 0.82031,10e-6 1.75781,-0.37499 2.8125,-1.125 1.05468,-0.74999 2.61327,-2.07421 4.67578,-3.97266 0.93749,-0.86717 2.17967,-2.2617 3.72657,-4.18359 1.57029,-1.94529 2.85935,-3.42186 3.86718,-4.42969 1.03123,-1.03123 1.95701,-1.54685 2.77735,-1.54687 0.46872,2e-5 0.84372,0.15236 1.125,0.45703 0.30466,0.28127 0.457,0.70314 0.45703,1.26562 -3e-5,1.07815 -0.43362,2.64846 -1.30078,4.71094 -0.84378,2.03908 -2.37893,5.39064 -4.60547,10.05469 l 8.50781,-6.1875 0,2.28516"
         style="font-size:72px;font-style:italic;font-weight:bold;font-family:Brush Script MT;-inkscape-font-specification:Brush Script MT Bold Italic"
         id="path3070" /><path
         d="m 326.51688,446.90158 c -0.39844,0 -0.73828,-0.15234 -1.01953,-0.45703 -0.28125,-0.30469 -0.42188,-0.72656 -0.42187,-1.26563 -1e-5,-0.42187 0.24609,-1.17187 0.73828,-2.25 0.51562,-1.10155 1.14843,-2.07421 1.89844,-2.91796 0.77343,-0.86718 1.5703,-1.30078 2.39062,-1.30079 1.0078,10e-6 1.51171,0.59767 1.51172,1.79297 -10e-6,0.65626 -0.26954,1.51173 -0.80859,2.56641 -0.53908,1.03125 -1.20704,1.9336 -2.00391,2.70703 -0.79688,0.75 -1.5586,1.125 -2.28516,1.125"
         style="font-size:72px;font-style:italic;font-weight:bold;font-family:Brush Script MT;-inkscape-font-specification:Brush Script MT Bold Italic"
         id="path3072" /><path
         d="m 350.56376,446.90158 c -0.39844,0 -0.73829,-0.15234 -1.01953,-0.45703 -0.28126,-0.30469 -0.42188,-0.72656 -0.42188,-1.26563 0,-0.42187 0.24609,-1.17187 0.73828,-2.25 0.51562,-1.10155 1.14844,-2.07421 1.89844,-2.91796 0.77343,-0.86718 1.57031,-1.30078 2.39063,-1.30079 1.0078,10e-6 1.5117,0.59767 1.51172,1.79297 -2e-5,0.65626 -0.26955,1.51173 -0.8086,2.56641 -0.53907,1.03125 -1.20704,1.9336 -2.0039,2.70703 -0.79689,0.75 -1.5586,1.125 -2.28516,1.125"
         style="font-size:72px;font-style:italic;font-weight:bold;font-family:Brush Script MT;-inkscape-font-specification:Brush Script MT Bold Italic"
         id="path3074" /><path
         d="m 374.61063,446.90158 c -0.39844,0 -0.73828,-0.15234 -1.01953,-0.45703 -0.28125,-0.30469 -0.42188,-0.72656 -0.42187,-1.26563 -1e-5,-0.42187 0.24609,-1.17187 0.73828,-2.25 0.51562,-1.10155 1.14843,-2.07421 1.89844,-2.91796 0.77343,-0.86718 1.5703,-1.30078 2.39062,-1.30079 1.0078,10e-6 1.51171,0.59767 1.51172,1.79297 -10e-6,0.65626 -0.26954,1.51173 -0.80859,2.56641 -0.53908,1.03125 -1.20704,1.9336 -2.00391,2.70703 -0.79688,0.75 -1.5586,1.125 -2.28516,1.125"
         style="font-size:72px;font-style:italic;font-weight:bold;font-family:Brush Script MT;-inkscape-font-specification:Brush Script MT Bold Italic"
         id="path3076" /></g></g><g
     inkscape:groupmode="layer"
     id="layer3"
     inkscape:label="HideMe"
     style="display:none"
     transform="translate(78.18119,4.6628881)"
     sodipodi:insensitive="true" /></svg>