<?xml version="1.0" encoding="UTF-8" standalone="no"?>
<!-- Created with Inkscape (http://www.inkscape.org/) -->

<svg
   xmlns:dc="http://purl.org/dc/elements/1.1/"
   xmlns:cc="http://creativecommons.org/ns#"
   xmlns:rdf="http://www.w3.org/1999/02/22-rdf-syntax-ns#"
   xmlns:svg="http://www.w3.org/2000/svg"
   xmlns="http://www.w3.org/2000/svg"
   xmlns:xlink="http://www.w3.org/1999/xlink"
   xmlns:sodipodi="http://sodipodi.sourceforge.net/DTD/sodipodi-0.dtd"
   xmlns:inkscape="http://www.inkscape.org/namespaces/inkscape"
   width="588.18896"
   height="294.09448"
   id="svg2"
   version="1.1"
   inkscape:version="0.48.4 r9939"
   sodipodi:docname="GitDataFlow.3.svg">
  <sodipodi:namedview
     id="base"
     pagecolor="#ffffff"
     bordercolor="#ff0606"
     borderopacity="1"
     inkscape:pageopacity="1"
     inkscape:pageshadow="2"
     inkscape:zoom="2.017671"
     inkscape:cx="294.32287"
     inkscape:cy="144.11574"
     inkscape:document-units="mm"
     inkscape:current-layer="layer1"
     showgrid="true"
     units="mm"
     inkscape:showpageshadow="false"
     borderlayer="true"
     fit-margin-top="0"
     fit-margin-left="0"
     fit-margin-right="0"
     fit-margin-bottom="0"
     inkscape:window-width="1424"
     inkscape:window-height="737"
     inkscape:window-x="155"
     inkscape:window-y="55"
     inkscape:window-maximized="0"
     inkscape:snap-bbox="true"
     inkscape:bbox-paths="true"
     inkscape:snap-global="false"
     inkscape:snap-nodes="true">
    <inkscape:grid
       units="mm"
       originy="20.488222mm"
       originx="1.1288889mm"
       spacingy="2mm"
       spacingx="2mm"
       snapvisiblegridlinesonly="true"
       enabled="true"
       visible="true"
       empspacing="5"
       id="grid3002"
       type="xygrid" />
  </sodipodi:namedview>
  <defs
     id="defs4">
    <marker
       style="overflow:visible"
       id="Arrow2Lend"
       refX="0"
       refY="0"
       orient="auto"
       inkscape:stockid="Arrow2Lend">
      <path
         inkscape:connector-curvature="0"
         transform="matrix(-1.1,0,0,-1.1,-1.1,0)"
         d="M 8.7185878,4.0337352 -2.2072895,0.01601326 8.7185884,-4.0017078 c -1.7454984,2.3720609 -1.7354408,5.6174519 -6e-7,8.035443 z"
         style="fill-rule:evenodd;stroke-width:0.625;stroke-linejoin:round"
         id="path4450" />
    </marker>
    <marker
       style="overflow:visible"
       id="Arrow2Mend"
       refX="0"
       refY="0"
       orient="auto"
       inkscape:stockid="Arrow2Mend">
      <path
         inkscape:connector-curvature="0"
         transform="scale(-0.6,-0.6)"
         d="M 8.7185878,4.0337352 -2.2072895,0.01601326 8.7185884,-4.0017078 c -1.7454984,2.3720609 -1.7354408,5.6174519 -6e-7,8.035443 z"
         style="fill-rule:evenodd;stroke-width:0.625;stroke-linejoin:round"
         id="path4456" />
    </marker>
    <marker
       style="overflow:visible"
       id="Arrow1Mend"
       refX="0"
       refY="0"
       orient="auto"
       inkscape:stockid="Arrow1Mend">
      <path
         inkscape:connector-curvature="0"
         transform="matrix(-0.4,0,0,-0.4,-4,0)"
         style="fill-rule:evenodd;stroke:#000000;stroke-width:1pt"
         d="M 0,0 5,-5 -12.5,0 5,5 0,0 z"
         id="path4438" />
    </marker>
    <marker
       style="overflow:visible"
       id="Arrow1Lend"
       refX="0"
       refY="0"
       orient="auto"
       inkscape:stockid="Arrow1Lend">
      <path
         inkscape:connector-curvature="0"
         transform="matrix(-0.8,0,0,-0.8,-10,0)"
         style="fill-rule:evenodd;stroke:#000000;stroke-width:1pt"
         d="M 0,0 5,-5 -12.5,0 5,5 0,0 z"
         id="path4432" />
    </marker>
    <linearGradient
       inkscape:collect="always"
       id="linearGradient3501">
      <stop
         style="stop-color:#2d897a;stop-opacity:1"
         offset="0"
         id="stop3503" />
      <stop
         style="stop-color:#ffe9bb;stop-opacity:1"
         offset="1"
         id="stop3505" />
    </linearGradient>
    <linearGradient
       id="linearGradient3222"
       inkscape:collect="always">
      <stop
         id="stop3224"
         offset="0"
         style="stop-color:#92c7be;stop-opacity:1" />
      <stop
         id="stop3226"
         offset="1"
         style="stop-color:#6b4900;stop-opacity:1" />
    </linearGradient>
    <linearGradient
       y2="31.889753"
       x2="87.696861"
       y1="-60.236233"
       x1="59.350403"
       gradientTransform="matrix(1.1394611,0,0,0.58518512,-681.81649,529.05304)"
       gradientUnits="userSpaceOnUse"
       id="linearGradient3450"
       xlink:href="#linearGradient3888-9"
       inkscape:collect="always" />
    <linearGradient
       id="linearGradient3888-9"
       inkscape:collect="always">
      <stop
         id="stop3890-4"
         offset="0"
         style="stop-color:#888888;stop-opacity:1;" />
      <stop
         id="stop3892-6"
         offset="1"
         style="stop-color:#888888;stop-opacity:0;" />
    </linearGradient>
    <linearGradient
       y2="3.5432959"
       x2="123.12993"
       y1="-59.793339"
       x1="95.22641"
       gradientTransform="matrix(1.1394611,0,0,0.58518512,-681.81649,529.05304)"
       gradientUnits="userSpaceOnUse"
       id="linearGradient3452"
       xlink:href="#linearGradient3870-2"
       inkscape:collect="always" />
    <linearGradient
       id="linearGradient3870-2">
      <stop
         id="stop3872-0"
         offset="0"
         style="stop-color:#000250;stop-opacity:1;" />
      <stop
         id="stop3874-3"
         offset="1"
         style="stop-color:#000185;stop-opacity:0;" />
    </linearGradient>
    <linearGradient
       inkscape:collect="always"
       xlink:href="#linearGradient3888-9"
       id="linearGradient3196"
       gradientUnits="userSpaceOnUse"
       gradientTransform="matrix(1.1394611,0,0,0.58518512,-33.544783,977.08644)"
       x1="59.350403"
       y1="-60.236233"
       x2="87.696861"
       y2="31.889753" />
    <linearGradient
       inkscape:collect="always"
       xlink:href="#linearGradient3870-2"
       id="linearGradient3198"
       gradientUnits="userSpaceOnUse"
       gradientTransform="matrix(1.1394611,0,0,0.58518512,-33.544783,977.08644)"
       x1="95.22641"
       y1="-59.793339"
       x2="123.12993"
       y2="3.5432959" />
    <linearGradient
       inkscape:collect="always"
       xlink:href="#linearGradient3249"
       id="linearGradient3415"
       gradientUnits="userSpaceOnUse"
       gradientTransform="matrix(0.37876389,0,0,0.3066416,-659.35006,451.53492)"
       x1="131.85765"
       y1="-59.938171"
       x2="145.42229"
       y2="3.8477914" />
    <linearGradient
       id="linearGradient3249">
      <stop
         style="stop-color:#888888;stop-opacity:1;"
         offset="0"
         id="stop3251" />
      <stop
         style="stop-color:#ffffff;stop-opacity:1;"
         offset="1"
         id="stop3253" />
    </linearGradient>
    <linearGradient
       inkscape:collect="always"
       xlink:href="#linearGradient3870-2-8"
       id="linearGradient3417"
       gradientUnits="userSpaceOnUse"
       gradientTransform="matrix(0.37876389,0,0,0.3066416,-659.35006,451.53492)"
       x1="156.54872"
       y1="-71.377922"
       x2="171.44165"
       y2="8.1136484" />
    <linearGradient
       id="linearGradient3870-2-8">
      <stop
         id="stop3872-0-3"
         offset="0"
         style="stop-color:#000250;stop-opacity:1;" />
      <stop
         id="stop3874-3-7"
         offset="1"
         style="stop-color:#000185;stop-opacity:0;" />
    </linearGradient>
    <linearGradient
       y2="3.8477914"
       x2="145.42229"
       y1="-59.938171"
       x1="131.85765"
       gradientTransform="matrix(0.61529922,0,0,0.4888793,-47.261003,916.23077)"
       gradientUnits="userSpaceOnUse"
       id="linearGradient3097"
       xlink:href="#linearGradient3249"
       inkscape:collect="always" />
    <linearGradient
       y2="8.1136484"
       x2="171.44165"
       y1="-71.377922"
       x1="156.54872"
       gradientTransform="matrix(0.61529922,0,0,0.4888793,-47.261003,916.23077)"
       gradientUnits="userSpaceOnUse"
       id="linearGradient3099"
       xlink:href="#linearGradient3870-2-8"
       inkscape:collect="always" />
    <linearGradient
       y2="3.8477914"
       x2="145.42229"
       y1="-59.938171"
       x1="131.85765"
       gradientTransform="matrix(0.61529922,0,0,0.25184276,-25.992892,969.601)"
       gradientUnits="userSpaceOnUse"
       id="linearGradient3022"
       xlink:href="#linearGradient3249"
       inkscape:collect="always" />
    <linearGradient
       y2="8.1136484"
       x2="171.44165"
       y1="-71.377922"
       x1="156.54872"
       gradientTransform="matrix(0.61529922,0,0,0.25184276,-25.992892,969.601)"
       gradientUnits="userSpaceOnUse"
       id="linearGradient3024"
       xlink:href="#linearGradient3870-2-8"
       inkscape:collect="always" />
    <linearGradient
       inkscape:collect="always"
       xlink:href="#linearGradient3888-9-1"
       id="linearGradient3276"
       gradientUnits="userSpaceOnUse"
       gradientTransform="matrix(0.42947703,0,0,0.58518512,-22.205914,993.5323)"
       x1="59.350403"
       y1="-60.236233"
       x2="87.696861"
       y2="31.889753" />
    <linearGradient
       id="linearGradient3888-9-1"
       inkscape:collect="always">
      <stop
         id="stop3890-4-3"
         offset="0"
         style="stop-color:#888888;stop-opacity:1;" />
      <stop
         id="stop3892-6-2"
         offset="1"
         style="stop-color:#888888;stop-opacity:0;" />
    </linearGradient>
    <linearGradient
       inkscape:collect="always"
       xlink:href="#linearGradient3870-2-82"
       id="linearGradient3278"
       gradientUnits="userSpaceOnUse"
       gradientTransform="matrix(0.42947703,0,0,0.58518512,-22.205914,993.5323)"
       x1="95.22641"
       y1="-59.793339"
       x2="123.12993"
       y2="3.5432959" />
    <linearGradient
       id="linearGradient3870-2-82">
      <stop
         id="stop3872-0-2"
         offset="0"
         style="stop-color:#000250;stop-opacity:1;" />
      <stop
         id="stop3874-3-71"
         offset="1"
         style="stop-color:#000185;stop-opacity:0;" />
    </linearGradient>
    <marker
       inkscape:stockid="Arrow2Mendwj"
       orient="auto"
       refY="0"
       refX="0"
       id="Arrow2Mendwj"
       style="overflow:visible">
      <path
         inkscape:connector-curvature="0"
         id="path5949"
         style="fill:#2d897a;fill-rule:evenodd;stroke:#2d897a;stroke-width:0.625;stroke-linejoin:round"
         d="M 8.7185878,4.0337352 -2.2072895,0.01601326 8.7185884,-4.0017078 c -1.7454984,2.3720609 -1.7354408,5.6174519 -6e-7,8.035443 z"
         transform="scale(-0.6,-0.6)" />
    </marker>
    <linearGradient
       y2="31.889753"
       x2="87.696861"
       y1="-60.236233"
       x1="59.350403"
       gradientTransform="matrix(0.42947703,0,0,0.58518512,-20.149413,811.41726)"
       gradientUnits="userSpaceOnUse"
       id="linearGradient3391"
       xlink:href="#linearGradient3888-9-1"
       inkscape:collect="always" />
    <linearGradient
       y2="3.5432959"
       x2="123.12993"
       y1="-59.793339"
       x1="95.22641"
       gradientTransform="matrix(0.42947703,0,0,0.58518512,-20.149413,811.41726)"
       gradientUnits="userSpaceOnUse"
       id="linearGradient3393"
       xlink:href="#linearGradient3870-2-82"
       inkscape:collect="always" />
    <linearGradient
       y2="31.889753"
       x2="87.696861"
       y1="-60.236233"
       x1="59.350403"
       gradientTransform="matrix(0.42947703,0,0,0.58518512,263.48838,811.19143)"
       gradientUnits="userSpaceOnUse"
       id="linearGradient3395"
       xlink:href="#linearGradient3888-9-1"
       inkscape:collect="always" />
    <linearGradient
       y2="3.5432959"
       x2="123.12993"
       y1="-59.793339"
       x1="95.22641"
       gradientTransform="matrix(0.42947703,0,0,0.58518512,263.48838,811.19143)"
       gradientUnits="userSpaceOnUse"
       id="linearGradient3397"
       xlink:href="#linearGradient3870-2-82"
       inkscape:collect="always" />
    <linearGradient
       y2="31.889753"
       x2="87.696861"
       y1="-60.236233"
       x1="59.350403"
       gradientTransform="matrix(0.42947703,0,0,0.58518512,-20.149413,933.35346)"
       gradientUnits="userSpaceOnUse"
       id="linearGradient3399"
       xlink:href="#linearGradient3888-9-1"
       inkscape:collect="always" />
    <linearGradient
       y2="3.5432959"
       x2="123.12993"
       y1="-59.793339"
       x1="95.22641"
       gradientTransform="matrix(0.42947703,0,0,0.58518512,-20.149413,933.35346)"
       gradientUnits="userSpaceOnUse"
       id="linearGradient3401"
       xlink:href="#linearGradient3870-2-82"
       inkscape:collect="always" />
    <linearGradient
       y2="31.889753"
       x2="87.696861"
       y1="-60.236233"
       x1="59.350403"
       gradientTransform="matrix(0.42947703,0,0,0.58518512,263.48838,933.12763)"
       gradientUnits="userSpaceOnUse"
       id="linearGradient3403"
       xlink:href="#linearGradient3888-9-1"
       inkscape:collect="always" />
    <linearGradient
       y2="3.5432959"
       x2="123.12993"
       y1="-59.793339"
       x1="95.22641"
       gradientTransform="matrix(0.42947703,0,0,0.58518512,263.48838,933.12763)"
       gradientUnits="userSpaceOnUse"
       id="linearGradient3405"
       xlink:href="#linearGradient3870-2-82"
       inkscape:collect="always" />
    <linearGradient
       y2="31.889753"
       x2="87.696861"
       y1="-60.236233"
       x1="59.350403"
       gradientTransform="matrix(0.42947703,0,0,0.58518512,263.66161,1009.6166)"
       gradientUnits="userSpaceOnUse"
       id="linearGradient3086"
       xlink:href="#linearGradient3888-9-1"
       inkscape:collect="always" />
    <linearGradient
       y2="3.5432959"
       x2="123.12993"
       y1="-59.793339"
       x1="95.22641"
       gradientTransform="matrix(0.42947703,0,0,0.58518512,263.66161,1009.6166)"
       gradientUnits="userSpaceOnUse"
       id="linearGradient3088"
       xlink:href="#linearGradient3870-2-82"
       inkscape:collect="always" />
    <linearGradient
       y2="31.889753"
       x2="87.696861"
       y1="-60.236233"
       x1="59.350403"
       gradientTransform="matrix(0.42947703,0,0,0.58518512,-19.976183,1009.8424)"
       gradientUnits="userSpaceOnUse"
       id="linearGradient3092"
       xlink:href="#linearGradient3888-9-1"
       inkscape:collect="always" />
    <linearGradient
       y2="3.5432959"
       x2="123.12993"
       y1="-59.793339"
       x1="95.22641"
       gradientTransform="matrix(0.42947703,0,0,0.58518512,-19.976183,1009.8424)"
       gradientUnits="userSpaceOnUse"
       id="linearGradient3094"
       xlink:href="#linearGradient3870-2-82"
       inkscape:collect="always" />
    <linearGradient
       y2="31.889753"
       x2="87.696861"
       y1="-60.236233"
       x1="59.350403"
       gradientTransform="matrix(0.42947703,0,0,0.58518512,263.66161,887.68041)"
       gradientUnits="userSpaceOnUse"
       id="linearGradient3106"
       xlink:href="#linearGradient3888-9-1"
       inkscape:collect="always" />
    <linearGradient
       y2="3.5432959"
       x2="123.12993"
       y1="-59.793339"
       x1="95.22641"
       gradientTransform="matrix(0.42947703,0,0,0.58518512,263.66161,887.68041)"
       gradientUnits="userSpaceOnUse"
       id="linearGradient3108"
       xlink:href="#linearGradient3870-2-82"
       inkscape:collect="always" />
    <linearGradient
       y2="31.889753"
       x2="87.696861"
       y1="-60.236233"
       x1="59.350403"
       gradientTransform="matrix(0.42947703,0,0,0.58518512,-19.976183,887.90624)"
       gradientUnits="userSpaceOnUse"
       id="linearGradient3119"
       xlink:href="#linearGradient3888-9-1"
       inkscape:collect="always" />
    <linearGradient
       y2="3.5432959"
       x2="123.12993"
       y1="-59.793339"
       x1="95.22641"
       gradientTransform="matrix(0.42947703,0,0,0.58518512,-19.976183,887.90624)"
       gradientUnits="userSpaceOnUse"
       id="linearGradient3121"
       xlink:href="#linearGradient3870-2-82"
       inkscape:collect="always" />
    <linearGradient
       id="linearGradient3870-2-82-4">
      <stop
         id="stop3872-0-2-9"
         offset="0"
         style="stop-color:#000250;stop-opacity:1;" />
      <stop
         id="stop3874-3-71-1"
         offset="1"
         style="stop-color:#000185;stop-opacity:0;" />
    </linearGradient>
    <linearGradient
       id="linearGradient3433">
      <stop
         id="stop3435"
         offset="0"
         style="stop-color:#000250;stop-opacity:1;" />
      <stop
         id="stop3437"
         offset="1"
         style="stop-color:#000185;stop-opacity:0;" />
    </linearGradient>
    <linearGradient
       id="linearGradient3447">
      <stop
         id="stop3449"
         offset="0"
         style="stop-color:#000250;stop-opacity:1;" />
      <stop
         id="stop3451"
         offset="1"
         style="stop-color:#000185;stop-opacity:0;" />
    </linearGradient>
    <linearGradient
       id="linearGradient3461">
      <stop
         id="stop3463"
         offset="0"
         style="stop-color:#000250;stop-opacity:1;" />
      <stop
         id="stop3465"
         offset="1"
         style="stop-color:#000185;stop-opacity:0;" />
    </linearGradient>
    <marker
       inkscape:stockid="Arrow2Mendwj"
       orient="auto"
       refY="0"
       refX="0"
       id="Arrow2Mendwj-3"
       style="overflow:visible">
      <path
         inkscape:connector-curvature="0"
         id="path5949-0"
         style="fill:#2d897a;fill-rule:evenodd;stroke:#2d897a;stroke-width:0.625;stroke-linejoin:round"
         d="M 8.7185878,4.0337352 -2.2072895,0.01601326 8.7185884,-4.0017078 c -1.7454984,2.3720609 -1.7354408,5.6174519 -6e-7,8.035443 z"
         transform="scale(-0.6,-0.6)" />
    </marker>
    <linearGradient
       inkscape:collect="always"
       x1="248.07001"
       y1="224.94"
       gradientTransform="matrix(1.6732,0,0,1.1476,-203.14,-119.82)"
       x2="230.58"
       gradientUnits="userSpaceOnUse"
       xlink:href="#linearGradient11462"
       y2="244.74001"
       id="linearGradient9351" />
    <linearGradient
       id="linearGradient11462">
      <stop
         offset="0"
         style="stop-color:#80ff26"
         id="stop11464" />
      <stop
         offset="1"
         style="stop-color:#2c9600"
         id="stop11466" />
    </linearGradient>
    <linearGradient
       inkscape:collect="always"
       xlink:href="#linearGradient11462"
       id="linearGradient3009"
       gradientUnits="userSpaceOnUse"
       gradientTransform="matrix(1.6732,0,0,1.1476,-311.31886,895.73983)"
       x1="248.07001"
       y1="224.94"
       x2="230.58"
       y2="244.74001" />
    <marker
       style="overflow:visible"
       id="Arrow2MendF"
       refX="0"
       refY="0"
       orient="auto"
       inkscape:stockid="Arrow2MendF">
      <path
         inkscape:connector-curvature="0"
         transform="scale(-0.6,-0.6)"
         d="M 8.7185878,4.0337352 -2.2072895,0.01601326 8.7185884,-4.0017078 c -1.7454984,2.3720609 -1.7354408,5.6174519 -6e-7,8.035443 z"
         style="fill:#2d897a;fill-rule:evenodd;stroke:#2d897a;stroke-width:0.625;stroke-linejoin:round"
         id="path5532" />
    </marker>
    <linearGradient
       inkscape:collect="always"
       xlink:href="#linearGradient3501"
       id="linearGradient5835"
       gradientUnits="userSpaceOnUse"
       gradientTransform="matrix(1.5050422,0,0,0.82608685,-82.442224,91.355855)"
       x1="167.78331"
       y1="1103.2739"
       x2="191.32622"
       y2="1129.0095" />
    <linearGradient
       inkscape:collect="always"
       xlink:href="#linearGradient3222"
       id="linearGradient5837"
       gradientUnits="userSpaceOnUse"
       gradientTransform="matrix(1.5050422,0,0,0.82608685,-82.442224,91.355855)"
       x1="99.212601"
       y1="1137.4016"
       x2="240.94489"
       y2="1094.882" />
    <marker
       style="overflow:visible"
       id="Arrow2MendFn"
       refX="0"
       refY="0"
       orient="auto"
       inkscape:stockid="Arrow2MendFn">
      <path
         inkscape:connector-curvature="0"
         transform="scale(-0.6,-0.6)"
         d="M 8.7185878,4.0337352 -2.2072895,0.01601326 8.7185884,-4.0017078 c -1.7454984,2.3720609 -1.7354408,5.6174519 -6e-7,8.035443 z"
         style="fill:#666666;fill-rule:evenodd;stroke:#666666;stroke-width:0.625;stroke-linejoin:round"
         id="path5935" />
    </marker>
    <marker
       style="overflow:visible"
       id="Arrow2Lend1"
       refX="0"
       refY="0"
       orient="auto"
       inkscape:stockid="Arrow2Lend1">
      <path
         inkscape:connector-curvature="0"
         transform="matrix(-1.1,0,0,-1.1,-1.1,0)"
         d="M 8.7185878,4.0337352 -2.2072895,0.01601326 8.7185884,-4.0017078 c -1.7454984,2.3720609 -1.7354408,5.6174519 -6e-7,8.035443 z"
         style="fill:#666666;fill-rule:evenodd;stroke:#666666;stroke-width:0.625;stroke-linejoin:round"
         id="path6562" />
    </marker>
    <marker
       style="overflow:visible"
       id="Arrow2MendE"
       refX="0"
       refY="0"
       orient="auto"
       inkscape:stockid="Arrow2MendE">
      <path
         inkscape:connector-curvature="0"
         transform="scale(-0.6,-0.6)"
         d="M 8.7185878,4.0337352 -2.2072895,0.01601326 8.7185884,-4.0017078 c -1.7454984,2.3720609 -1.7354408,5.6174519 -6e-7,8.035443 z"
         style="fill:#666666;fill-rule:evenodd;stroke:#666666;stroke-width:0.625;stroke-linejoin:round"
         id="path7183" />
    </marker>
    <marker
       style="overflow:visible"
       id="Arrow2MendE-4"
       refX="0"
       refY="0"
       orient="auto"
       inkscape:stockid="Arrow2MendE">
      <path
         inkscape:connector-curvature="0"
         transform="scale(-0.6,-0.6)"
         d="M 8.7185878,4.0337352 -2.2072895,0.01601326 8.7185884,-4.0017078 c -1.7454984,2.3720609 -1.7354408,5.6174519 -6e-7,8.035443 z"
         style="fill:#666666;fill-rule:evenodd;stroke:#666666;stroke-width:0.625;stroke-linejoin:round"
         id="path7183-9" />
    </marker>
    <marker
       style="overflow:visible"
       id="Arrow2Mendd"
       refX="0"
       refY="0"
       orient="auto"
       inkscape:stockid="Arrow2Mendd">
      <path
         inkscape:connector-curvature="0"
         transform="scale(-0.6,-0.6)"
         d="M 8.7185878,4.0337352 -2.2072895,0.01601326 8.7185884,-4.0017078 c -1.7454984,2.3720609 -1.7354408,5.6174519 -6e-7,8.035443 z"
         style="fill:#666666;fill-rule:evenodd;stroke:#666666;stroke-width:0.625;stroke-linejoin:round"
         id="path4371" />
    </marker>
    <marker
       style="overflow:visible"
       id="Arrow2Mend5"
       refX="0"
       refY="0"
       orient="auto"
       inkscape:stockid="Arrow2Mend5">
      <path
         inkscape:connector-curvature="0"
         transform="scale(-0.6,-0.6)"
         d="M 8.7185878,4.0337352 -2.2072895,0.01601326 8.7185884,-4.0017078 c -1.7454984,2.3720609 -1.7354408,5.6174519 -6e-7,8.035443 z"
         style="fill:#666666;fill-rule:evenodd;stroke:#666666;stroke-width:0.625;stroke-linejoin:round"
         id="path4307" />
    </marker>
    <marker
       style="overflow:visible"
       id="Arrow2Mendm"
       refX="0"
       refY="0"
       orient="auto"
       inkscape:stockid="Arrow2Mendm">
      <path
         inkscape:connector-curvature="0"
         transform="scale(-0.6,-0.6)"
         d="M 8.7185878,4.0337352 -2.2072895,0.01601326 8.7185884,-4.0017078 c -1.7454984,2.3720609 -1.7354408,5.6174519 -6e-7,8.035443 z"
         style="fill:#666666;fill-rule:evenodd;stroke:#666666;stroke-width:0.625;stroke-linejoin:round"
         id="path4344" />
    </marker>
  </defs>
  <metadata
     id="metadata7">
    <rdf:RDF>
      <cc:Work
         rdf:about="">
        <dc:format>image/svg+xml</dc:format>
        <dc:type
           rdf:resource="http://purl.org/dc/dcmitype/StillImage" />
        <dc:title />
      </cc:Work>
    </rdf:RDF>
  </metadata>
  <g
     style="display:inline"
     transform="translate(11.086615,-837.95045)"
     inkscape:label="Background"
     id="layer2"
     inkscape:groupmode="layer" />
  <g
     style="display:inline"
     transform="translate(11.086615,-837.95045)"
     id="layer1"
     inkscape:groupmode="layer"
     inkscape:label="Layer 1">
    <rect
       ry="10.629921"
       rx="10.629923"
       y="1094.6339"
       x="207.23209"
       height="33.661419"
       width="365.44116"
       id="rect3091"
       style="fill:#f2b1c1;fill-opacity:1;stroke:#620018;stroke-width:1.77165341;stroke-miterlimit:4;stroke-opacity:1;stroke-dasharray:none" />
    <rect
       style="fill:#92c7be;fill-opacity:1;stroke:#004438;stroke-width:1.77165353;stroke-miterlimit:4;stroke-opacity:1;stroke-dasharray:none"
       id="rect3106"
       width="281.6929"
       height="33.661438"
       x="-6.2007875"
       y="847.56305"
       rx="10.629921"
       ry="10.629921" />
    <text
       xml:space="preserve"
       style="font-size:14px;font-style:normal;font-variant:normal;font-weight:normal;font-stretch:normal;text-align:center;text-anchor:middle;fill:#620018;fill-opacity:1;stroke:none;display:inline;font-family:DejaVu Sans;-inkscape-font-specification:DejaVu Sans"
       x="381.811"
       y="1117.0078"
       id="text3090"><tspan
         style="font-size:16px;text-align:center;text-anchor:middle;fill:#620018"
         id="tspan3302"
         sodipodi:role="line"
         x="381.811"
         y="1117.0078">Working directory, from HEAD</tspan></text>
    <g
       id="text3261"
       style="font-size:14px;font-style:normal;font-variant:normal;font-weight:normal;font-stretch:normal;text-align:center;text-anchor:middle;fill:#004438;fill-opacity:1;stroke:none;display:inline;font-family:DejaVu Sans;-inkscape-font-specification:DejaVu Sans">
      <path
         id="path4605"
         style="font-size:16px;font-weight:bold;fill:#004438;-inkscape-font-specification:DejaVu Sans Bold"
         d="m 56.309738,861.44489 c 0.630202,0 1.080723,-0.11719 1.351563,-0.35157 0.276034,-0.23437 0.414055,-0.61978 0.414062,-1.15625 -7e-6,-0.53124 -0.138028,-0.91145 -0.414062,-1.14062 -0.27084,-0.22916 -0.721361,-0.34374 -1.351563,-0.34375 l -1.265625,0 0,2.99219 1.265625,0 m -1.265625,2.07812 0,4.41406 -3.007812,0 0,-11.66406 4.59375,0 c 1.53645,10e-6 2.661449,0.25782 3.375,0.77344 0.71874,0.51563 1.078114,1.33074 1.078125,2.44531 -1.1e-5,0.77084 -0.187511,1.40365 -0.5625,1.89844 -0.369802,0.4948 -0.929697,0.85938 -1.679688,1.09375 0.41145,0.0937 0.778637,0.30729 1.101563,0.64062 0.328115,0.32813 0.658844,0.82813 0.992187,1.5 l 1.632813,3.3125 -3.203125,0 -1.421875,-2.89843 c -0.286466,-0.58333 -0.578132,-0.98177 -0.875,-1.19532 -0.291673,-0.21353 -0.682298,-0.32031 -1.171875,-0.32031 l -0.851563,0"
         inkscape:connector-curvature="0" />
      <path
         id="path4607"
         style="font-size:16px;font-weight:bold;fill:#004438;-inkscape-font-specification:DejaVu Sans Bold"
         d="m 72.958176,863.53864 0,0.79687 -6.539063,0 c 0.06771,0.65625 0.304684,1.14844 0.710938,1.47656 0.406245,0.32813 0.973953,0.49219 1.703125,0.49219 0.588535,0 1.190097,-0.0859 1.804687,-0.25781 0.619783,-0.17708 1.255199,-0.44271 1.90625,-0.79688 l 0,2.15625 c -0.661467,0.25 -1.322925,0.4375 -1.984375,0.5625 -0.661465,0.13021 -1.322923,0.19532 -1.984375,0.19532 -1.583337,0 -2.815107,-0.40105 -3.695312,-1.20313 -0.875001,-0.80729 -1.312501,-1.9375 -1.3125,-3.39062 -1e-6,-1.42708 0.429686,-2.54948 1.289062,-3.36719 0.864581,-0.8177 2.052079,-1.22656 3.5625,-1.22656 1.374993,0 2.47395,0.41407 3.296875,1.24218 0.828115,0.82813 1.242178,1.9349 1.242188,3.32032 m -2.875,-0.92969 c -8e-6,-0.53125 -0.156257,-0.95833 -0.46875,-1.28125 -0.307298,-0.32812 -0.710944,-0.49218 -1.210938,-0.49219 -0.541671,10e-6 -0.981775,0.15365 -1.320312,0.46094 -0.338546,0.30209 -0.549483,0.73959 -0.632813,1.3125 l 3.632813,0"
         inkscape:connector-curvature="0" />
      <path
         id="path4609"
         style="font-size:16px;font-weight:bold;fill:#004438;-inkscape-font-specification:DejaVu Sans Bold"
         d="m 83.176926,860.6402 c 0.354157,-0.54166 0.773427,-0.95312 1.257812,-1.23438 0.489572,-0.28645 1.02603,-0.42968 1.609375,-0.42968 1.005195,0 1.770819,0.3099 2.296875,0.92968 0.526027,0.6198 0.789047,1.52084 0.789063,2.70313 l 0,5.32812 -2.8125,0 0,-4.5625 c 0.0052,-0.0677 0.0078,-0.13801 0.0078,-0.21093 0.0052,-0.0729 0.0078,-0.17708 0.0078,-0.3125 -1.3e-5,-0.61979 -0.09116,-1.06771 -0.273438,-1.34375 -0.182304,-0.28125 -0.476574,-0.42187 -0.882812,-0.42188 -0.531261,10e-6 -0.942719,0.21876 -1.234375,0.65625 -0.286469,0.43751 -0.434906,1.07032 -0.445313,1.89844 l 0,4.29687 -2.8125,0 0,-4.5625 c -7e-6,-0.96874 -0.08334,-1.59114 -0.25,-1.86718 -0.166673,-0.28125 -0.463548,-0.42187 -0.890625,-0.42188 -0.536463,10e-6 -0.950526,0.22136 -1.242187,0.66406 -0.291671,0.43751 -0.437504,1.06511 -0.4375,1.88282 l 0,4.30468 -2.8125,0 0,-8.75 2.8125,0 0,1.28125 c 0.343745,-0.49478 0.736974,-0.86718 1.179687,-1.11718 0.447911,-0.25 0.940098,-0.375 1.476563,-0.375 0.604159,0 1.138013,0.14584 1.601562,0.4375 0.463533,0.29167 0.815095,0.70052 1.054688,1.22656"
         inkscape:connector-curvature="0" />
      <path
         id="path4611"
         style="font-size:16px;font-weight:bold;fill:#004438;-inkscape-font-specification:DejaVu Sans Bold"
         d="m 95.919113,860.97614 c -0.619796,0 -1.093754,0.22396 -1.421875,0.67187 -0.32292,0.44271 -0.484378,1.08334 -0.484375,1.92188 -3e-6,0.83854 0.161455,1.48177 0.484375,1.92968 0.328121,0.44271 0.802079,0.66407 1.421875,0.66407 0.609369,0 1.075514,-0.22136 1.398438,-0.66407 0.322909,-0.44791 0.484367,-1.09114 0.484375,-1.92968 -8e-6,-0.83854 -0.161466,-1.47917 -0.484375,-1.92188 -0.322924,-0.44791 -0.789069,-0.67187 -1.398438,-0.67187 m 0,-2 c 1.505201,0 2.679679,0.40625 3.523438,1.21875 0.848949,0.8125 1.273429,1.9375 1.273439,3.375 -1e-5,1.4375 -0.42449,2.5625 -1.273439,3.375 -0.843759,0.8125 -2.018237,1.21875 -3.523438,1.21875 -1.510421,0 -2.692711,-0.40625 -3.546875,-1.21875 -0.848959,-0.8125 -1.273438,-1.9375 -1.273437,-3.375 -10e-7,-1.4375 0.424478,-2.5625 1.273437,-3.375 0.854164,-0.8125 2.036454,-1.21875 3.546875,-1.21875"
         inkscape:connector-curvature="0" />
      <path
         id="path4613"
         style="font-size:16px;font-weight:bold;fill:#004438;-inkscape-font-specification:DejaVu Sans Bold"
         d="m 105.80974,856.7027 0,2.48437 2.88281,0 0,2 -2.88281,0 0,3.71094 c -1e-5,0.40625 0.0807,0.68229 0.24219,0.82813 0.16145,0.14062 0.48176,0.21093 0.96093,0.21093 l 1.4375,0 0,2 -2.39843,0 c -1.10417,0 -1.88803,-0.22916 -2.35157,-0.6875 -0.45833,-0.46354 -0.6875,-1.24739 -0.6875,-2.35156 l 0,-3.71094 -1.39062,0 0,-2 1.39062,0 0,-2.48437 2.79688,0"
         inkscape:connector-curvature="0" />
      <path
         id="path4615"
         style="font-size:16px;font-weight:bold;fill:#004438;-inkscape-font-specification:DejaVu Sans Bold"
         d="m 119.14568,863.53864 0,0.79687 -6.53907,0 c 0.0677,0.65625 0.30469,1.14844 0.71094,1.47656 0.40625,0.32813 0.97395,0.49219 1.70313,0.49219 0.58853,0 1.19009,-0.0859 1.80468,-0.25781 0.61979,-0.17708 1.2552,-0.44271 1.90625,-0.79688 l 0,2.15625 c -0.66146,0.25 -1.32292,0.4375 -1.98437,0.5625 -0.66147,0.13021 -1.32292,0.19532 -1.98438,0.19532 -1.58333,0 -2.8151,-0.40105 -3.69531,-1.20313 -0.875,-0.80729 -1.3125,-1.9375 -1.3125,-3.39062 0,-1.42708 0.42969,-2.54948 1.28906,-3.36719 0.86458,-0.8177 2.05208,-1.22656 3.5625,-1.22656 1.375,0 2.47395,0.41407 3.29688,1.24218 0.82811,0.82813 1.24218,1.9349 1.24219,3.32032 m -2.875,-0.92969 c -1e-5,-0.53125 -0.15626,-0.95833 -0.46875,-1.28125 -0.3073,-0.32812 -0.71095,-0.49218 -1.21094,-0.49219 -0.54167,10e-6 -0.98178,0.15365 -1.32031,0.46094 -0.33855,0.30209 -0.54949,0.73959 -0.63282,1.3125 l 3.63282,0"
         inkscape:connector-curvature="0" />
      <path
         id="path4617"
         style="font-size:16px;font-weight:bold;fill:#004438;-inkscape-font-specification:DejaVu Sans Bold"
         d="m 133.31755,861.56989 c -0.2448,-0.11458 -0.48959,-0.19791 -0.73437,-0.25 -0.23959,-0.0573 -0.48178,-0.0859 -0.72657,-0.0859 -0.71875,0 -1.27344,0.23178 -1.66406,0.69531 -0.38542,0.45834 -0.57813,1.11719 -0.57812,1.97656 l 0,4.03125 -2.79688,0 0,-8.75 2.79688,0 0,1.4375 c 0.35937,-0.57291 0.77082,-0.98957 1.23437,-1.25 0.46874,-0.26561 1.02864,-0.39843 1.67969,-0.39843 0.0937,0 0.1953,0.005 0.30469,0.0156 0.10936,0.005 0.26822,0.0208 0.47656,0.0469 l 0.008,2.53125"
         inkscape:connector-curvature="0" />
      <path
         id="path4619"
         style="font-size:16px;font-weight:bold;fill:#004438;-inkscape-font-specification:DejaVu Sans Bold"
         d="m 143.45818,863.53864 0,0.79687 -6.53907,0 c 0.0677,0.65625 0.30469,1.14844 0.71094,1.47656 0.40625,0.32813 0.97395,0.49219 1.70313,0.49219 0.58853,0 1.19009,-0.0859 1.80468,-0.25781 0.61979,-0.17708 1.2552,-0.44271 1.90625,-0.79688 l 0,2.15625 c -0.66146,0.25 -1.32292,0.4375 -1.98437,0.5625 -0.66147,0.13021 -1.32292,0.19532 -1.98438,0.19532 -1.58333,0 -2.8151,-0.40105 -3.69531,-1.20313 -0.875,-0.80729 -1.3125,-1.9375 -1.3125,-3.39062 0,-1.42708 0.42969,-2.54948 1.28906,-3.36719 0.86458,-0.8177 2.05208,-1.22656 3.5625,-1.22656 1.375,0 2.47395,0.41407 3.29688,1.24218 0.82811,0.82813 1.24218,1.9349 1.24219,3.32032 m -2.875,-0.92969 c -1e-5,-0.53125 -0.15626,-0.95833 -0.46875,-1.28125 -0.3073,-0.32812 -0.71095,-0.49218 -1.21094,-0.49219 -0.54167,10e-6 -0.98178,0.15365 -1.32031,0.46094 -0.33855,0.30209 -0.54949,0.73959 -0.63282,1.3125 l 3.63282,0"
         inkscape:connector-curvature="0" />
      <path
         id="path4621"
         style="font-size:16px;font-weight:bold;fill:#004438;-inkscape-font-specification:DejaVu Sans Bold"
         d="m 148.36443,866.67145 0,4.59375 -2.79688,0 0,-12.07813 2.79688,0 0,1.28125 c 0.38541,-0.51041 0.81249,-0.88541 1.28125,-1.125 0.46874,-0.24478 1.0078,-0.36718 1.61718,-0.36718 1.07812,0 1.96354,0.42969 2.65625,1.28906 0.6927,0.85417 1.03905,1.95573 1.03907,3.30469 -2e-5,1.34896 -0.34637,2.45312 -1.03907,3.3125 -0.69271,0.85416 -1.57813,1.28125 -2.65625,1.28125 -0.60938,0 -1.14844,-0.1198 -1.61718,-0.35938 -0.46876,-0.24479 -0.89584,-0.62239 -1.28125,-1.13281 m 1.85937,-5.66406 c -0.59896,0 -1.0599,0.22136 -1.38281,0.66406 -0.31771,0.4375 -0.47657,1.07032 -0.47656,1.89844 -1e-5,0.82812 0.15885,1.46354 0.47656,1.90625 0.32291,0.4375 0.78385,0.65625 1.38281,0.65625 0.59895,0 1.05468,-0.21875 1.36719,-0.65625 0.3177,-0.4375 0.47655,-1.07292 0.47656,-1.90625 -1e-5,-0.83333 -0.15886,-1.46875 -0.47656,-1.90625 -0.31251,-0.4375 -0.76824,-0.65625 -1.36719,-0.65625"
         inkscape:connector-curvature="0" />
      <path
         id="path4623"
         style="font-size:16px;font-weight:bold;fill:#004438;-inkscape-font-specification:DejaVu Sans Bold"
         d="m 161.20036,860.97614 c -0.61979,0 -1.09375,0.22396 -1.42187,0.67187 -0.32292,0.44271 -0.48438,1.08334 -0.48438,1.92188 0,0.83854 0.16146,1.48177 0.48438,1.92968 0.32812,0.44271 0.80208,0.66407 1.42187,0.66407 0.60937,0 1.07552,-0.22136 1.39844,-0.66407 0.32291,-0.44791 0.48437,-1.09114 0.48438,-1.92968 -1e-5,-0.83854 -0.16147,-1.47917 -0.48438,-1.92188 -0.32292,-0.44791 -0.78907,-0.67187 -1.39844,-0.67187 m 0,-2 c 1.5052,0 2.67968,0.40625 3.52344,1.21875 0.84895,0.8125 1.27343,1.9375 1.27344,3.375 -1e-5,1.4375 -0.42449,2.5625 -1.27344,3.375 -0.84376,0.8125 -2.01824,1.21875 -3.52344,1.21875 -1.51042,0 -2.69271,-0.40625 -3.54687,-1.21875 -0.84896,-0.8125 -1.27344,-1.9375 -1.27344,-3.375 0,-1.4375 0.42448,-2.5625 1.27344,-3.375 0.85416,-0.8125 2.03645,-1.21875 3.54687,-1.21875"
         inkscape:connector-curvature="0" />
      <path
         id="path4625"
         style="font-size:16px;font-weight:bold;fill:#004438;-inkscape-font-specification:DejaVu Sans Bold"
         d="m 174.87224,859.46051 0,2.125 c -0.59897,-0.24999 -1.17709,-0.43749 -1.73438,-0.5625 -0.55729,-0.12499 -1.08334,-0.18749 -1.57812,-0.1875 -0.53126,10e-6 -0.92709,0.0677 -1.1875,0.20313 -0.25521,0.13021 -0.38282,0.33334 -0.38281,0.60937 -1e-5,0.22396 0.0964,0.39584 0.28906,0.51563 0.19791,0.11979 0.54947,0.20833 1.05469,0.26562 l 0.49218,0.0703 c 1.43229,0.1823 2.39583,0.48178 2.89063,0.89844 0.49478,0.41667 0.74218,1.07032 0.74219,1.96094 -1e-5,0.93229 -0.34376,1.63281 -1.03125,2.10156 -0.68751,0.46875 -1.71355,0.70313 -3.07813,0.70313 -0.57813,0 -1.17709,-0.0469 -1.79687,-0.14063 -0.61459,-0.0885 -1.2474,-0.22396 -1.89844,-0.40625 l 0,-2.125 c 0.55729,0.27084 1.1276,0.47396 1.71094,0.60938 0.58853,0.13541 1.18489,0.20312 1.78906,0.20312 0.54687,0 0.95833,-0.0755 1.23437,-0.22656 0.27604,-0.15104 0.41406,-0.375 0.41407,-0.67188 -1e-5,-0.24999 -0.0964,-0.43489 -0.28907,-0.55468 -0.1875,-0.125 -0.56511,-0.22136 -1.13281,-0.28907 l -0.49219,-0.0625 c -1.24479,-0.15624 -2.11719,-0.44531 -2.61718,-0.86718 -0.50001,-0.42188 -0.75001,-1.0625 -0.75,-1.92188 -1e-5,-0.92708 0.3177,-1.61458 0.95312,-2.0625 0.63541,-0.44791 1.60937,-0.67187 2.92188,-0.67187 0.51562,0 1.05728,0.0391 1.625,0.11718 0.5677,0.0781 1.18488,0.20053 1.85156,0.36719"
         inkscape:connector-curvature="0" />
      <path
         id="path4627"
         style="font-size:16px;font-weight:bold;fill:#004438;-inkscape-font-specification:DejaVu Sans Bold"
         d="m 177.56755,859.18707 2.79688,0 0,8.75 -2.79688,0 0,-8.75 m 0,-3.40625 2.79688,0 0,2.28125 -2.79688,0 0,-2.28125"
         inkscape:connector-curvature="0" />
      <path
         id="path4629"
         style="font-size:16px;font-weight:bold;fill:#004438;-inkscape-font-specification:DejaVu Sans Bold"
         d="m 186.12224,856.7027 0,2.48437 2.88281,0 0,2 -2.88281,0 0,3.71094 c -1e-5,0.40625 0.0807,0.68229 0.24219,0.82813 0.16145,0.14062 0.48176,0.21093 0.96093,0.21093 l 1.4375,0 0,2 -2.39843,0 c -1.10417,0 -1.88803,-0.22916 -2.35157,-0.6875 -0.45833,-0.46354 -0.6875,-1.24739 -0.6875,-2.35156 l 0,-3.71094 -1.39062,0 0,-2 1.39062,0 0,-2.48437 2.79688,0"
         inkscape:connector-curvature="0" />
      <path
         id="path4631"
         style="font-size:16px;font-weight:bold;fill:#004438;-inkscape-font-specification:DejaVu Sans Bold"
         d="m 194.88786,860.97614 c -0.61979,0 -1.09375,0.22396 -1.42187,0.67187 -0.32292,0.44271 -0.48438,1.08334 -0.48438,1.92188 0,0.83854 0.16146,1.48177 0.48438,1.92968 0.32812,0.44271 0.80208,0.66407 1.42187,0.66407 0.60937,0 1.07552,-0.22136 1.39844,-0.66407 0.32291,-0.44791 0.48437,-1.09114 0.48438,-1.92968 -1e-5,-0.83854 -0.16147,-1.47917 -0.48438,-1.92188 -0.32292,-0.44791 -0.78907,-0.67187 -1.39844,-0.67187 m 0,-2 c 1.5052,0 2.67968,0.40625 3.52344,1.21875 0.84895,0.8125 1.27343,1.9375 1.27344,3.375 -1e-5,1.4375 -0.42449,2.5625 -1.27344,3.375 -0.84376,0.8125 -2.01824,1.21875 -3.52344,1.21875 -1.51042,0 -2.69271,-0.40625 -3.54687,-1.21875 -0.84896,-0.8125 -1.27344,-1.9375 -1.27344,-3.375 0,-1.4375 0.42448,-2.5625 1.27344,-3.375 0.85416,-0.8125 2.03645,-1.21875 3.54687,-1.21875"
         inkscape:connector-curvature="0" />
      <path
         id="path4633"
         style="font-size:16px;font-weight:bold;fill:#004438;-inkscape-font-specification:DejaVu Sans Bold"
         d="m 208.2238,861.56989 c -0.2448,-0.11458 -0.48959,-0.19791 -0.73437,-0.25 -0.23959,-0.0573 -0.48178,-0.0859 -0.72657,-0.0859 -0.71875,0 -1.27344,0.23178 -1.66406,0.69531 -0.38542,0.45834 -0.57813,1.11719 -0.57812,1.97656 l 0,4.03125 -2.79688,0 0,-8.75 2.79688,0 0,1.4375 c 0.35937,-0.57291 0.77082,-0.98957 1.23437,-1.25 0.46874,-0.26561 1.02864,-0.39843 1.67969,-0.39843 0.0937,0 0.1953,0.005 0.30469,0.0156 0.10936,0.005 0.26822,0.0208 0.47656,0.0469 l 0.008,2.53125"
         inkscape:connector-curvature="0" />
      <path
         id="path4635"
         style="font-size:16px;font-weight:bold;fill:#004438;-inkscape-font-specification:DejaVu Sans Bold"
         d="m 208.48161,859.18707 2.79688,0 2.35156,5.9375 2,-5.9375 2.79688,0 -3.67969,9.57813 c -0.3698,0.97395 -0.80209,1.65364 -1.29688,2.03906 -0.48958,0.39062 -1.13802,0.58593 -1.94531,0.58594 l -1.61719,0 0,-1.83594 0.875,0 c 0.47396,0 0.81771,-0.0755 1.03125,-0.22656 0.21875,-0.15105 0.38802,-0.42188 0.50782,-0.8125 l 0.0781,-0.24219 -3.89844,-9.08594"
         inkscape:connector-curvature="0" />
    </g>
    <rect
       style="fill:#ffe9bb;fill-opacity:1;stroke:#6b4900;stroke-width:1.77165365;stroke-miterlimit:4;stroke-opacity:1;stroke-dasharray:none"
       id="rect3265"
       width="578.87408"
       height="147.04718"
       x="-6.200788"
       y="911.51581"
       rx="10.629922"
       ry="10.629919" />
    <path
       inkscape:connector-curvature="0"
       inkscape:connector-type="polyline"
       id="path4423"
       d="m 35.433071,868.11028 0,70.86614"
       style="fill:none;stroke:#666666;stroke-width:3.54330707;stroke-linecap:butt;stroke-linejoin:miter;stroke-opacity:1;marker-end:url(#Arrow2MendFn);display:inline"
       sodipodi:nodetypes="cc" />
    <text
       id="text3295"
       y="936.95941"
       x="539.55316"
       style="font-size:14px;font-style:normal;font-variant:normal;font-weight:normal;font-stretch:normal;text-align:center;text-anchor:middle;fill:#6b4900;fill-opacity:1;stroke:none;display:inline;font-family:DejaVu Sans;-inkscape-font-specification:DejaVu Sans"
       xml:space="preserve"><tspan
         y="936.95941"
         x="539.55316"
         sodipodi:role="line"
         style="font-size:16px;font-weight:bold;text-align:end;text-anchor:end;fill:#6b4900;-inkscape-font-specification:DejaVu Sans Bold"
         id="tspan3193">Local repository</tspan></text>
    <rect
       ry="10.629921"
       rx="10.629922"
       y="996.55518"
       x="14.881894"
       height="33.661392"
       width="317.30313"
       id="rect3131"
       style="fill:url(#linearGradient5835);fill-opacity:1;stroke:url(#linearGradient5837);stroke-width:1.77165377;stroke-miterlimit:4;stroke-opacity:1;stroke-dasharray:none" />
    <rect
       style="fill:#2d897a;fill-opacity:1;stroke:#92c7be;stroke-width:1.77165365;stroke-miterlimit:4;stroke-opacity:1;stroke-dasharray:none"
       id="rect3111"
       width="139.96065"
       height="33.834602"
       x="14.881894"
       y="954.03552"
       rx="10.629922"
       ry="10.629921" />
    <text
       id="text3115"
       y="974.39258"
       x="26.59898"
       style="font-size:14px;font-style:normal;font-variant:normal;font-weight:normal;font-stretch:normal;text-align:start;text-anchor:start;fill:#ffffff;fill-opacity:1;stroke:none;display:inline;font-family:DejaVu Sans;-inkscape-font-specification:DejaVu Sans"
       xml:space="preserve"><tspan
         y="974.39258"
         x="26.59898"
         sodipodi:role="line"
         style="font-size:16px;text-align:start;text-anchor:start;fill:#ffffff"
         id="tspan3119">Remote only</tspan><tspan
         y="994.39258"
         x="26.59898"
         sodipodi:role="line"
         style="font-size:16px;text-align:start;text-anchor:start;fill:#ffffff"
         id="tspan3121" /></text>
    <text
       xml:space="preserve"
       style="font-size:14px;font-style:normal;font-variant:normal;font-weight:bold;font-stretch:normal;text-align:end;text-anchor:end;fill:#0c6b5b;fill-opacity:1;stroke:none;display:inline;font-family:DejaVu Sans;-inkscape-font-specification:DejaVu Sans Bold"
       x="252.2428"
       y="957.72711"
       id="text3400"><tspan
         style="font-size:16px;font-weight:bold;text-align:end;text-anchor:end;fill:#0c6b5b;-inkscape-font-specification:DejaVu Sans Bold"
         id="tspan3402"
         sodipodi:role="line"
         x="252.2428"
         y="957.72711">Remote</tspan><tspan
         id="tspan4325"
         style="font-size:16px;font-weight:bold;text-align:end;text-anchor:end;fill:#0c6b5b;-inkscape-font-specification:DejaVu Sans Bold"
         sodipodi:role="line"
         x="252.2428"
         y="977.72711">snapshot</tspan></text>
    <g
       transform="translate(-88.806561,9.07206)"
       id="text3404"
       style="font-size:14px;font-style:normal;font-variant:normal;font-weight:normal;font-stretch:normal;text-align:start;text-anchor:start;fill:#ffffff;fill-opacity:1;stroke:none;display:inline;font-family:DejaVu Sans;-inkscape-font-specification:DejaVu Sans">
      <path
         id="path3413"
         style="font-size:16px;fill:#ffffff"
         d="m 124.48364,998.33478 0,1.53906 c -0.59896,-0.28645 -1.16407,-0.49999 -1.69531,-0.64062 -0.53126,-0.14062 -1.04428,-0.21093 -1.53906,-0.21094 -0.85938,10e-6 -1.52344,0.16667 -1.99219,0.5 -0.46354,0.33334 -0.69532,0.80732 -0.69531,1.42192 -10e-6,0.5156 0.15364,0.9062 0.46094,1.1718 0.31249,0.2605 0.90103,0.4714 1.76562,0.6328 l 0.95313,0.1954 c 1.17707,0.2239 2.04426,0.6198 2.60156,1.1875 0.56249,0.5625 0.84374,1.3177 0.84375,2.2656 -10e-6,1.1302 -0.38022,1.987 -1.14063,2.5703 -0.75521,0.5833 -1.86459,0.875 -3.32812,0.875 -0.55209,0 -1.14063,-0.062 -1.76563,-0.1875 -0.61979,-0.125 -1.26302,-0.3099 -1.92968,-0.5547 l 0,-1.625 c 0.64062,0.3594 1.26822,0.6302 1.88281,0.8125 0.61458,0.1823 1.21874,0.2734 1.8125,0.2734 0.90103,0 1.59635,-0.177 2.08594,-0.5312 0.48957,-0.3542 0.73436,-0.8594 0.73437,-1.5156 -1e-5,-0.5729 -0.17709,-1.0209 -0.53125,-1.3438 -0.34896,-0.3229 -0.92449,-0.5651 -1.72656,-0.7265 l -0.96094,-0.1875 c -1.17709,-0.2344 -2.02865,-0.6016 -2.55469,-1.1016 -0.52604,-0.5 -0.78906,-1.1953 -0.78906,-2.0859 0,-1.0313 0.36198,-1.84379 1.08594,-2.43755 0.72916,-0.59374 1.73176,-0.89061 3.00781,-0.89062 0.54687,10e-6 1.10416,0.0495 1.67188,0.14844 0.5677,0.099 1.14842,0.2474 1.74218,0.44531"
         inkscape:connector-curvature="0" />
      <path
         id="path3415"
         style="font-size:16px;fill:#ffffff"
         d="m 134.85864,1004.3348 0,5.2812 -1.4375,0 0,-5.2343 c 0,-0.8282 -0.16146,-1.448 -0.48437,-1.8594 -0.32293,-0.4115 -0.8073,-0.6172 -1.45313,-0.6172 -0.77604,0 -1.38802,0.2474 -1.83593,0.7422 -0.44792,0.4948 -0.67188,1.1693 -0.67188,2.0234 l 0,4.9453 -1.44531,0 0,-12.15622 1.44531,0 0,4.76562 c 0.34375,-0.526 0.74739,-0.9193 1.21094,-1.1797 0.46874,-0.2604 1.0078,-0.3906 1.61719,-0.3906 1.0052,0 1.76561,0.3125 2.28125,0.9375 0.51561,0.6198 0.77342,1.5339 0.77343,2.7422"
         inkscape:connector-curvature="0" />
      <path
         id="path3417"
         style="font-size:16px;fill:#ffffff"
         d="m 141.71802,1005.2176 c -1.16147,0 -1.96615,0.1328 -2.41406,0.3984 -0.44792,0.2657 -0.67188,0.7188 -0.67188,1.3594 0,0.5104 0.16666,0.9167 0.5,1.2188 0.33854,0.2968 0.79687,0.4453 1.375,0.4453 0.79687,0 1.43489,-0.2813 1.91406,-0.8438 0.48437,-0.5677 0.72656,-1.3203 0.72657,-2.2578 l 0,-0.3203 -1.42969,0 m 2.86719,-0.5938 0,4.9922 -1.4375,0 0,-1.3281 c -0.32814,0.5313 -0.73699,0.9245 -1.22657,1.1797 -0.48959,0.25 -1.08854,0.375 -1.79687,0.375 -0.89584,0 -1.60938,-0.25 -2.14063,-0.75 -0.52604,-0.5052 -0.78906,-1.1797 -0.78906,-2.0234 0,-0.9844 0.32812,-1.7266 0.98438,-2.2266 0.66145,-0.5 1.64582,-0.75 2.95312,-0.75 l 2.01563,0 0,-0.1406 c -1e-5,-0.6615 -0.21876,-1.1719 -0.65625,-1.5313 -0.4323,-0.3646 -1.04168,-0.5469 -1.82813,-0.5469 -0.5,0 -0.98698,0.06 -1.46094,0.1797 -0.47396,0.1198 -0.92969,0.2995 -1.36718,0.5391 l 0,-1.3281 c 0.52603,-0.2032 1.03645,-0.3542 1.53125,-0.4532 0.49478,-0.1041 0.97655,-0.1562 1.44531,-0.1562 1.26562,0 2.21093,0.3281 2.83594,0.9844 0.62499,0.6562 0.93749,1.651 0.9375,2.9843"
         inkscape:connector-curvature="0" />
      <path
         id="path3419"
         style="font-size:16px;fill:#ffffff"
         d="m 152.62427,1002.2098 c -0.16147,-0.094 -0.33855,-0.1615 -0.53125,-0.2031 -0.18751,-0.047 -0.39584,-0.07 -0.625,-0.07 -0.81251,0 -1.43751,0.2657 -1.875,0.7969 -0.4323,0.5261 -0.64844,1.2839 -0.64844,2.2735 l 0,4.6093 -1.44531,0 0,-8.75 1.44531,0 0,1.3594 c 0.30208,-0.5312 0.69531,-0.9245 1.17969,-1.1797 0.48437,-0.2604 1.07291,-0.3906 1.76562,-0.3906 0.099,0 0.20833,0.01 0.32813,0.023 0.11978,0.01 0.2526,0.029 0.39844,0.055 l 0.008,1.4766"
         inkscape:connector-curvature="0" />
      <path
         id="path3421"
         style="font-size:16px;fill:#ffffff"
         d="m 161.28833,1004.8817 0,0.7031 -6.60937,0 c 0.0625,0.9896 0.35937,1.7448 0.89062,2.2656 0.53645,0.5156 1.28125,0.7734 2.23438,0.7734 0.55207,0 1.08593,-0.068 1.60156,-0.2031 0.52082,-0.1354 1.03645,-0.3385 1.54687,-0.6094 l 0,1.3594 c -0.51563,0.2188 -1.04428,0.3854 -1.58593,0.5 -0.54168,0.1146 -1.09116,0.1719 -1.64844,0.1719 -1.39584,0 -2.50261,-0.4063 -3.32031,-1.2188 -0.81251,-0.8125 -1.21876,-1.9114 -1.21875,-3.2968 -1e-5,-1.4323 0.38541,-2.5677 1.15625,-3.4063 0.77603,-0.8437 1.8203,-1.2656 3.13281,-1.2656 1.17707,0 2.10676,0.3802 2.78906,1.1406 0.68749,0.7552 1.03124,1.7839 1.03125,3.086 m -1.4375,-0.4219 c -0.0104,-0.7865 -0.23178,-1.4141 -0.66406,-1.8828 -0.42709,-0.4688 -0.9948,-0.7032 -1.70313,-0.7032 -0.80209,0 -1.44531,0.2266 -1.92968,0.6797 -0.47917,0.4532 -0.75522,1.0912 -0.82813,1.9141 l 5.125,-0.01"
         inkscape:connector-curvature="0" />
      <path
         id="path3423"
         style="font-size:16px;fill:#ffffff"
         d="m 169.40552,1002.1942 0,-4.73442 1.4375,0 0,12.15622 -1.4375,0 0,-1.3125 c -0.30209,0.5209 -0.6849,0.9089 -1.14844,1.1641 -0.45834,0.25 -1.01042,0.375 -1.65625,0.375 -1.05729,0 -1.91927,-0.4219 -2.58594,-1.2656 -0.66146,-0.8438 -0.99219,-1.9532 -0.99218,-3.3282 -1e-5,-1.375 0.33072,-2.4843 0.99218,-3.3281 0.66667,-0.8437 1.52865,-1.2656 2.58594,-1.2656 0.64583,0 1.19791,0.1276 1.65625,0.3828 0.46354,0.25 0.84635,0.6354 1.14844,1.1563 m -4.89844,3.0546 c 0,1.0573 0.21614,1.8881 0.64844,2.4922 0.43749,0.599 1.03645,0.8985 1.79687,0.8985 0.76041,0 1.35937,-0.2995 1.79688,-0.8985 0.43749,-0.6041 0.65624,-1.4349 0.65625,-2.4922 -1e-5,-1.0572 -0.21876,-1.8854 -0.65625,-2.4843 -0.43751,-0.6042 -1.03647,-0.9063 -1.79688,-0.9063 -0.76042,0 -1.35938,0.3021 -1.79687,0.9063 -0.4323,0.5989 -0.64844,1.4271 -0.64844,2.4843"
         inkscape:connector-curvature="0" />
      <path
         id="path3425"
         style="font-size:16px;fill:#ffffff"
         d="m 174.17114,1007.6317 1.64844,0 0,1.9843 -1.64844,0 0,-1.9843 m 0,-6.2891 1.64844,0 0,1.9844 -1.64844,0 0,-1.9844"
         inkscape:connector-curvature="0" />
      <path
         id="path3427"
         style="font-size:16px;fill:#ffffff"
         d="m 189.37427,1002.2098 c -0.16147,-0.094 -0.33855,-0.1615 -0.53125,-0.2031 -0.18751,-0.047 -0.39584,-0.07 -0.625,-0.07 -0.81251,0 -1.43751,0.2657 -1.875,0.7969 -0.4323,0.5261 -0.64844,1.2839 -0.64844,2.2735 l 0,4.6093 -1.44531,0 0,-8.75 1.44531,0 0,1.3594 c 0.30208,-0.5312 0.69531,-0.9245 1.17969,-1.1797 0.48437,-0.2604 1.07291,-0.3906 1.76562,-0.3906 0.099,0 0.20833,0.01 0.32813,0.023 0.11978,0.01 0.2526,0.029 0.39844,0.055 l 0.008,1.4766"
         inkscape:connector-curvature="0" />
      <path
         id="path3429"
         style="font-size:16px;fill:#ffffff"
         d="m 198.03833,1004.8817 0,0.7031 -6.60937,0 c 0.0625,0.9896 0.35937,1.7448 0.89062,2.2656 0.53645,0.5156 1.28125,0.7734 2.23438,0.7734 0.55207,0 1.08593,-0.068 1.60156,-0.2031 0.52082,-0.1354 1.03645,-0.3385 1.54687,-0.6094 l 0,1.3594 c -0.51563,0.2188 -1.04428,0.3854 -1.58593,0.5 -0.54168,0.1146 -1.09116,0.1719 -1.64844,0.1719 -1.39584,0 -2.50261,-0.4063 -3.32031,-1.2188 -0.81251,-0.8125 -1.21876,-1.9114 -1.21875,-3.2968 -1e-5,-1.4323 0.38541,-2.5677 1.15625,-3.4063 0.77603,-0.8437 1.8203,-1.2656 3.13281,-1.2656 1.17707,0 2.10676,0.3802 2.78906,1.1406 0.68749,0.7552 1.03124,1.7839 1.03125,3.086 m -1.4375,-0.4219 c -0.0104,-0.7865 -0.23178,-1.4141 -0.66406,-1.8828 -0.42709,-0.4688 -0.9948,-0.7032 -1.70313,-0.7032 -0.80209,0 -1.44531,0.2266 -1.92968,0.6797 -0.47917,0.4532 -0.75522,1.0912 -0.82813,1.9141 l 5.125,-0.01"
         inkscape:connector-curvature="0" />
      <path
         id="path3431"
         style="font-size:16px;fill:#ffffff"
         d="m 207.21021,1002.5457 c 0.35936,-0.6458 0.78905,-1.1224 1.28906,-1.4297 0.49999,-0.3073 1.08853,-0.4609 1.76562,-0.4609 0.91145,0 1.61457,0.3203 2.10938,0.9609 0.49478,0.6355 0.74217,1.5417 0.74219,2.7188 l 0,5.2812 -1.44532,0 0,-5.2343 c -1e-5,-0.8386 -0.14845,-1.461 -0.44531,-1.8672 -0.29689,-0.4063 -0.75001,-0.6094 -1.35937,-0.6094 -0.74481,0 -1.33335,0.2474 -1.76563,0.7422 -0.4323,0.4948 -0.64845,1.1693 -0.64844,2.0234 l 0,4.9453 -1.44531,0 0,-5.2343 c -1e-5,-0.8438 -0.14844,-1.4662 -0.44531,-1.8672 -0.29688,-0.4063 -0.75522,-0.6094 -1.375,-0.6094 -0.73438,0 -1.31771,0.25 -1.75,0.75 -0.4323,0.4948 -0.64844,1.1667 -0.64844,2.0156 l 0,4.9453 -1.44531,0 0,-8.75 1.44531,0 0,1.3594 c 0.32812,-0.5364 0.72135,-0.9323 1.17969,-1.1875 0.45833,-0.2552 1.0026,-0.3828 1.63281,-0.3828 0.63541,0 1.17447,0.1615 1.61719,0.4844 0.44791,0.3229 0.77864,0.7916 0.99219,1.4062"
         inkscape:connector-curvature="0" />
      <path
         id="path3433"
         style="font-size:16px;fill:#ffffff"
         d="m 219.38208,1001.8738 c -0.77084,0 -1.38021,0.3021 -1.82812,0.9063 -0.44792,0.599 -0.67188,1.4219 -0.67188,2.4687 0,1.0469 0.22135,1.8724 0.66406,2.4766 0.44792,0.599 1.05989,0.8984 1.83594,0.8984 0.76562,0 1.37239,-0.302 1.82031,-0.9062 0.44791,-0.6042 0.67187,-1.4271 0.67188,-2.4688 -1e-5,-1.0364 -0.22397,-1.8567 -0.67188,-2.4609 -0.44792,-0.6094 -1.05469,-0.9141 -1.82031,-0.9141 m 0,-1.2187 c 1.24999,0 2.23176,0.4062 2.94531,1.2187 0.71354,0.8125 1.07031,1.9375 1.07032,3.375 -1e-5,1.4323 -0.35678,2.5573 -1.07032,3.375 -0.71355,0.8125 -1.69532,1.2188 -2.94531,1.2188 -1.25521,0 -2.23959,-0.4063 -2.95312,-1.2188 -0.70834,-0.8177 -1.06251,-1.9427 -1.0625,-3.375 -1e-5,-1.4375 0.35416,-2.5625 1.0625,-3.375 0.71353,-0.8125 1.69791,-1.2187 2.95312,-1.2187"
         inkscape:connector-curvature="0" />
      <path
         id="path3435"
         style="font-size:16px;fill:#ffffff"
         d="m 227.19458,998.38165 0,2.48435 2.96094,0 0,1.1172 -2.96094,0 0,4.75 c 0,0.7136 0.0964,1.1719 0.28906,1.375 0.19792,0.2031 0.59635,0.3047 1.19532,0.3047 l 1.47656,0 0,1.2031 -1.47656,0 c -1.10938,0 -1.87501,-0.2057 -2.29688,-0.6172 -0.42188,-0.4166 -0.63281,-1.1718 -0.63281,-2.2656 l 0,-4.75 -1.05469,0 0,-1.1172 1.05469,0 0,-2.48435 1.44531,0"
         inkscape:connector-curvature="0" />
      <path
         id="path3437"
         style="font-size:16px;fill:#ffffff"
         d="m 239.53833,1004.8817 0,0.7031 -6.60937,0 c 0.0625,0.9896 0.35937,1.7448 0.89062,2.2656 0.53645,0.5156 1.28125,0.7734 2.23438,0.7734 0.55207,0 1.08593,-0.068 1.60156,-0.2031 0.52082,-0.1354 1.03645,-0.3385 1.54687,-0.6094 l 0,1.3594 c -0.51563,0.2188 -1.04428,0.3854 -1.58593,0.5 -0.54168,0.1146 -1.09116,0.1719 -1.64844,0.1719 -1.39584,0 -2.50261,-0.4063 -3.32031,-1.2188 -0.81251,-0.8125 -1.21876,-1.9114 -1.21875,-3.2968 -1e-5,-1.4323 0.38541,-2.5677 1.15625,-3.4063 0.77603,-0.8437 1.8203,-1.2656 3.13281,-1.2656 1.17707,0 2.10676,0.3802 2.78906,1.1406 0.68749,0.7552 1.03124,1.7839 1.03125,3.086 m -1.4375,-0.4219 c -0.0104,-0.7865 -0.23178,-1.4141 -0.66406,-1.8828 -0.42709,-0.4688 -0.9948,-0.7032 -1.70313,-0.7032 -0.80209,0 -1.44531,0.2266 -1.92968,0.6797 -0.47917,0.4532 -0.75522,1.0912 -0.82813,1.9141 l 5.125,-0.01"
         inkscape:connector-curvature="0" />
    </g>
    <rect
       ry="10.629921"
       rx="10.62992"
       y="932.59845"
       x="7.7952766"
       height="104.88184"
       width="274.96063"
       id="rect3398"
       style="fill:none;stroke:#0c6b5b;stroke-width:1.77165353;stroke-miterlimit:4;stroke-opacity:1;stroke-dasharray:11.33858204, 2.83464549, 1.41732277, 2.83464549;stroke-dashoffset:0" />
    <g
       transform="translate(-60.088824,-123.42884)"
       id="text4308"
       style="font-size:14px;font-style:normal;font-variant:normal;font-weight:normal;font-stretch:normal;text-align:end;text-anchor:end;fill:#6b2b00;fill-opacity:1;stroke:none;display:inline;font-family:DejaVu Sans;-inkscape-font-specification:DejaVu Sans">
      <path
         inkscape:connector-curvature="0"
         id="path4313"
         style="font-size:16px;fill:#6b2b00"
         d="m 274.65149,1137.0935 4.21094,0 0,1.2813 -4.21094,0 0,-1.2813" />
      <path
         inkscape:connector-curvature="0"
         id="path4315"
         style="font-size:16px;fill:#6b2b00"
         d="m 301.5343,1129.9607 1.4375,0 0,12.1562 -1.4375,0 0,-12.1562" />
      <path
         inkscape:connector-curvature="0"
         id="path4317"
         style="font-size:16px;fill:#6b2b00"
         d="m 309.36243,1134.3748 c -0.77084,0 -1.38022,0.302 -1.82813,0.9062 -0.44792,0.599 -0.67188,1.4219 -0.67187,2.4688 -1e-5,1.0468 0.22135,1.8724 0.66406,2.4765 0.44791,0.599 1.05989,0.8985 1.83594,0.8985 0.76562,0 1.37239,-0.3021 1.82031,-0.9063 0.44791,-0.6042 0.67187,-1.4271 0.67187,-2.4687 0,-1.0365 -0.22396,-1.8568 -0.67187,-2.461 -0.44792,-0.6093 -1.05469,-0.914 -1.82031,-0.914 m 0,-1.2188 c 1.24999,0 2.23176,0.4063 2.94531,1.2188 0.71353,0.8125 1.0703,1.9375 1.07031,3.375 -10e-6,1.4323 -0.35678,2.5572 -1.07031,3.375 -0.71355,0.8125 -1.69532,1.2187 -2.94531,1.2187 -1.25522,0 -2.23959,-0.4062 -2.95313,-1.2187 -0.70833,-0.8178 -1.0625,-1.9427 -1.0625,-3.375 0,-1.4375 0.35417,-2.5625 1.0625,-3.375 0.71354,-0.8125 1.69791,-1.2188 2.95313,-1.2188" />
      <path
         inkscape:connector-curvature="0"
         id="path4319"
         style="font-size:16px;fill:#6b2b00"
         d="m 322.04993,1133.7029 0,1.3437 c -0.40626,-0.2239 -0.81511,-0.3906 -1.22657,-0.5 -0.40625,-0.1145 -0.81771,-0.1718 -1.23437,-0.1718 -0.9323,0 -1.65625,0.2968 -2.17188,0.8906 -0.51562,0.5885 -0.77344,1.4167 -0.77343,2.4844 -1e-5,1.0677 0.25781,1.8984 0.77343,2.4921 0.51563,0.5886 1.23958,0.8829 2.17188,0.8829 0.41666,0 0.82812,-0.055 1.23437,-0.1641 0.41146,-0.1146 0.82031,-0.2839 1.22657,-0.5078 l 0,1.3281 c -0.40105,0.1875 -0.81772,0.3281 -1.25,0.4219 -0.42709,0.094 -0.88282,0.1406 -1.36719,0.1406 -1.31771,0 -2.36459,-0.4141 -3.14063,-1.2422 -0.77604,-0.8281 -1.16406,-1.9453 -1.16406,-3.3515 0,-1.4271 0.39063,-2.5495 1.17188,-3.3672 0.78645,-0.8177 1.86197,-1.2266 3.22656,-1.2266 0.4427,0 0.87499,0.047 1.29687,0.1406 0.42187,0.089 0.83073,0.224 1.22657,0.4063" />
      <path
         inkscape:connector-curvature="0"
         id="path4321"
         style="font-size:16px;fill:#6b2b00"
         d="m 328.54211,1137.7185 c -1.16146,0 -1.96615,0.1328 -2.41406,0.3984 -0.44792,0.2657 -0.67188,0.7188 -0.67187,1.3594 -1e-5,0.5104 0.16666,0.9167 0.5,1.2188 0.33854,0.2968 0.79687,0.4453 1.375,0.4453 0.79687,0 1.43489,-0.2813 1.91406,-0.8438 0.48437,-0.5677 0.72655,-1.3203 0.72656,-2.2578 l 0,-0.3203 -1.42969,0 m 2.86719,-0.5937 0,4.9921 -1.4375,0 0,-1.3281 c -0.32813,0.5313 -0.73698,0.9245 -1.22656,1.1797 -0.48959,0.25 -1.08855,0.375 -1.79688,0.375 -0.89583,0 -1.60937,-0.25 -2.14062,-0.75 -0.52604,-0.5052 -0.78906,-1.1797 -0.78906,-2.0234 0,-0.9844 0.32812,-1.7266 0.98437,-2.2266 0.66146,-0.5 1.64583,-0.75 2.95313,-0.75 l 2.01562,0 0,-0.1406 c -10e-6,-0.6615 -0.21875,-1.1719 -0.65625,-1.5313 -0.4323,-0.3645 -1.04167,-0.5468 -1.82812,-0.5468 -0.50001,0 -0.98699,0.06 -1.46094,0.1796 -0.47396,0.1198 -0.92969,0.2995 -1.36719,0.5391 l 0,-1.3281 c 0.52604,-0.2031 1.03646,-0.3542 1.53125,-0.4531 0.49479,-0.1042 0.97656,-0.1563 1.44531,-0.1563 1.26562,0 2.21093,0.3281 2.83594,0.9844 0.62499,0.6562 0.93749,1.651 0.9375,2.9844" />
      <path
         inkscape:connector-curvature="0"
         id="path4323"
         style="font-size:16px;fill:#6b2b00"
         d="m 334.37805,1129.9607 1.4375,0 0,12.1562 -1.4375,0 0,-12.1562" />
    </g>
    <rect
       style="fill:#cccccf;fill-opacity:1;stroke:#333333;stroke-width:1.77165365;stroke-miterlimit:4;stroke-opacity:1;stroke-dasharray:none"
       id="rect4368"
       width="134.45515"
       height="62.00787"
       x="423.56302"
       y="989.46851"
       rx="10.629922"
       ry="10.62992" />
    <g
       transform="translate(-0.93855,28.346465)"
       id="text4370"
       style="font-size:14px;font-style:normal;font-variant:normal;font-weight:normal;font-stretch:normal;text-align:start;text-anchor:start;fill:#333333;fill-opacity:1;stroke:none;display:inline;font-family:DejaVu Sans;-inkscape-font-specification:DejaVu Sans">
      <path
         inkscape:connector-curvature="0"
         id="path6222"
         style="font-size:16px;fill:#333333"
         d="m 439.5654,974.90167 1.57812,0 0,11.66406 -1.57812,0 0,-11.66406" />
      <path
         inkscape:connector-curvature="0"
         id="path6224"
         style="font-size:16px;fill:#333333"
         d="m 451.49509,981.28448 0,5.28125 -1.4375,0 0,-5.23437 c -1e-5,-0.82812 -0.16147,-1.44791 -0.48438,-1.85938 -0.32292,-0.41145 -0.8073,-0.61717 -1.45312,-0.61718 -0.77605,1e-5 -1.38803,0.2474 -1.83594,0.74218 -0.44792,0.4948 -0.67188,1.16928 -0.67188,2.02344 l 0,4.94531 -1.44531,0 0,-8.75 1.44531,0 0,1.35938 c 0.34375,-0.52603 0.7474,-0.91926 1.21094,-1.17969 0.46875,-0.26041 1.00781,-0.39061 1.61719,-0.39062 1.0052,1e-5 1.76562,0.31251 2.28125,0.9375 0.51562,0.6198 0.77343,1.53386 0.77344,2.74218" />
      <path
         inkscape:connector-curvature="0"
         id="path6226"
         style="font-size:16px;fill:#333333"
         d="m 460.13571,979.14386 0,-4.73438 1.4375,0 0,12.15625 -1.4375,0 0,-1.3125 c -0.30209,0.52084 -0.6849,0.90886 -1.14844,1.16407 -0.45833,0.25 -1.01042,0.375 -1.65625,0.375 -1.05729,0 -1.91927,-0.42188 -2.58593,-1.26563 -0.66146,-0.84375 -0.99219,-1.95312 -0.99219,-3.32812 0,-1.375 0.33073,-2.48437 0.99219,-3.32813 0.66666,-0.84374 1.52864,-1.26561 2.58593,-1.26562 0.64583,1e-5 1.19792,0.12761 1.65625,0.38281 0.46354,0.25001 0.84635,0.63542 1.14844,1.15625 m -4.89844,3.05469 c 0,1.05729 0.21615,1.88802 0.64844,2.49218 0.4375,0.59896 1.03646,0.89844 1.79688,0.89844 0.76041,0 1.35937,-0.29948 1.79687,-0.89844 0.43749,-0.60416 0.65624,-1.43489 0.65625,-2.49218 -1e-5,-1.05729 -0.21876,-1.88541 -0.65625,-2.48438 -0.4375,-0.60416 -1.03646,-0.90624 -1.79687,-0.90625 -0.76042,1e-5 -1.35938,0.30209 -1.79688,0.90625 -0.43229,0.59897 -0.64844,1.42709 -0.64844,2.48438" />
      <path
         inkscape:connector-curvature="0"
         id="path6228"
         style="font-size:16px;fill:#333333"
         d="m 472.01852,981.83136 0,0.70312 -6.60937,0 c 0.0625,0.98959 0.35937,1.7448 0.89062,2.26563 0.53646,0.51563 1.28125,0.77344 2.23438,0.77344 0.55208,0 1.08593,-0.0677 1.60156,-0.20313 0.52083,-0.13541 1.03645,-0.33854 1.54688,-0.60937 l 0,1.35937 c -0.51564,0.21875 -1.04428,0.38542 -1.58594,0.5 -0.54167,0.11459 -1.09115,0.17188 -1.64844,0.17188 -1.39584,0 -2.50261,-0.40625 -3.32031,-1.21875 -0.8125,-0.8125 -1.21875,-1.91146 -1.21875,-3.29688 0,-1.43228 0.38541,-2.5677 1.15625,-3.40625 0.77604,-0.84374 1.82031,-1.26561 3.13281,-1.26562 1.17708,1e-5 2.10677,0.38021 2.78906,1.14062 0.6875,0.75522 1.03125,1.78386 1.03125,3.08594 m -1.4375,-0.42188 c -0.0104,-0.78645 -0.23177,-1.41405 -0.66406,-1.88281 -0.42709,-0.46874 -0.9948,-0.70311 -1.70312,-0.70312 -0.80209,1e-5 -1.44532,0.22657 -1.92969,0.67968 -0.47917,0.45314 -0.75521,1.09116 -0.82813,1.91407 l 5.125,-0.008" />
      <path
         inkscape:connector-curvature="0"
         id="path6230"
         style="font-size:16px;fill:#333333"
         d="m 481.37009,977.81573 -3.16407,4.25782 3.32813,4.49218 -1.69531,0 -2.54688,-3.4375 -2.54687,3.4375 -1.69532,0 3.39844,-4.57812 -3.10937,-4.17188 1.69531,0 2.32031,3.11719 2.32031,-3.11719 1.69532,0" />
      <path
         inkscape:connector-curvature="0"
         id="path6232"
         style="font-size:16px;fill:#333333"
         d="m 442.95602,994.42511 c -0.69792,1.19793 -1.21615,2.38282 -1.55468,3.55469 -0.33855,1.17188 -0.50782,2.3594 -0.50782,3.5625 0,1.2031 0.16927,2.3958 0.50782,3.5781 0.34374,1.1771 0.86197,2.362 1.55468,3.5547 l -1.25,0 c -0.78125,-1.2239 -1.36719,-2.4271 -1.75781,-3.6094 -0.38542,-1.1823 -0.57812,-2.3567 -0.57812,-3.5234 0,-1.1615 0.1927,-2.33072 0.57812,-3.50782 0.38542,-1.17707 0.97135,-2.38019 1.75781,-3.60937 l 1.25,0" />
      <path
         inkscape:connector-curvature="0"
         id="path6234"
         style="font-size:16px;fill:#333333"
         d="m 452.04977,998.15167 0,1.34375 c -0.40625,-0.22395 -0.81511,-0.39062 -1.22656,-0.5 -0.40625,-0.11457 -0.81771,-0.17186 -1.23437,-0.17187 -0.9323,1e-5 -1.65626,0.29688 -2.17188,0.89062 -0.51563,0.58853 -0.77344,1.41663 -0.77344,2.48433 0,1.0678 0.25781,1.8985 0.77344,2.4922 0.51562,0.5886 1.23958,0.8828 2.17188,0.8828 0.41666,0 0.82812,-0.055 1.23437,-0.164 0.41145,-0.1146 0.82031,-0.2839 1.22656,-0.5078 l 0,1.3281 c -0.40104,0.1875 -0.81771,0.3281 -1.25,0.4219 -0.42709,0.094 -0.88281,0.1406 -1.36718,0.1406 -1.31772,0 -2.36459,-0.4141 -3.14063,-1.2422 -0.77604,-0.8281 -1.16406,-1.9453 -1.16406,-3.3516 0,-1.427 0.39062,-2.54942 1.17187,-3.36714 0.78646,-0.8177 1.86198,-1.22655 3.22657,-1.22656 0.4427,1e-5 0.87499,0.0469 1.29687,0.14062 0.42187,0.0886 0.83072,0.22397 1.22656,0.40625" />
      <path
         inkscape:connector-curvature="0"
         id="path6236"
         style="font-size:16px;fill:#333333"
         d="m 458.54196,1002.1673 c -1.16146,0 -1.96615,0.1328 -2.41406,0.3984 -0.44792,0.2657 -0.67188,0.7188 -0.67188,1.3594 0,0.5104 0.16667,0.9167 0.5,1.2188 0.33854,0.2968 0.79688,0.4453 1.375,0.4453 0.79687,0 1.43489,-0.2813 1.91407,-0.8438 0.48436,-0.5677 0.72655,-1.3203 0.72656,-2.2578 l 0,-0.3203 -1.42969,0 m 2.86719,-0.5938 0,4.9922 -1.4375,0 0,-1.3281 c -0.32813,0.5313 -0.73699,0.9245 -1.22656,1.1797 -0.48959,0.25 -1.08855,0.375 -1.79688,0.375 -0.89583,0 -1.60938,-0.25 -2.14062,-0.75 -0.52605,-0.5052 -0.78907,-1.1797 -0.78907,-2.0234 0,-0.9844 0.32813,-1.7266 0.98438,-2.2266 0.66145,-0.5 1.64583,-0.75 2.95312,-0.75 l 2.01563,0 0,-0.1406 c -1e-5,-0.6615 -0.21876,-1.1719 -0.65625,-1.53128 -0.4323,-0.36457 -1.04167,-0.54686 -1.82813,-0.54687 -0.5,1e-5 -0.98698,0.0599 -1.46093,0.17968 -0.47396,0.1198 -0.92969,0.29949 -1.36719,0.53907 l 0,-1.32813 c 0.52604,-0.20311 1.03645,-0.35416 1.53125,-0.45312 0.49479,-0.10416 0.97656,-0.15624 1.44531,-0.15625 1.26562,1e-5 2.21093,0.32813 2.83594,0.98437 0.62499,0.65626 0.93749,1.65103 0.9375,2.98433" />
      <path
         inkscape:connector-curvature="0"
         id="path6238"
         style="font-size:16px;fill:#333333"
         d="m 470.67477,998.15167 0,1.34375 c -0.40625,-0.22395 -0.81511,-0.39062 -1.22656,-0.5 -0.40625,-0.11457 -0.81771,-0.17186 -1.23437,-0.17187 -0.9323,1e-5 -1.65626,0.29688 -2.17188,0.89062 -0.51563,0.58853 -0.77344,1.41663 -0.77344,2.48433 0,1.0678 0.25781,1.8985 0.77344,2.4922 0.51562,0.5886 1.23958,0.8828 2.17188,0.8828 0.41666,0 0.82812,-0.055 1.23437,-0.164 0.41145,-0.1146 0.82031,-0.2839 1.22656,-0.5078 l 0,1.3281 c -0.40104,0.1875 -0.81771,0.3281 -1.25,0.4219 -0.42709,0.094 -0.88281,0.1406 -1.36718,0.1406 -1.31772,0 -2.36459,-0.4141 -3.14063,-1.2422 -0.77604,-0.8281 -1.16406,-1.9453 -1.16406,-3.3516 0,-1.427 0.39062,-2.54942 1.17187,-3.36714 0.78646,-0.8177 1.86198,-1.22655 3.22657,-1.22656 0.4427,1e-5 0.87499,0.0469 1.29687,0.14062 0.42187,0.0886 0.83072,0.22397 1.22656,0.40625" />
      <path
         inkscape:connector-curvature="0"
         id="path6240"
         style="font-size:16px;fill:#333333"
         d="m 480.46384,1001.2845 0,5.2812 -1.4375,0 0,-5.2343 c -1e-5,-0.8282 -0.16147,-1.44795 -0.48438,-1.85942 -0.32292,-0.41145 -0.8073,-0.61717 -1.45312,-0.61718 -0.77605,1e-5 -1.38803,0.2474 -1.83594,0.74218 -0.44792,0.49482 -0.67188,1.16932 -0.67188,2.02342 l 0,4.9453 -1.44531,0 0,-12.15622 1.44531,0 0,4.76563 c 0.34375,-0.52603 0.7474,-0.91926 1.21094,-1.17969 0.46875,-0.26041 1.00781,-0.39061 1.61719,-0.39062 1.0052,1e-5 1.76562,0.31251 2.28125,0.9375 0.51562,0.6198 0.77343,1.5339 0.77344,2.7422" />
      <path
         inkscape:connector-curvature="0"
         id="path6242"
         style="font-size:16px;fill:#333333"
         d="m 490.83102,1001.8314 0,0.7031 -6.60937,0 c 0.0625,0.9896 0.35937,1.7448 0.89062,2.2656 0.53646,0.5156 1.28125,0.7734 2.23438,0.7734 0.55208,0 1.08593,-0.068 1.60156,-0.2031 0.52083,-0.1354 1.03645,-0.3385 1.54688,-0.6094 l 0,1.3594 c -0.51564,0.2188 -1.04428,0.3854 -1.58594,0.5 -0.54167,0.1146 -1.09115,0.1719 -1.64844,0.1719 -1.39584,0 -2.50261,-0.4063 -3.32031,-1.2188 -0.8125,-0.8125 -1.21875,-1.9114 -1.21875,-3.2968 0,-1.4323 0.38541,-2.56773 1.15625,-3.40628 0.77604,-0.84374 1.82031,-1.26561 3.13281,-1.26562 1.17708,1e-5 2.10677,0.38021 2.78906,1.14062 0.6875,0.75522 1.03125,1.78388 1.03125,3.08598 m -1.4375,-0.4219 c -0.0104,-0.7865 -0.23177,-1.41407 -0.66406,-1.88283 -0.42709,-0.46874 -0.9948,-0.70311 -1.70312,-0.70312 -0.80209,1e-5 -1.44532,0.22657 -1.92969,0.67968 -0.47917,0.45314 -0.75521,1.09117 -0.82813,1.91407 l 5.125,-0.01" />
      <path
         inkscape:connector-curvature="0"
         id="path6244"
         style="font-size:16px;fill:#333333"
         d="m 493.55759,1004.5814 1.64843,0 0,1.3437 -1.28125,2.5 -1.00781,0 0.64063,-2.5 0,-1.3437" />
      <path
         inkscape:connector-curvature="0"
         id="path6246"
         style="font-size:16px;fill:#333333"
         d="m 508.95602,998.07355 0,1.35937 c -0.40625,-0.20832 -0.82813,-0.36457 -1.26562,-0.46875 -0.43751,-0.10416 -0.89063,-0.15624 -1.35938,-0.15625 -0.71354,1e-5 -1.25,0.10939 -1.60937,0.32813 -0.35417,0.21875 -0.53125,0.54688 -0.53125,0.98435 0,0.3334 0.1276,0.5964 0.38281,0.7891 0.25521,0.1875 0.76823,0.3672 1.53906,0.539 l 0.49219,0.1094 c 1.02083,0.2188 1.74479,0.5287 2.17188,0.9297 0.43228,0.3958 0.64843,0.9505 0.64843,1.6641 0,0.8125 -0.32292,1.4557 -0.96875,1.9297 -0.64063,0.4739 -1.52344,0.7109 -2.64843,0.7109 -0.46876,0 -0.95834,-0.047 -1.46875,-0.1406 -0.50521,-0.089 -1.03907,-0.224 -1.60157,-0.4063 l 0,-1.4844 c 0.53125,0.2761 1.05469,0.4844 1.57032,0.625 0.51562,0.1355 1.02603,0.2032 1.53125,0.2032 0.67708,0 1.19791,-0.1146 1.5625,-0.3438 0.36457,-0.2344 0.54687,-0.5625 0.54687,-0.9844 0,-0.3906 -0.13282,-0.6901 -0.39844,-0.8984 -0.26042,-0.2083 -0.83594,-0.4088 -1.72656,-0.6016 l -0.5,-0.1171 c -0.89063,-0.1875 -1.53385,-0.474 -1.92969,-0.8594 -0.39583,-0.3906 -0.59375,-0.9245 -0.59375,-1.6016 0,-0.82289 0.29167,-1.4583 0.875,-1.90623 0.58334,-0.44791 1.41146,-0.67186 2.48438,-0.67187 0.53124,1e-5 1.03124,0.0391 1.5,0.11718 0.46874,0.0781 0.90103,0.19533 1.29687,0.35157" />
      <path
         inkscape:connector-curvature="0"
         id="path6248"
         style="font-size:16px;fill:#333333"
         d="m 513.14352,995.33136 0,2.48437 2.96094,0 0,1.11719 -2.96094,0 0,4.74998 c 0,0.7136 0.0964,1.1719 0.28907,1.375 0.19791,0.2031 0.59635,0.3047 1.19531,0.3047 l 1.47656,0 0,1.2031 -1.47656,0 c -1.10938,0 -1.875,-0.2057 -2.29688,-0.6172 -0.42187,-0.4166 -0.63281,-1.1718 -0.63281,-2.2656 l 0,-4.74998 -1.05469,0 0,-1.11719 1.05469,0 0,-2.48437 1.44531,0" />
      <path
         inkscape:connector-curvature="0"
         id="path6250"
         style="font-size:16px;fill:#333333"
         d="m 521.97946,1002.1673 c -1.16146,0 -1.96615,0.1328 -2.41406,0.3984 -0.44792,0.2657 -0.67188,0.7188 -0.67188,1.3594 0,0.5104 0.16667,0.9167 0.5,1.2188 0.33854,0.2968 0.79688,0.4453 1.375,0.4453 0.79687,0 1.43489,-0.2813 1.91407,-0.8438 0.48436,-0.5677 0.72655,-1.3203 0.72656,-2.2578 l 0,-0.3203 -1.42969,0 m 2.86719,-0.5938 0,4.9922 -1.4375,0 0,-1.3281 c -0.32813,0.5313 -0.73699,0.9245 -1.22656,1.1797 -0.48959,0.25 -1.08855,0.375 -1.79688,0.375 -0.89583,0 -1.60938,-0.25 -2.14062,-0.75 -0.52605,-0.5052 -0.78907,-1.1797 -0.78907,-2.0234 0,-0.9844 0.32813,-1.7266 0.98438,-2.2266 0.66145,-0.5 1.64583,-0.75 2.95312,-0.75 l 2.01563,0 0,-0.1406 c -10e-6,-0.6615 -0.21876,-1.1719 -0.65625,-1.53128 -0.4323,-0.36457 -1.04167,-0.54686 -1.82813,-0.54687 -0.5,1e-5 -0.98698,0.0599 -1.46093,0.17968 -0.47396,0.1198 -0.92969,0.29949 -1.36719,0.53907 l 0,-1.32813 c 0.52604,-0.20311 1.03645,-0.35416 1.53125,-0.45312 0.49479,-0.10416 0.97656,-0.15624 1.44531,-0.15625 1.26562,1e-5 2.21093,0.32813 2.83594,0.98437 0.62499,0.65626 0.93749,1.65103 0.9375,2.98433" />
      <path
         inkscape:connector-curvature="0"
         id="path6252"
         style="font-size:16px;fill:#333333"
         d="m 533.57321,1002.0892 c -10e-6,-1.0417 -0.21615,-1.849 -0.64844,-2.4219 -0.42709,-0.57291 -1.02865,-0.85937 -1.80468,-0.85938 -0.77084,1e-5 -1.3724,0.28647 -1.80469,0.85938 -0.42709,0.5729 -0.64063,1.3802 -0.64063,2.4219 0,1.0364 0.21354,1.8411 0.64063,2.414 0.43229,0.573 1.03385,0.8594 1.80469,0.8594 0.77603,0 1.37759,-0.2864 1.80468,-0.8594 0.43229,-0.5729 0.64843,-1.3776 0.64844,-2.414 m 1.4375,3.3906 c -10e-6,1.4896 -0.33074,2.5964 -0.99219,3.3203 -0.66146,0.7292 -1.67448,1.0938 -3.03906,1.0938 -0.50521,0 -0.98177,-0.039 -1.42969,-0.1172 -0.44792,-0.073 -0.88281,-0.1875 -1.30468,-0.3438 l 0,-1.3984 c 0.42187,0.2291 0.83854,0.3984 1.25,0.5078 0.41145,0.1094 0.83072,0.1641 1.25781,0.1641 0.9427,0 1.64843,-0.2474 2.11719,-0.7422 0.46874,-0.4896 0.70311,-1.2318 0.70312,-2.2266 l 0,-0.7109 c -0.29688,0.5156 -0.67709,0.901 -1.14062,1.1562 -0.46355,0.2552 -1.01824,0.3828 -1.66407,0.3828 -1.07292,0 -1.9375,-0.4088 -2.59375,-1.2265 -0.65625,-0.8177 -0.98437,-1.9011 -0.98437,-3.25 0,-1.3542 0.32812,-2.44012 0.98437,-3.25784 0.65625,-0.8177 1.52083,-1.22655 2.59375,-1.22656 0.64583,1e-5 1.20052,0.12761 1.66407,0.38281 0.46353,0.25522 0.84374,0.64063 1.14062,1.15625 l 0,-1.32813 1.4375,0 0,7.66407" />
      <path
         inkscape:connector-curvature="0"
         id="path6254"
         style="font-size:16px;fill:#333333"
         d="m 545.45602,1001.8314 0,0.7031 -6.60937,0 c 0.0625,0.9896 0.35937,1.7448 0.89062,2.2656 0.53646,0.5156 1.28125,0.7734 2.23438,0.7734 0.55208,0 1.08593,-0.068 1.60156,-0.2031 0.52083,-0.1354 1.03645,-0.3385 1.54688,-0.6094 l 0,1.3594 c -0.51564,0.2188 -1.04428,0.3854 -1.58594,0.5 -0.54167,0.1146 -1.09115,0.1719 -1.64844,0.1719 -1.39584,0 -2.50261,-0.4063 -3.32031,-1.2188 -0.8125,-0.8125 -1.21875,-1.9114 -1.21875,-3.2968 0,-1.4323 0.38541,-2.56773 1.15625,-3.40628 0.77604,-0.84374 1.82031,-1.26561 3.13281,-1.26562 1.17708,1e-5 2.10677,0.38021 2.78906,1.14062 0.6875,0.75522 1.03125,1.78388 1.03125,3.08598 m -1.4375,-0.4219 c -0.0104,-0.7865 -0.23177,-1.41407 -0.66406,-1.88283 -0.42709,-0.46874 -0.9948,-0.70311 -1.70312,-0.70312 -0.80209,1e-5 -1.44532,0.22657 -1.92969,0.67968 -0.47917,0.45314 -0.75521,1.09117 -0.82813,1.91407 l 5.125,-0.01" />
      <path
         inkscape:connector-curvature="0"
         id="path6256"
         style="font-size:16px;fill:#333333"
         d="m 547.58884,994.42511 1.25,0 c 0.78124,1.22918 1.36458,2.4323 1.75,3.60937 0.39062,1.1771 0.58593,2.34632 0.58593,3.50782 0,1.1667 -0.19531,2.3411 -0.58593,3.5234 -0.38542,1.1823 -0.96876,2.3855 -1.75,3.6094 l -1.25,0 c 0.6927,-1.1927 1.20833,-2.3776 1.54687,-3.5547 0.34375,-1.1823 0.51562,-2.375 0.51563,-3.5781 -10e-6,-1.2031 -0.17188,-2.39062 -0.51563,-3.5625 -0.33854,-1.17187 -0.85417,-2.35676 -1.54687,-3.55469" />
    </g>
    <text
       id="text4378"
       y="1080.4886"
       x="266.93588"
       style="font-size:14px;font-style:normal;font-variant:normal;font-weight:normal;font-stretch:normal;text-align:end;text-anchor:end;fill:#000000;fill-opacity:1;stroke:none;display:inline;font-family:DejaVu Sans;-inkscape-font-specification:DejaVu Sans"
       xml:space="preserve"><tspan
         y="1080.4886"
         x="266.93588"
         sodipodi:role="line"
         id="tspan4380"
         style="font-size:16px;text-align:end;text-anchor:end;fill:#000000">checkout</tspan></text>
    <text
       id="text4386"
       y="1080.7087"
       x="475.9657"
       style="font-size:14px;font-style:normal;font-variant:normal;font-weight:normal;font-stretch:normal;text-align:end;text-anchor:end;fill:#000000;fill-opacity:1;stroke:none;display:inline;font-family:DejaVu Sans;-inkscape-font-specification:DejaVu Sans"
       xml:space="preserve"><tspan
         y="1080.7087"
         x="475.9657"
         sodipodi:role="line"
         id="tspan4388"
         style="font-size:16px;text-align:end;text-anchor:end;fill:#000000">add</tspan></text>
    <g
       transform="translate(51.816725,-31.62329)"
       id="text4390"
       style="font-size:14px;font-style:normal;font-variant:normal;font-weight:normal;font-stretch:normal;text-align:end;text-anchor:end;fill:#000000;fill-opacity:1;stroke:none;display:inline;font-family:DejaVu Sans;-inkscape-font-specification:DejaVu Sans">
      <path
         inkscape:connector-curvature="0"
         id="path4592"
         style="font-size:16px;fill:#000000"
         d="m 363.59512,1002.6884 0,1.3437 c -0.40625,-0.2239 -0.81511,-0.3906 -1.22656,-0.5 -0.40626,-0.1146 -0.81771,-0.1719 -1.23437,-0.1719 -0.9323,0 -1.65626,0.2969 -2.17188,0.8907 -0.51563,0.5885 -0.77344,1.4166 -0.77344,2.4843 0,1.0677 0.25781,1.8985 0.77344,2.4922 0.51562,0.5886 1.23958,0.8828 2.17188,0.8828 0.41666,0 0.82811,-0.055 1.23437,-0.164 0.41145,-0.1146 0.82031,-0.2839 1.22656,-0.5078 l 0,1.3281 c -0.40105,0.1875 -0.81771,0.3281 -1.25,0.4219 -0.42709,0.094 -0.88281,0.1406 -1.36718,0.1406 -1.31772,0 -2.36459,-0.4141 -3.14063,-1.2422 -0.77604,-0.8281 -1.16406,-1.9453 -1.16406,-3.3516 0,-1.427 0.39062,-2.5494 1.17187,-3.3672 0.78646,-0.8177 1.86198,-1.2265 3.22657,-1.2265 0.4427,0 0.87499,0.047 1.29687,0.1406 0.42187,0.089 0.83072,0.224 1.22656,0.4063" />
      <path
         inkscape:connector-curvature="0"
         id="path4594"
         style="font-size:16px;fill:#000000"
         d="m 369.50137,1003.3602 c -0.77083,0 -1.38021,0.3021 -1.82812,0.9063 -0.44792,0.5989 -0.67188,1.4219 -0.67188,2.4687 0,1.0469 0.22135,1.8724 0.66407,2.4766 0.44791,0.599 1.05989,0.8984 1.83593,0.8984 0.76562,0 1.37239,-0.3021 1.82032,-0.9062 0.44791,-0.6042 0.67186,-1.4271 0.67187,-2.4688 -10e-6,-1.0364 -0.22396,-1.8567 -0.67187,-2.4609 -0.44793,-0.6094 -1.0547,-0.9141 -1.82032,-0.9141 m 0,-1.2187 c 1.25,0 2.23177,0.4062 2.94532,1.2187 0.71353,0.8125 1.0703,1.9375 1.07031,3.375 -10e-6,1.4323 -0.35678,2.5573 -1.07031,3.375 -0.71355,0.8125 -1.69532,1.2188 -2.94532,1.2188 -1.25521,0 -2.23958,-0.4063 -2.95312,-1.2188 -0.70834,-0.8177 -1.0625,-1.9427 -1.0625,-3.375 0,-1.4375 0.35416,-2.5625 1.0625,-3.375 0.71354,-0.8125 1.69791,-1.2187 2.95312,-1.2187" />
      <path
         inkscape:connector-curvature="0"
         id="path4596"
         style="font-size:16px;fill:#000000"
         d="m 382.7045,1004.0321 c 0.35936,-0.6458 0.78905,-1.1224 1.28906,-1.4297 0.49999,-0.3073 1.08853,-0.4609 1.76563,-0.4609 0.91144,0 1.61457,0.3203 2.10937,0.9609 0.49478,0.6354 0.74217,1.5417 0.74219,2.7188 l 0,5.2812 -1.44531,0 0,-5.2344 c -2e-5,-0.8385 -0.14845,-1.4609 -0.44532,-1.8671 -0.29688,-0.4063 -0.75001,-0.6094 -1.35937,-0.6094 -0.7448,0 -1.33334,0.2474 -1.76563,0.7422 -0.4323,0.4948 -0.64844,1.1692 -0.64843,2.0234 l 0,4.9453 -1.44532,0 0,-5.2344 c 0,-0.8437 -0.14844,-1.4661 -0.44531,-1.8671 -0.29688,-0.4063 -0.75521,-0.6094 -1.375,-0.6094 -0.73438,0 -1.31771,0.25 -1.75,0.75 -0.43229,0.4948 -0.64844,1.1667 -0.64844,2.0156 l 0,4.9453 -1.44531,0 0,-8.75 1.44531,0 0,1.3594 c 0.32813,-0.5365 0.72135,-0.9323 1.17969,-1.1875 0.45833,-0.2552 1.0026,-0.3828 1.63281,-0.3828 0.63541,0 1.17448,0.1614 1.61719,0.4844 0.44791,0.3229 0.77864,0.7916 0.99219,1.4062" />
      <path
         inkscape:connector-curvature="0"
         id="path4598"
         style="font-size:16px;fill:#000000"
         d="m 398.29825,1004.0321 c 0.35936,-0.6458 0.78905,-1.1224 1.28906,-1.4297 0.49999,-0.3073 1.08853,-0.4609 1.76563,-0.4609 0.91144,0 1.61457,0.3203 2.10937,0.9609 0.49478,0.6354 0.74217,1.5417 0.74219,2.7188 l 0,5.2812 -1.44531,0 0,-5.2344 c -2e-5,-0.8385 -0.14845,-1.4609 -0.44532,-1.8671 -0.29688,-0.4063 -0.75001,-0.6094 -1.35937,-0.6094 -0.7448,0 -1.33334,0.2474 -1.76563,0.7422 -0.4323,0.4948 -0.64844,1.1692 -0.64843,2.0234 l 0,4.9453 -1.44532,0 0,-5.2344 c 0,-0.8437 -0.14844,-1.4661 -0.44531,-1.8671 -0.29688,-0.4063 -0.75521,-0.6094 -1.375,-0.6094 -0.73438,0 -1.31771,0.25 -1.75,0.75 -0.43229,0.4948 -0.64844,1.1667 -0.64844,2.0156 l 0,4.9453 -1.44531,0 0,-8.75 1.44531,0 0,1.3594 c 0.32813,-0.5365 0.72135,-0.9323 1.17969,-1.1875 0.45833,-0.2552 1.0026,-0.3828 1.63281,-0.3828 0.63541,0 1.17448,0.1614 1.61719,0.4844 0.44791,0.3229 0.77864,0.7916 0.99219,1.4062" />
      <path
         inkscape:connector-curvature="0"
         id="path4600"
         style="font-size:16px;fill:#000000"
         d="m 407.0795,1002.3524 1.4375,0 0,8.75 -1.4375,0 0,-8.75 m 0,-3.40623 1.4375,0 0,1.82033 -1.4375,0 0,-1.82033" />
      <path
         inkscape:connector-curvature="0"
         id="path4602"
         style="font-size:16px;fill:#000000"
         d="m 412.93887,999.86804 0,2.48436 2.96094,0 0,1.1172 -2.96094,0 0,4.75 c 0,0.7135 0.0963,1.1719 0.28907,1.375 0.19791,0.2031 0.59635,0.3047 1.19531,0.3047 l 1.47656,0 0,1.2031 -1.47656,0 c -1.10938,0 -1.875,-0.2057 -2.29688,-0.6172 -0.42187,-0.4166 -0.63281,-1.1718 -0.63281,-2.2656 l 0,-4.75 -1.05469,0 0,-1.1172 1.05469,0 0,-2.48436 1.44531,0" />
    </g>
    <text
       id="text4394"
       y="903.54333"
       x="44.464478"
       style="font-size:14px;font-style:normal;font-variant:normal;font-weight:normal;font-stretch:normal;text-align:start;text-anchor:start;fill:#000000;fill-opacity:1;stroke:none;display:inline;font-family:DejaVu Sans;-inkscape-font-specification:DejaVu Sans"
       xml:space="preserve"><tspan
         y="903.54333"
         x="44.464478"
         sodipodi:role="line"
         id="tspan4396"
         style="font-size:16px;text-align:start;text-anchor:start;fill:#000000">fetch</tspan></text>
    <g
       id="text4398"
       style="font-size:14px;font-style:normal;font-variant:normal;font-weight:normal;font-stretch:normal;text-align:start;text-anchor:start;fill:#000000;fill-opacity:1;stroke:none;display:inline;font-family:DejaVu Sans;-inkscape-font-specification:DejaVu Sans">
      <path
         id="path4581"
         style="font-size:16px;fill:#000000"
         d="m 296.31516,945.28278 c 0.35936,-0.64583 0.78905,-1.12239 1.28906,-1.42969 0.49999,-0.30728 1.08853,-0.46093 1.76562,-0.46094 0.91145,10e-6 1.61457,0.32032 2.10938,0.96094 0.49478,0.63542 0.74217,1.54167 0.74219,2.71875 l 0,5.28125 -1.44532,0 0,-5.23438 c -1e-5,-0.83853 -0.14845,-1.46093 -0.44531,-1.86718 -0.29689,-0.40625 -0.75001,-0.60937 -1.35937,-0.60938 -0.74481,10e-6 -1.33335,0.2474 -1.76563,0.74219 -0.4323,0.4948 -0.64845,1.16928 -0.64844,2.02344 l 0,4.94531 -1.44531,0 0,-5.23438 c -1e-5,-0.84374 -0.14844,-1.46614 -0.44531,-1.86718 -0.29688,-0.40625 -0.75522,-0.60937 -1.375,-0.60938 -0.73438,10e-6 -1.31771,0.25001 -1.75,0.75 -0.4323,0.4948 -0.64844,1.16667 -0.64844,2.01563 l 0,4.94531 -1.44531,0 0,-8.75 1.44531,0 0,1.35937 c 0.32812,-0.53645 0.72135,-0.93228 1.17969,-1.1875 0.45833,-0.2552 1.0026,-0.3828 1.63281,-0.38281 0.63541,10e-6 1.17447,0.16147 1.61719,0.48438 0.44791,0.32292 0.77864,0.79167 0.99219,1.40625"
         inkscape:connector-curvature="0" />
      <path
         id="path4583"
         style="font-size:16px;fill:#000000"
         d="m 312.58078,947.61871 0,0.70313 -6.60937,0 c 0.0625,0.98958 0.35937,1.74479 0.89062,2.26562 0.53645,0.51563 1.28125,0.77344 2.23438,0.77344 0.55207,0 1.08593,-0.0677 1.60156,-0.20312 0.52082,-0.13542 1.03645,-0.33854 1.54687,-0.60938 l 0,1.35938 c -0.51563,0.21875 -1.04428,0.38541 -1.58593,0.5 -0.54168,0.11458 -1.09116,0.17187 -1.64844,0.17187 -1.39584,0 -2.50261,-0.40625 -3.32031,-1.21875 -0.81251,-0.8125 -1.21876,-1.91145 -1.21875,-3.29687 -10e-6,-1.43229 0.38541,-2.56771 1.15625,-3.40625 0.77603,-0.84375 1.8203,-1.26562 3.13281,-1.26563 1.17707,10e-6 2.10676,0.38022 2.78906,1.14063 0.68749,0.75521 1.03124,1.78386 1.03125,3.08593 m -1.4375,-0.42187 c -0.0104,-0.78645 -0.23178,-1.41406 -0.66406,-1.88281 -0.42709,-0.46875 -0.9948,-0.70312 -1.70313,-0.70313 -0.80209,10e-6 -1.44531,0.22657 -1.92968,0.67969 -0.47917,0.45313 -0.75522,1.09115 -0.82813,1.91406 l 5.125,-0.008"
         inkscape:connector-curvature="0" />
      <path
         id="path4585"
         style="font-size:16px;fill:#000000"
         d="m 320.01047,944.94684 c -0.16147,-0.0937 -0.33855,-0.16145 -0.53125,-0.20313 -0.18751,-0.0469 -0.39584,-0.0703 -0.625,-0.0703 -0.81251,10e-6 -1.43751,0.26563 -1.875,0.79688 -0.4323,0.52604 -0.64844,1.28386 -0.64844,2.27343 l 0,4.60938 -1.44531,0 0,-8.75 1.44531,0 0,1.35937 c 0.30208,-0.53124 0.69531,-0.92447 1.17969,-1.17968 0.48437,-0.26041 1.07291,-0.39062 1.76562,-0.39063 0.099,10e-6 0.20833,0.008 0.32813,0.0234 0.11978,0.0104 0.2526,0.0287 0.39844,0.0547 l 0.008,1.47656"
         inkscape:connector-curvature="0" />
      <path
         id="path4587"
         style="font-size:16px;fill:#000000"
         d="m 327.01047,947.87653 c -10e-6,-1.04167 -0.21616,-1.84896 -0.64844,-2.42188 -0.42709,-0.57291 -1.02865,-0.85937 -1.80469,-0.85937 -0.77083,0 -1.3724,0.28646 -1.80468,0.85937 -0.42709,0.57292 -0.64063,1.38021 -0.64063,2.42188 0,1.03646 0.21354,1.84114 0.64063,2.41406 0.43228,0.57292 1.03385,0.85937 1.80468,0.85937 0.77604,0 1.3776,-0.28645 1.80469,-0.85937 0.43228,-0.57292 0.64843,-1.3776 0.64844,-2.41406 m 1.4375,3.39062 c -10e-6,1.48958 -0.33074,2.59635 -0.99219,3.32031 -0.66147,0.72917 -1.67449,1.09375 -3.03906,1.09375 -0.50521,0 -0.98178,-0.0391 -1.42969,-0.11718 -0.44792,-0.0729 -0.88281,-0.18751 -1.30469,-0.34375 l 0,-1.39844 c 0.42188,0.22916 0.83854,0.39843 1.25,0.50781 0.41146,0.10937 0.83073,0.16406 1.25782,0.16406 0.9427,0 1.64843,-0.24739 2.11718,-0.74218 0.46875,-0.48959 0.70312,-1.23178 0.70313,-2.22657 l 0,-0.71093 c -0.29688,0.51562 -0.67709,0.90104 -1.14063,1.15625 -0.46354,0.2552 -1.01823,0.38281 -1.66406,0.38281 -1.07292,0 -1.9375,-0.40886 -2.59375,-1.22656 -0.65625,-0.81771 -0.98438,-1.90104 -0.98437,-3.25 -10e-6,-1.35416 0.32812,-2.4401 0.98437,-3.25782 0.65625,-0.8177 1.52083,-1.22655 2.59375,-1.22656 0.64583,10e-6 1.20052,0.12761 1.66406,0.38281 0.46354,0.25522 0.84375,0.64064 1.14063,1.15625 l 0,-1.32812 1.4375,0 0,7.66406"
         inkscape:connector-curvature="0" />
      <path
         id="path4589"
         style="font-size:16px;fill:#000000"
         d="m 338.89328,947.61871 0,0.70313 -6.60937,0 c 0.0625,0.98958 0.35937,1.74479 0.89062,2.26562 0.53645,0.51563 1.28125,0.77344 2.23438,0.77344 0.55207,0 1.08593,-0.0677 1.60156,-0.20312 0.52082,-0.13542 1.03645,-0.33854 1.54687,-0.60938 l 0,1.35938 c -0.51563,0.21875 -1.04428,0.38541 -1.58593,0.5 -0.54168,0.11458 -1.09116,0.17187 -1.64844,0.17187 -1.39584,0 -2.50261,-0.40625 -3.32031,-1.21875 -0.81251,-0.8125 -1.21876,-1.91145 -1.21875,-3.29687 -10e-6,-1.43229 0.38541,-2.56771 1.15625,-3.40625 0.77603,-0.84375 1.8203,-1.26562 3.13281,-1.26563 1.17707,10e-6 2.10676,0.38022 2.78906,1.14063 0.68749,0.75521 1.03124,1.78386 1.03125,3.08593 m -1.4375,-0.42187 c -0.0104,-0.78645 -0.23178,-1.41406 -0.66406,-1.88281 -0.42709,-0.46875 -0.9948,-0.70312 -1.70313,-0.70313 -0.80209,10e-6 -1.44531,0.22657 -1.92968,0.67969 -0.47917,0.45313 -0.75522,1.09115 -0.82813,1.91406 l 5.125,-0.008"
         inkscape:connector-curvature="0" />
    </g>
    <text
       xml:space="preserve"
       style="font-size:14px;font-style:normal;font-variant:normal;font-weight:normal;font-stretch:normal;text-align:start;text-anchor:start;fill:#000000;fill-opacity:1;stroke:none;display:inline;font-family:DejaVu Sans;-inkscape-font-specification:DejaVu Sans"
       x="343.3494"
       y="872.26654"
       id="text6207"><tspan
         style="font-size:16px;text-align:start;text-anchor:start;fill:#000000"
         id="tspan6209"
         sodipodi:role="line"
         x="343.3494"
         y="872.26654">Note: </tspan><tspan
         id="tspan7509"
         style="font-size:16px;text-align:start;text-anchor:start;fill:#000000"
         sodipodi:role="line"
         x="343.3494"
         y="892.26654">pull = fetch + merge</tspan></text>
    <path
       inkscape:connector-curvature="0"
       inkscape:connector-type="polyline"
       id="path6215"
       d="m 496.06299,1101.9685 0,-56.6929"
       style="fill:none;stroke:#666666;stroke-width:3.54330707;stroke-linecap:butt;stroke-linejoin:miter;stroke-opacity:1;marker-end:url(#Arrow2MendFn);display:inline"
       sodipodi:nodetypes="cc" />
    <path
       sodipodi:nodetypes="cc"
       style="fill:none;stroke:#666666;stroke-width:3.54330707;stroke-linecap:butt;stroke-linejoin:miter;stroke-opacity:1;marker-end:url(#Arrow2MendFn);display:inline"
       d="m 291.98425,1045.2756 0,49.6063"
       id="path6217"
       inkscape:connector-type="polyline"
       inkscape:connector-curvature="0" />
    <path
       sodipodi:nodetypes="cccc"
       inkscape:connector-curvature="0"
       id="path7511"
       d="m 339.81102,857.02366 c -7.08661,0 -6.17322,0 -6.17322,0 l 0,42.51969 6.17322,0"
       style="fill:none;stroke:#000000;stroke-width:1.77165353;stroke-linecap:butt;stroke-linejoin:miter;stroke-opacity:1" />
    <path
       inkscape:connector-curvature="0"
       id="path3235"
       d="m 262.20472,967.32288 106.12599,0"
       style="fill:none;stroke:#666666;stroke-width:3.54330707;stroke-linecap:butt;stroke-linejoin:miter;stroke-miterlimit:4;stroke-opacity:1;stroke-dasharray:none;marker-end:url(#Arrow2Mendd)"
       sodipodi:nodetypes="cc" />
    <path
       style="fill:none;stroke:#666666;stroke-width:3.54330707;stroke-linecap:butt;stroke-linejoin:miter;stroke-miterlimit:4;stroke-opacity:1;stroke-dasharray:none;marker-end:url(#Arrow2Mendd)"
       d="M 524.40945,1009.8426 481.88976,960.23627"
       id="path4634"
       inkscape:connector-curvature="0"
       sodipodi:nodetypes="cc" />
    <path
       style="fill:none;stroke:#666666;stroke-width:3.54330707;stroke-linecap:butt;stroke-linejoin:miter;stroke-miterlimit:4;stroke-opacity:1;stroke-dasharray:none;marker-end:url(#Arrow2Mendd)"
       d="M 347.24409,931.88981 245.55266,871.14997"
       id="path4636"
       inkscape:connector-curvature="0"
       sodipodi:nodetypes="cc" />
    <text
       xml:space="preserve"
       style="font-size:14px;font-style:normal;font-variant:normal;font-weight:normal;font-stretch:normal;text-align:end;text-anchor:end;fill:#000000;fill-opacity:1;stroke:none;display:inline;font-family:DejaVu Sans;-inkscape-font-specification:DejaVu Sans"
       x="266.56207"
       y="903.54333"
       id="text4638"><tspan
         style="font-size:16px;text-align:end;text-anchor:end;fill:#000000"
         id="tspan4640"
         sodipodi:role="line"
         x="266.56207"
         y="903.54333">push</tspan></text>
    <path
       style="fill:none;stroke:#666666;stroke-width:3.54330707;stroke-linecap:butt;stroke-linejoin:miter;stroke-miterlimit:4;stroke-opacity:1;stroke-dasharray:none;marker-end:none"
       d="m 292.55119,967.32288 c 0,0 26.71435,-1.83951 42.51968,14.17323 15.80533,16.01274 18.21116,51.93209 19.25984,70.86619 1.04867,18.934 0,42.5196 0,42.5196"
       id="path3161"
       inkscape:connector-curvature="0"
       sodipodi:nodetypes="czzc" />
    <path
       inkscape:connector-curvature="0"
       inkscape:connector-type="polyline"
       id="path5783"
       d="m 354.33071,1080.7087 0,14.1732"
       style="fill:none;stroke:#666666;stroke-width:3.54330707;stroke-linecap:butt;stroke-linejoin:miter;stroke-opacity:1;marker-end:url(#Arrow2MendFn);display:inline"
       sodipodi:nodetypes="cc" />
    <path
       sodipodi:nodetypes="cc"
       style="fill:none;stroke:#666666;stroke-width:1.77165353;stroke-linecap:butt;stroke-linejoin:miter;stroke-miterlimit:4;stroke-opacity:1;stroke-dasharray:none;marker-end:url(#Arrow2Mendd)"
       d="m 346.0072,999.8358 80.91694,10.0068"
       id="path3220"
       inkscape:connector-curvature="0" />
    <path
       inkscape:connector-curvature="0"
       id="path3222"
       d="M 292.41404,1055.4903 426.92415,1038.189"
       style="fill:none;stroke:#666666;stroke-width:1.77165353;stroke-linecap:butt;stroke-linejoin:miter;stroke-miterlimit:4;stroke-opacity:1;stroke-dasharray:none;marker-end:url(#Arrow2Mendd)"
       sodipodi:nodetypes="cc" />
    <path
       inkscape:connector-curvature="0"
       id="path3193"
       d="m 320.41943,916.7048 -76.62848,22.31281"
       style="fill:none;stroke:#666666;stroke-width:1.77165353;stroke-linecap:butt;stroke-linejoin:miter;stroke-miterlimit:4;stroke-opacity:1;stroke-dasharray:none;marker-end:url(#Arrow2Mendd)"
       sodipodi:nodetypes="cc" />
  </g>
</svg>
