<?xml version="1.0" encoding="UTF-8" standalone="no"?>
<!-- Created with Inkscape (http://www.inkscape.org/) -->

<svg
   xmlns:dc="http://purl.org/dc/elements/1.1/"
   xmlns:cc="http://creativecommons.org/ns#"
   xmlns:rdf="http://www.w3.org/1999/02/22-rdf-syntax-ns#"
   xmlns:svg="http://www.w3.org/2000/svg"
   xmlns="http://www.w3.org/2000/svg"
   xmlns:xlink="http://www.w3.org/1999/xlink"
   xmlns:sodipodi="http://sodipodi.sourceforge.net/DTD/sodipodi-0.dtd"
   xmlns:inkscape="http://www.inkscape.org/namespaces/inkscape"
   width="531.49603"
   height="25.683569"
   id="svg2"
   version="1.1"
   inkscape:version="0.48.4 r9939"
   sodipodi:docname="Out.15.05.svg">
  <defs
     id="defs4">
    <linearGradient
       id="linearGradient3016">
      <stop
         style="stop-color:#888888;stop-opacity:1;"
         offset="0"
         id="stop3018" />
      <stop
         style="stop-color:#ffffff;stop-opacity:0"
         offset="1"
         id="stop3020" />
    </linearGradient>
    <linearGradient
       inkscape:collect="always"
       xlink:href="#linearGradient3888-9"
       id="linearGradient3450"
       gradientUnits="userSpaceOnUse"
       gradientTransform="matrix(1.1394611,0,0,0.58518512,-681.81649,529.05304)"
       x1="59.350403"
       y1="-60.236233"
       x2="87.696861"
       y2="31.889753" />
    <linearGradient
       inkscape:collect="always"
       id="linearGradient3888-9">
      <stop
         style="stop-color:#888888;stop-opacity:1;"
         offset="0"
         id="stop3890-4" />
      <stop
         style="stop-color:#888888;stop-opacity:0;"
         offset="1"
         id="stop3892-6" />
    </linearGradient>
    <linearGradient
       inkscape:collect="always"
       xlink:href="#linearGradient3870-2"
       id="linearGradient3452"
       gradientUnits="userSpaceOnUse"
       gradientTransform="matrix(1.1394611,0,0,0.58518512,-681.81649,529.05304)"
       x1="95.22641"
       y1="-59.793339"
       x2="123.12993"
       y2="3.5432959" />
    <linearGradient
       id="linearGradient3870-2">
      <stop
         style="stop-color:#000250;stop-opacity:1;"
         offset="0"
         id="stop3872-0" />
      <stop
         style="stop-color:#000185;stop-opacity:0;"
         offset="1"
         id="stop3874-3" />
    </linearGradient>
    <linearGradient
       y2="31.889753"
       x2="87.696861"
       y1="-60.236233"
       x1="59.350403"
       gradientTransform="matrix(1.1394611,0,0,0.58518512,-33.544783,977.08644)"
       gradientUnits="userSpaceOnUse"
       id="linearGradient3196"
       xlink:href="#linearGradient3888-9"
       inkscape:collect="always" />
    <linearGradient
       y2="3.5432959"
       x2="123.12993"
       y1="-59.793339"
       x1="95.22641"
       gradientTransform="matrix(1.1394611,0,0,0.58518512,-33.544783,977.08644)"
       gradientUnits="userSpaceOnUse"
       id="linearGradient3198"
       xlink:href="#linearGradient3870-2"
       inkscape:collect="always" />
    <linearGradient
       y2="3.8477914"
       x2="145.42229"
       y1="-59.938171"
       x1="131.85765"
       gradientTransform="matrix(0.37876389,0,0,0.3066416,-659.35006,451.53492)"
       gradientUnits="userSpaceOnUse"
       id="linearGradient3415"
       xlink:href="#linearGradient3249"
       inkscape:collect="always" />
    <linearGradient
       id="linearGradient3249">
      <stop
         id="stop3251"
         offset="0"
         style="stop-color:#888888;stop-opacity:1;" />
      <stop
         id="stop3253"
         offset="1"
         style="stop-color:#ffffff;stop-opacity:1;" />
    </linearGradient>
    <linearGradient
       y2="8.1136484"
       x2="171.44165"
       y1="-71.377922"
       x1="156.54872"
       gradientTransform="matrix(0.37876389,0,0,0.3066416,-659.35006,451.53492)"
       gradientUnits="userSpaceOnUse"
       id="linearGradient3417"
       xlink:href="#linearGradient3870-2-8"
       inkscape:collect="always" />
    <linearGradient
       id="linearGradient3870-2-8">
      <stop
         style="stop-color:#000250;stop-opacity:1;"
         offset="0"
         id="stop3872-0-3" />
      <stop
         style="stop-color:#000185;stop-opacity:0;"
         offset="1"
         id="stop3874-3-7" />
    </linearGradient>
    <linearGradient
       inkscape:collect="always"
       xlink:href="#linearGradient3249"
       id="linearGradient3097"
       gradientUnits="userSpaceOnUse"
       gradientTransform="matrix(0.61529922,0,0,0.4888793,-47.261003,916.23077)"
       x1="131.85765"
       y1="-59.938171"
       x2="145.42229"
       y2="3.8477914" />
    <linearGradient
       inkscape:collect="always"
       xlink:href="#linearGradient3870-2-8"
       id="linearGradient3099"
       gradientUnits="userSpaceOnUse"
       gradientTransform="matrix(0.61529922,0,0,0.4888793,-47.261003,916.23077)"
       x1="156.54872"
       y1="-71.377922"
       x2="171.44165"
       y2="8.1136484" />
    <linearGradient
       inkscape:collect="always"
       xlink:href="#linearGradient3016"
       id="linearGradient3022"
       gradientUnits="userSpaceOnUse"
       gradientTransform="matrix(0.61529922,0,0,0.25184276,-25.992892,1055.6411)"
       x1="131.85765"
       y1="-59.938171"
       x2="145.42229"
       y2="3.8477914" />
    <linearGradient
       inkscape:collect="always"
       xlink:href="#linearGradient3870-2-8"
       id="linearGradient3024"
       gradientUnits="userSpaceOnUse"
       gradientTransform="matrix(0.61529922,0,0,0.25184276,-25.992892,1055.6411)"
       x1="156.54872"
       y1="-71.377922"
       x2="171.44165"
       y2="8.1136484" />
  </defs>
  <sodipodi:namedview
     id="base"
     pagecolor="#dcdcdc"
     bordercolor="#ff0606"
     borderopacity="1"
     inkscape:pageopacity="1"
     inkscape:pageshadow="2"
     inkscape:zoom="1.5307006"
     inkscape:cx="352.7302"
     inkscape:cy="10.360128"
     inkscape:document-units="mm"
     inkscape:current-layer="layer1"
     showgrid="true"
     units="mm"
     inkscape:showpageshadow="false"
     borderlayer="true"
     fit-margin-top="0"
     fit-margin-left="0"
     fit-margin-right="0"
     fit-margin-bottom="0"
     inkscape:window-width="1295"
     inkscape:window-height="680"
     inkscape:window-x="242"
     inkscape:window-y="31"
     inkscape:window-maximized="0"
     inkscape:snap-bbox="true"
     inkscape:bbox-paths="true"
     inkscape:snap-global="false">
    <inkscape:grid
       type="xygrid"
       id="grid3002"
       empspacing="5"
       visible="true"
       enabled="true"
       snapvisiblegridlinesonly="true"
       spacingx="2mm"
       spacingy="2mm"
       originx="0.9999999mm"
       originy="1.0000607mm"
       units="mm" />
  </sodipodi:namedview>
  <metadata
     id="metadata7">
    <rdf:RDF>
      <cc:Work
         rdf:about="">
        <dc:format>image/svg+xml</dc:format>
        <dc:type
           rdf:resource="http://purl.org/dc/dcmitype/StillImage" />
        <dc:title />
      </cc:Work>
    </rdf:RDF>
  </metadata>
  <g
     inkscape:groupmode="layer"
     id="layer2"
     inkscape:label="Background"
     transform="translate(10.629921,-1037.3088)"
     style="display:inline"
     sodipodi:insensitive="true">
    <rect
       style="fill:#ffffff;stroke:none;display:inline"
       id="rect3907"
       width="531.49603"
       height="25.683569"
       x="-10.629921"
       y="1037.3088"
       rx="0" />
  </g>
  <g
     inkscape:label="Layer 1"
     inkscape:groupmode="layer"
     id="layer1"
     transform="translate(10.629921,-1037.3088)"
     style="display:inline">
    <rect
       y="1040.5825"
       x="-6.6437006"
       height="30.117029"
       width="343.9256"
       id="rect3117-8"
       style="fill:url(#linearGradient3022);fill-opacity:1;stroke:url(#linearGradient3024);stroke-width:0.88582677;stroke-miterlimit:4;stroke-opacity:1;stroke-dasharray:none;display:inline" />
    <path
       transform="matrix(1.2149715,0,0,0.51195776,-43.640394,1019.1172)"
       d="m 239.36232,64.007462 a 19.694368,14.0133 0 1 1 -39.38873,0 19.694368,14.0133 0 1 1 39.38873,0 z"
       sodipodi:ry="14.0133"
       sodipodi:rx="19.694368"
       sodipodi:cy="64.007462"
       sodipodi:cx="219.66795"
       id="path3053"
       style="fill:#ffe9bb;stroke:#d9aa48;stroke-width:2.24635649;stroke-miterlimit:4;stroke-dasharray:none;display:inline"
       sodipodi:type="arc" />
    <g
       transform="scale(1.0265374,0.97414863)"
       style="font-size:13.15327263px;font-style:normal;font-variant:normal;font-weight:normal;font-stretch:normal;text-align:start;line-height:125%;letter-spacing:0px;word-spacing:0px;writing-mode:lr-tb;text-anchor:start;fill:#000050;fill-opacity:1;stroke:none;display:inline;font-family:Arial;-inkscape-font-specification:Arial"
       id="text3155-4">
      <path
         d="m 3.9721922,1083.4984 c 0.9960902,0 1.691402,-0.2441 2.0859375,-0.7324 0.3945262,-0.4922 0.5917916,-1.3789 0.5917968,-2.6602 -5.2e-6,-1.2929 -0.1972706,-2.1836 -0.5917968,-2.6718 -0.3906293,-0.4922 -1.0859411,-0.7383 -2.0859375,-0.7383 l -0.5625,0 0,6.8027 0.5625,0 m 0.023437,-7.7754 c 1.3359336,0 2.3203076,0.3555 2.953125,1.0664 0.6328063,0.711 0.9492122,1.8164 0.9492187,3.3164 -6.5e-6,1.4922 -0.3164124,2.5938 -0.9492187,3.3047 -0.6328174,0.7071 -1.6171914,1.0606 -2.953125,1.0606 l -1.7753907,0 0,-8.7481 1.7753907,0"
         style="font-size:12px;line-height:125%;fill:#000050;font-family:DejaVu Sans Mono;-inkscape-font-specification:DejaVu Sans Mono"
         id="path3021" />
      <path
         d="m 15.15188,1080.9203 0,0.5273 -4.669922,0 0,0.035 c -2e-6,0.7148 0.185545,1.2676 0.55664,1.6582 0.374998,0.3906 0.902341,0.5859 1.582032,0.5859 0.343745,0 0.70312,-0.055 1.078125,-0.164 0.374994,-0.1094 0.775384,-0.2754 1.201172,-0.4981 l 0,1.0723 c -0.410163,0.168 -0.806647,0.293 -1.189454,0.375 -0.378911,0.086 -0.746098,0.1289 -1.101562,0.1289 -1.019534,0 -1.816408,-0.3047 -2.390625,-0.9141 -0.5742198,-0.6133 -0.8613289,-1.457 -0.8613282,-2.5312 -7e-7,-1.0469 0.281249,-1.8828 0.8437502,-2.5078 0.562498,-0.625 1.312497,-0.9375 2.25,-0.9375 0.835933,0 1.494135,0.2832 1.974609,0.8496 0.484369,0.5664 0.726556,1.3398 0.726563,2.3203 m -1.078125,-0.3164 c -0.01563,-0.6328 -0.166021,-1.1133 -0.451172,-1.4414 -0.281255,-0.3321 -0.687505,-0.4981 -1.21875,-0.4981 -0.519535,0 -0.947269,0.1719 -1.283203,0.5157 -0.33594,0.3437 -0.535159,0.8203 -0.597657,1.4296 l 3.550782,-0.01"
         style="font-size:12px;line-height:125%;fill:#000050;font-family:DejaVu Sans Mono;-inkscape-font-specification:DejaVu Sans Mono"
         id="path3023" />
      <path
         d="m 19.599145,1082.0922 c -3e-6,0.4843 0.08789,0.8496 0.263672,1.0957 0.179683,0.2461 0.443355,0.3691 0.791016,0.3691 l 1.259765,0 0,0.9141 -1.365234,0 c -0.644535,0 -1.144535,-0.2071 -1.5,-0.6211 -0.351565,-0.4141 -0.527346,-1 -0.527344,-1.7578 l 0,-5.959 -1.728515,0 0,-0.8438 2.80664,0 0,6.8028"
         style="font-size:12px;line-height:125%;fill:#000050;font-family:DejaVu Sans Mono;-inkscape-font-specification:DejaVu Sans Mono"
         id="path3025" />
      <path
         d="m 29.58938,1080.9203 0,0.5273 -4.669922,0 0,0.035 c -2e-6,0.7148 0.185545,1.2676 0.55664,1.6582 0.374998,0.3906 0.902341,0.5859 1.582032,0.5859 0.343745,0 0.70312,-0.055 1.078125,-0.164 0.374994,-0.1094 0.775384,-0.2754 1.201172,-0.4981 l 0,1.0723 c -0.410163,0.168 -0.806647,0.293 -1.189454,0.375 -0.378911,0.086 -0.746098,0.1289 -1.101562,0.1289 -1.019534,0 -1.816408,-0.3047 -2.390625,-0.9141 -0.57422,-0.6133 -0.861329,-1.457 -0.861328,-2.5312 -10e-7,-1.0469 0.281249,-1.8828 0.84375,-2.5078 0.562498,-0.625 1.312497,-0.9375 2.25,-0.9375 0.835933,0 1.494135,0.2832 1.974609,0.8496 0.484369,0.5664 0.726556,1.3398 0.726563,2.3203 m -1.078125,-0.3164 c -0.01563,-0.6328 -0.166021,-1.1133 -0.451172,-1.4414 -0.281255,-0.3321 -0.687505,-0.4981 -1.21875,-0.4981 -0.519535,0 -0.947269,0.1719 -1.283203,0.5157 -0.33594,0.3437 -0.535159,0.8203 -0.597657,1.4296 l 3.550782,-0.01"
         style="font-size:12px;line-height:125%;fill:#000050;font-family:DejaVu Sans Mono;-inkscape-font-specification:DejaVu Sans Mono"
         id="path3027" />
      <path
         d="m 33.890161,1076.0453 0,1.8633 2.449219,0 0,0.8379 -2.449219,0 0,3.5625 c -4e-6,0.4843 0.09179,0.8222 0.275391,1.0136 0.183589,0.1914 0.503901,0.2871 0.960937,0.2871 l 1.212891,0 0,0.8614 -1.31836,0 c -0.808597,0 -1.378909,-0.1621 -1.710937,-0.4864 -0.332034,-0.3242 -0.49805,-0.8828 -0.498047,-1.6757 l 0,-3.5625 -1.751953,0 0,-0.8379 1.751953,0 0,-1.8633 1.078125,0"
         style="font-size:12px;line-height:125%;fill:#000050;font-family:DejaVu Sans Mono;-inkscape-font-specification:DejaVu Sans Mono"
         id="path3029" />
      <path
         d="m 44.02688,1080.9203 0,0.5273 -4.669922,0 0,0.035 c -2e-6,0.7148 0.185545,1.2676 0.55664,1.6582 0.374998,0.3906 0.902341,0.5859 1.582032,0.5859 0.343745,0 0.70312,-0.055 1.078125,-0.164 0.374994,-0.1094 0.775384,-0.2754 1.201172,-0.4981 l 0,1.0723 c -0.410163,0.168 -0.806647,0.293 -1.189454,0.375 -0.378911,0.086 -0.746098,0.1289 -1.101562,0.1289 -1.019534,0 -1.816408,-0.3047 -2.390625,-0.9141 -0.57422,-0.6133 -0.861329,-1.457 -0.861328,-2.5312 -10e-7,-1.0469 0.281249,-1.8828 0.84375,-2.5078 0.562498,-0.625 1.312497,-0.9375 2.25,-0.9375 0.835933,0 1.494135,0.2832 1.974609,0.8496 0.484369,0.5664 0.726556,1.3398 0.726563,2.3203 m -1.078125,-0.3164 c -0.01563,-0.6328 -0.166021,-1.1133 -0.451172,-1.4414 -0.281255,-0.3321 -0.687505,-0.4981 -1.21875,-0.4981 -0.519535,0 -0.947269,0.1719 -1.283203,0.5157 -0.33594,0.3437 -0.535159,0.8203 -0.597657,1.4296 l 3.550782,-0.01"
         style="font-size:12px;line-height:125%;fill:#000050;font-family:DejaVu Sans Mono;-inkscape-font-specification:DejaVu Sans Mono"
         id="path3031" />
      <path
         d="m 49.757348,1078.7465 0,-3.3926 1.078125,0 0,9.1172 -1.078125,0 0,-0.8262 c -0.179692,0.3242 -0.419926,0.5723 -0.720703,0.7441 -0.296879,0.168 -0.640628,0.252 -1.03125,0.252 -0.792971,0 -1.41797,-0.3066 -1.875,-0.9199 -0.453126,-0.6172 -0.679688,-1.4668 -0.679687,-2.5489 -10e-7,-1.0664 0.228514,-1.9023 0.685547,-2.5078 0.457029,-0.6093 1.080075,-0.914 1.86914,-0.914 0.394528,0 0.742184,0.086 1.042969,0.2578 0.300777,0.168 0.537105,0.414 0.708984,0.7383 m -3.169921,2.4492 c -2e-6,0.8359 0.13281,1.4668 0.398437,1.8926 0.265623,0.4257 0.6582,0.6386 1.177734,0.6386 0.519528,0 0.914059,-0.2148 1.183594,-0.6445 0.273433,-0.4297 0.410151,-1.0586 0.410156,-1.8867 -5e-6,-0.832 -0.136723,-1.461 -0.410156,-1.8867 -0.269535,-0.4297 -0.664066,-0.6446 -1.183594,-0.6446 -0.519534,0 -0.912111,0.2129 -1.177734,0.6387 -0.265627,0.4258 -0.398439,1.0566 -0.398437,1.8926"
         style="font-size:12px;line-height:125%;fill:#000050;font-family:DejaVu Sans Mono;-inkscape-font-specification:DejaVu Sans Mono"
         id="path3033" />
      <path
         d="m 62.765161,1076.0453 0,1.8633 2.449219,0 0,0.8379 -2.449219,0 0,3.5625 c -4e-6,0.4843 0.09179,0.8222 0.275391,1.0136 0.183589,0.1914 0.503901,0.2871 0.960937,0.2871 l 1.212891,0 0,0.8614 -1.31836,0 c -0.808597,0 -1.378909,-0.1621 -1.710937,-0.4864 -0.332034,-0.3242 -0.49805,-0.8828 -0.498047,-1.6757 l 0,-3.5625 -1.751953,0 0,-0.8379 1.751953,0 0,-1.8633 1.078125,0"
         style="font-size:12px;line-height:125%;fill:#000050;font-family:DejaVu Sans Mono;-inkscape-font-specification:DejaVu Sans Mono"
         id="path3035" />
      <path
         d="m 70.499536,1081.1722 -0.357422,0 c -0.628909,0 -1.103518,0.1114 -1.423828,0.334 -0.316408,0.2188 -0.474611,0.5469 -0.474609,0.9844 -2e-6,0.3945 0.119138,0.7012 0.357421,0.9199 0.238279,0.2188 0.568357,0.3281 0.990235,0.3281 0.593746,0 1.060542,-0.205 1.40039,-0.6152 0.339839,-0.414 0.511714,-0.9844 0.515625,-1.7109 l 0,-0.2403 -1.007812,0 m 2.091797,-0.4453 0,3.7442 -1.083985,0 0,-0.9727 c -0.230473,0.3906 -0.521489,0.6797 -0.873046,0.8672 -0.347661,0.1836 -0.771488,0.2754 -1.271485,0.2754 -0.667971,0 -1.201173,-0.1875 -1.599609,-0.5625 -0.398439,-0.3789 -0.597657,-0.8848 -0.597656,-1.5176 -1e-6,-0.7305 0.244139,-1.2851 0.732421,-1.664 0.492186,-0.379 1.212888,-0.5684 2.16211,-0.5684 l 1.447265,0 0,-0.1699 c -0.0039,-0.5235 -0.136723,-0.9024 -0.398437,-1.1367 -0.261723,-0.2383 -0.679692,-0.3575 -1.253906,-0.3575 -0.367191,0 -0.738284,0.053 -1.113282,0.1582 -0.375002,0.1055 -0.740236,0.2598 -1.095703,0.4629 l 0,-1.0781 c 0.398436,-0.1523 0.779295,-0.2656 1.142578,-0.3398 0.367185,-0.078 0.722654,-0.1172 1.066407,-0.1172 0.542964,0 1.005855,0.08 1.388672,0.2402 0.386713,0.1602 0.699213,0.4004 0.9375,0.7207 0.148431,0.1953 0.2539,0.4375 0.316406,0.7266 0.06249,0.2851 0.09374,0.7148 0.09375,1.289"
         style="font-size:12px;line-height:125%;fill:#000050;font-family:DejaVu Sans Mono;-inkscape-font-specification:DejaVu Sans Mono"
         id="path3037" />
      <path
         d="m 78.632348,1081.1371 c -5e-6,-0.8086 -0.132817,-1.4219 -0.398437,-1.8399 -0.261723,-0.4218 -0.644535,-0.6328 -1.148438,-0.6328 -0.527346,0 -0.92969,0.211 -1.207031,0.6328 -0.277346,0.418 -0.416017,1.0313 -0.416015,1.8399 -2e-6,0.8086 0.138669,1.4258 0.416015,1.8515 0.281248,0.4219 0.687497,0.6329 1.21875,0.6329 0.49609,0 0.874996,-0.2129 1.136719,-0.6387 0.26562,-0.4258 0.398432,-1.041 0.398437,-1.8457 m 1.078125,2.9121 c -6e-6,0.9844 -0.232427,1.7305 -0.697265,2.2383 -0.464849,0.5078 -1.148442,0.7617 -2.050781,0.7617 -0.296879,0 -0.607425,-0.027 -0.931641,-0.082 -0.324221,-0.055 -0.648439,-0.1348 -0.972656,-0.2403 l 0,-1.0664 c 0.38281,0.1797 0.730466,0.3125 1.042968,0.3985 0.312498,0.086 0.599607,0.1289 0.861329,0.1289 0.582027,0 1.005855,-0.1582 1.271484,-0.4746 0.26562,-0.3165 0.398432,-0.8184 0.398437,-1.5059 l 0,-0.047 0,-0.7324 c -0.171879,0.3672 -0.406254,0.6406 -0.703125,0.8203 -0.296879,0.1797 -0.658206,0.2695 -1.083984,0.2695 -0.765627,0 -1.376955,-0.3066 -1.833984,-0.9199 -0.457033,-0.6133 -0.685548,-1.4336 -0.685547,-2.4609 -1e-6,-1.0313 0.228514,-1.8535 0.685547,-2.4668 0.457029,-0.6133 1.068357,-0.9199 1.833984,-0.9199 0.421871,0 0.779293,0.084 1.072266,0.2519 0.292964,0.168 0.531245,0.4278 0.714843,0.7793 l 0,-0.8496 1.078125,0 0,6.1172"
         style="font-size:12px;line-height:125%;fill:#000050;font-family:DejaVu Sans Mono;-inkscape-font-specification:DejaVu Sans Mono"
         id="path3039" />
      <path
         d="m 92.155786,1075.723 0,3.252 -1.019531,0 0,-3.252 1.019531,0"
         style="font-size:12px;line-height:125%;fill:#000050;font-family:DejaVu Sans Mono;-inkscape-font-specification:DejaVu Sans Mono"
         id="path3041" />
      <path
         d="m 101.19094,1076.0219 0,1.2011 c -0.35938,-0.2304 -0.72071,-0.4043 -1.08398,-0.5215 -0.359382,-0.1171 -0.722663,-0.1757 -1.089846,-0.1757 -0.558597,0 -1.000003,0.1308 -1.324219,0.3925 -0.324221,0.2579 -0.48633,0.6075 -0.486328,1.0489 -2e-6,0.3867 0.105467,0.6816 0.316406,0.8847 0.214842,0.2032 0.613279,0.3731 1.195313,0.5098 l 0.621094,0.1406 c 0.82031,0.1914 1.41796,0.4922 1.79297,0.9024 0.37499,0.4101 0.56249,0.9687 0.5625,1.6757 -1e-5,0.8321 -0.25782,1.4668 -0.77344,1.9043 -0.51563,0.4375 -1.265628,0.6563 -2.249999,0.6563 -0.410159,0 -0.822268,-0.045 -1.236328,-0.1348 -0.414064,-0.086 -0.83008,-0.2168 -1.248047,-0.3926 l 0,-1.2597 c 0.449217,0.2851 0.873045,0.4941 1.271484,0.6269 0.402341,0.1328 0.806638,0.1993 1.212891,0.1993 0.597652,0 1.062495,-0.1329 1.394529,-0.3985 0.33203,-0.2695 0.49804,-0.6445 0.49805,-1.125 -1e-5,-0.4375 -0.11524,-0.7715 -0.3457,-1.0019 -0.226571,-0.2305 -0.623055,-0.4082 -1.189457,-0.5332 l -0.632813,-0.1465 c -0.812502,-0.1836 -1.402345,-0.461 -1.769531,-0.8321 -0.367188,-0.371 -0.550782,-0.8691 -0.550781,-1.4941 -1e-6,-0.7812 0.261717,-1.4062 0.785156,-1.875 0.527342,-0.4726 1.22656,-0.709 2.097656,-0.709 0.335934,0 0.689449,0.039 1.06055,0.1172 0.37109,0.074 0.76171,0.1875 1.17187,0.3399"
         style="font-size:12px;line-height:125%;fill:#000050;font-family:DejaVu Sans Mono;-inkscape-font-specification:DejaVu Sans Mono"
         id="path3043" />
      <path
         d="m 106.07766,1076.0453 0,1.8633 2.44922,0 0,0.8379 -2.44922,0 0,3.5625 c 0,0.4843 0.0918,0.8222 0.27539,1.0136 0.18359,0.1914 0.5039,0.2871 0.96094,0.2871 l 1.21289,0 0,0.8614 -1.31836,0 c -0.8086,0 -1.37891,-0.1621 -1.71094,-0.4864 -0.33203,-0.3242 -0.49805,-0.8828 -0.49804,-1.6757 l 0,-3.5625 -1.75196,0 0,-0.8379 1.75196,0 0,-1.8633 1.07812,0"
         style="font-size:12px;line-height:125%;fill:#000050;font-family:DejaVu Sans Mono;-inkscape-font-specification:DejaVu Sans Mono"
         id="path3045" />
      <path
         d="m 116.21438,1080.9203 0,0.5273 -4.66992,0 0,0.035 c 0,0.7148 0.18554,1.2676 0.55664,1.6582 0.375,0.3906 0.90234,0.5859 1.58203,0.5859 0.34375,0 0.70312,-0.055 1.07812,-0.164 0.375,-0.1094 0.77539,-0.2754 1.20118,-0.4981 l 0,1.0723 c -0.41017,0.168 -0.80665,0.293 -1.18946,0.375 -0.37891,0.086 -0.74609,0.1289 -1.10156,0.1289 -1.01953,0 -1.81641,-0.3047 -2.39062,-0.9141 -0.57422,-0.6133 -0.86133,-1.457 -0.86133,-2.5312 0,-1.0469 0.28125,-1.8828 0.84375,-2.5078 0.5625,-0.625 1.31249,-0.9375 2.25,-0.9375 0.83593,0 1.49413,0.2832 1.97461,0.8496 0.48437,0.5664 0.72655,1.3398 0.72656,2.3203 m -1.07813,-0.3164 c -0.0156,-0.6328 -0.16602,-1.1133 -0.45117,-1.4414 -0.28125,-0.3321 -0.6875,-0.4981 -1.21875,-0.4981 -0.51953,0 -0.94727,0.1719 -1.2832,0.5157 -0.33594,0.3437 -0.53516,0.8203 -0.59766,1.4296 l 3.55078,-0.01"
         style="font-size:12px;line-height:125%;fill:#000050;font-family:DejaVu Sans Mono;-inkscape-font-specification:DejaVu Sans Mono"
         id="path3047" />
      <path
         d="m 119.11477,1083.6449 0,3.3223 -1.08398,0 0,-9.0586 1.08398,0 0,0.8379 c 0.17969,-0.3243 0.41797,-0.5703 0.71484,-0.7383 0.30078,-0.1719 0.64648,-0.2578 1.03711,-0.2578 0.79297,0 1.41406,0.3066 1.86328,0.9199 0.45312,0.6133 0.67969,1.4629 0.67969,2.5488 0,1.0664 -0.22657,1.9043 -0.67969,2.5137 -0.45313,0.6055 -1.07422,0.9082 -1.86328,0.9082 -0.39844,0 -0.74805,-0.084 -1.04882,-0.252 -0.29688,-0.1718 -0.53126,-0.4199 -0.70313,-0.7441 m 3.16406,-2.4492 c 0,-0.836 -0.13281,-1.4668 -0.39843,-1.8926 -0.26173,-0.4258 -0.65235,-0.6387 -1.17188,-0.6387 -0.52344,0 -0.91992,0.2149 -1.18945,0.6446 -0.26954,0.4257 -0.4043,1.0547 -0.4043,1.8867 0,0.8281 0.13476,1.457 0.4043,1.8867 0.26953,0.4297 0.66601,0.6445 1.18945,0.6445 0.51953,0 0.91015,-0.2129 1.17188,-0.6386 0.26562,-0.4258 0.39843,-1.0567 0.39843,-1.8926"
         style="font-size:12px;line-height:125%;fill:#000050;font-family:DejaVu Sans Mono;-inkscape-font-specification:DejaVu Sans Mono"
         id="path3049" />
      <path
         d="m 127.00149,1082.684 1.47656,0 0,1.7871 -1.47656,0 0,-1.7871"
         style="font-size:12px;line-height:125%;fill:#000050;font-family:DejaVu Sans Mono;-inkscape-font-specification:DejaVu Sans Mono"
         id="path3051" />
      <path
         d="m 132.93704,1083.475 1.83984,0 0,-6.6856 -1.98047,0.4453 0,-1.0781 1.96875,-0.4336 1.18359,0 0,7.752 1.81641,0 0,0.9961 -4.82812,0 0,-0.9961"
         style="font-size:12px;line-height:125%;fill:#000050;font-family:DejaVu Sans Mono;-inkscape-font-specification:DejaVu Sans Mono"
         id="path3054" />
      <path
         d="m 142.8804,1076.8011 -2.75977,4.6231 2.75977,0 0,-4.6231 m -0.19336,-1.0781 1.37109,0 0,5.7012 1.16602,0 0,0.9609 -1.16602,0 0,2.086 -1.17773,0 0,-2.086 -3.70899,0 0,-1.1191 3.51563,-5.543"
         style="font-size:12px;line-height:125%;fill:#000050;font-family:DejaVu Sans Mono;-inkscape-font-specification:DejaVu Sans Mono"
         id="path3056" />
      <path
         d="m 149.90579,1075.723 0,3.252 -1.01954,0 0,-3.252 1.01954,0"
         style="font-size:12px;line-height:125%;fill:#000050;font-family:DejaVu Sans Mono;-inkscape-font-specification:DejaVu Sans Mono"
         id="path3058" />
      <path
         d="m 165.41555,1075.3656 c -0.51953,0.8906 -0.90821,1.7793 -1.16601,2.666 -0.25391,0.8828 -0.38087,1.7735 -0.38086,2.6719 -1e-5,0.8945 0.12695,1.7851 0.38086,2.6719 0.2578,0.8867 0.64648,1.7793 1.16601,2.6777 l -0.9375,0 c -0.58985,-0.9297 -1.0293,-1.834 -1.31836,-2.7129 -0.28906,-0.8828 -0.43359,-1.7617 -0.43359,-2.6367 0,-0.8711 0.14453,-1.7481 0.43359,-2.6309 0.28906,-0.8828 0.72851,-1.7851 1.31836,-2.707 l 0.9375,0"
         style="font-size:12px;line-height:125%;fill:#000050;font-family:DejaVu Sans Mono;-inkscape-font-specification:DejaVu Sans Mono"
         id="path3060" />
      <path
         d="m 167.44875,1077.9086 1.06641,0 1.14258,5.3027 0.9375,-3.3867 0.91992,0 0.94922,3.3867 1.14258,-5.3027 1.0664,0 -1.53515,6.5625 -1.03125,0 -1.04883,-3.5977 -1.04297,3.5977 -1.03125,0 -1.53516,-6.5625"
         style="font-size:12px;line-height:125%;fill:#000050;font-family:DejaVu Sans Mono;-inkscape-font-specification:DejaVu Sans Mono"
         id="path3062" />
      <path
         d="m 178.78079,1081.1722 -0.35743,0 c -0.62891,0 -1.10351,0.1114 -1.42382,0.334 -0.31641,0.2188 -0.47462,0.5469 -0.47461,0.9844 -1e-5,0.3945 0.11914,0.7012 0.35742,0.9199 0.23828,0.2188 0.56836,0.3281 0.99023,0.3281 0.59375,0 1.06055,-0.205 1.40039,-0.6152 0.33984,-0.414 0.51172,-0.9844 0.51563,-1.7109 l 0,-0.2403 -1.00781,0 m 2.09179,-0.4453 0,3.7442 -1.08398,0 0,-0.9727 c -0.23048,0.3906 -0.52149,0.6797 -0.87305,0.8672 -0.34766,0.1836 -0.77149,0.2754 -1.27148,0.2754 -0.66797,0 -1.20118,-0.1875 -1.59961,-0.5625 -0.39844,-0.3789 -0.59766,-0.8848 -0.59766,-1.5176 0,-0.7305 0.24414,-1.2851 0.73242,-1.664 0.49219,-0.379 1.21289,-0.5684 2.16211,-0.5684 l 1.44727,0 0,-0.1699 c -0.004,-0.5235 -0.13673,-0.9024 -0.39844,-1.1367 -0.26172,-0.2383 -0.67969,-0.3575 -1.25391,-0.3575 -0.36719,0 -0.73828,0.053 -1.11328,0.1582 -0.375,0.1055 -0.74023,0.2598 -1.0957,0.4629 l 0,-1.0781 c 0.39844,-0.1523 0.7793,-0.2656 1.14258,-0.3398 0.36718,-0.078 0.72265,-0.1172 1.0664,-0.1172 0.54297,0 1.00586,0.08 1.38868,0.2402 0.38671,0.1602 0.69921,0.4004 0.9375,0.7207 0.14843,0.1953 0.2539,0.4375 0.3164,0.7266 0.0625,0.2851 0.0937,0.7148 0.0937,1.289"
         style="font-size:12px;line-height:125%;fill:#000050;font-family:DejaVu Sans Mono;-inkscape-font-specification:DejaVu Sans Mono"
         id="path3064" />
      <path
         d="m 187.58743,1078.1371 0,1.0547 c -0.3086,-0.1797 -0.61915,-0.3145 -0.93164,-0.4043 -0.31251,-0.09 -0.63087,-0.1348 -0.95508,-0.1348 -0.48829,0 -0.85352,0.08 -1.09571,0.2402 -0.23828,0.1563 -0.35742,0.3965 -0.35742,0.7207 0,0.293 0.0898,0.5118 0.26953,0.6563 0.17969,0.1445 0.62695,0.2852 1.3418,0.4219 l 0.43359,0.082 c 0.53516,0.1016 0.93945,0.3047 1.2129,0.6094 0.27733,0.3047 0.416,0.7012 0.41601,1.1894 -1e-5,0.6485 -0.23047,1.1563 -0.69141,1.5235 -0.46094,0.3633 -1.10156,0.5449 -1.92187,0.5449 -0.32422,0 -0.66407,-0.035 -1.01953,-0.1055 -0.35547,-0.066 -0.74024,-0.1679 -1.1543,-0.3047 l 0,-1.1132 c 0.40234,0.207 0.78711,0.3632 1.1543,0.4687 0.36718,0.1016 0.71484,0.1523 1.04297,0.1523 0.47656,0 0.8457,-0.096 1.10742,-0.2871 0.26171,-0.1953 0.39257,-0.4668 0.39258,-0.8144 -1e-5,-0.5 -0.47852,-0.8457 -1.43555,-1.0371 l -0.0469,-0.012 -0.4043,-0.082 c -0.6211,-0.1211 -1.07422,-0.3242 -1.35938,-0.6093 -0.28515,-0.2891 -0.42773,-0.6817 -0.42773,-1.1778 0,-0.6289 0.21289,-1.1133 0.63867,-1.4531 0.42578,-0.3438 1.0332,-0.5156 1.82227,-0.5156 0.35155,0 0.68945,0.033 1.01367,0.1 0.32421,0.062 0.64257,0.1582 0.95508,0.2871"
         style="font-size:12px;line-height:125%;fill:#000050;font-family:DejaVu Sans Mono;-inkscape-font-specification:DejaVu Sans Mono"
         id="path3066" />
      <path
         d="m 198.5093,1083.475 4.01953,0 0,0.9961 -5.31445,0 0,-0.9961 c 0.73047,-0.7696 1.36914,-1.4492 1.91602,-2.0391 0.54687,-0.5898 0.92382,-1.0058 1.13085,-1.248 0.39063,-0.4766 0.6543,-0.8614 0.79102,-1.1543 0.13671,-0.2969 0.20507,-0.5996 0.20508,-0.9082 -1e-5,-0.4883 -0.14454,-0.8711 -0.4336,-1.1485 -0.28516,-0.2773 -0.67773,-0.416 -1.17773,-0.416 -0.35547,0 -0.72852,0.064 -1.11914,0.1934 -0.39063,0.1289 -0.80469,0.3242 -1.24219,0.5859 l 0,-1.1953 c 0.40234,-0.1914 0.79688,-0.3359 1.1836,-0.4336 0.39062,-0.098 0.77538,-0.1465 1.15429,-0.1465 0.85547,0 1.54297,0.2285 2.0625,0.6856 0.52343,0.4531 0.78515,1.0488 0.78516,1.7871 -1e-5,0.375 -0.0879,0.75 -0.26367,1.125 -0.17188,0.375 -0.45313,0.789 -0.84375,1.2422 -0.21876,0.2539 -0.53712,0.6054 -0.95508,1.0547 -0.41407,0.4492 -1.04688,1.121 -1.89844,2.0156"
         style="font-size:12px;line-height:125%;fill:#000050;font-family:DejaVu Sans Mono;-inkscape-font-specification:DejaVu Sans Mono"
         id="path3068" />
      <path
         d="m 206.37258,1080.0765 c 0,-0.2148 0.0742,-0.4003 0.22266,-0.5566 0.15234,-0.1562 0.33398,-0.2344 0.54492,-0.2344 0.21875,0 0.40625,0.078 0.5625,0.2344 0.15625,0.1563 0.23437,0.3418 0.23438,0.5566 -1e-5,0.2188 -0.0781,0.4043 -0.23438,0.5567 -0.15235,0.1523 -0.33985,0.2285 -0.5625,0.2285 -0.21875,0 -0.40235,-0.074 -0.55078,-0.2227 -0.14453,-0.1484 -0.2168,-0.3359 -0.2168,-0.5625 m 0.7793,-3.5742 c -0.55078,0 -0.96289,0.2969 -1.23633,0.8906 -0.26953,0.5938 -0.4043,1.4981 -0.4043,2.7129 0,1.211 0.13477,2.1133 0.4043,2.7071 0.27344,0.5937 0.68555,0.8906 1.23633,0.8906 0.55468,0 0.96679,-0.2969 1.23633,-0.8906 0.27343,-0.5938 0.41015,-1.4961 0.41015,-2.7071 0,-1.2148 -0.13672,-2.1191 -0.41015,-2.7129 -0.26954,-0.5937 -0.68165,-0.8906 -1.23633,-0.8906 m 0,-0.9375 c 0.93359,0 1.63867,0.3828 2.11523,1.1485 0.48047,0.7656 0.7207,1.8964 0.72071,3.3925 -1e-5,1.4922 -0.24024,2.6211 -0.72071,3.3868 -0.47656,0.7656 -1.18164,1.1484 -2.11523,1.1484 -0.9336,0 -1.63867,-0.3828 -2.11523,-1.1484 -0.47657,-0.7657 -0.71485,-1.8946 -0.71485,-3.3868 0,-1.4961 0.23828,-2.6269 0.71485,-3.3925 0.47656,-0.7657 1.18163,-1.1485 2.11523,-1.1485"
         style="font-size:12px;line-height:125%;fill:#000050;font-family:DejaVu Sans Mono;-inkscape-font-specification:DejaVu Sans Mono"
         id="path3070" />
      <path
         d="m 217.27688,1080.9203 0,0.5273 -4.66992,0 0,0.035 c 0,0.7148 0.18554,1.2676 0.55664,1.6582 0.375,0.3906 0.90234,0.5859 1.58203,0.5859 0.34375,0 0.70312,-0.055 1.07812,-0.164 0.375,-0.1094 0.77539,-0.2754 1.20118,-0.4981 l 0,1.0723 c -0.41017,0.168 -0.80665,0.293 -1.18946,0.375 -0.37891,0.086 -0.74609,0.1289 -1.10156,0.1289 -1.01953,0 -1.81641,-0.3047 -2.39062,-0.9141 -0.57422,-0.6133 -0.86133,-1.457 -0.86133,-2.5312 0,-1.0469 0.28125,-1.8828 0.84375,-2.5078 0.5625,-0.625 1.31249,-0.9375 2.25,-0.9375 0.83593,0 1.49413,0.2832 1.97461,0.8496 0.48437,0.5664 0.72655,1.3398 0.72656,2.3203 m -1.07813,-0.3164 c -0.0156,-0.6328 -0.16602,-1.1133 -0.45117,-1.4414 -0.28125,-0.3321 -0.6875,-0.4981 -1.21875,-0.4981 -0.51953,0 -0.94727,0.1719 -1.2832,0.5157 -0.33594,0.3437 -0.53516,0.8203 -0.59766,1.4296 l 3.55078,-0.01"
         style="font-size:12px;line-height:125%;fill:#000050;font-family:DejaVu Sans Mono;-inkscape-font-specification:DejaVu Sans Mono"
         id="path3072" />
      <path
         d="m 222.28665,1076.8011 -2.75977,4.6231 2.75977,0 0,-4.6231 m -0.19336,-1.0781 1.37109,0 0,5.7012 1.16602,0 0,0.9609 -1.16602,0 0,2.086 -1.17773,0 0,-2.086 -3.70899,0 0,-1.1191 3.51563,-5.543"
         style="font-size:12px;line-height:125%;fill:#000050;font-family:DejaVu Sans Mono;-inkscape-font-specification:DejaVu Sans Mono"
         id="path3074" />
      <path
         d="m 231.41555,1084.1371 c -0.28907,0.168 -0.58789,0.293 -0.89648,0.375 -0.3047,0.086 -0.6172,0.1289 -0.9375,0.1289 -1.01563,0 -1.81055,-0.3047 -2.38477,-0.9141 -0.57031,-0.6093 -0.85547,-1.4531 -0.85547,-2.5312 0,-1.0781 0.28516,-1.9219 0.85547,-2.5313 0.57422,-0.6093 1.36914,-0.914 2.38477,-0.914 0.3164,0 0.62499,0.041 0.92578,0.123 0.30077,0.082 0.60351,0.209 0.9082,0.3809 l 0,1.1308 c -0.28516,-0.2539 -0.57227,-0.4375 -0.86133,-0.5507 -0.28516,-0.1133 -0.60938,-0.17 -0.97265,-0.17 -0.67579,0 -1.19532,0.2188 -1.5586,0.6563 -0.36328,0.4375 -0.54492,1.0625 -0.54492,1.875 0,0.8086 0.18164,1.4336 0.54492,1.875 0.36719,0.4375 0.88672,0.6562 1.5586,0.6562 0.37499,0 0.71093,-0.057 1.00781,-0.1699 0.29687,-0.1172 0.57226,-0.2969 0.82617,-0.5391 l 0,1.1192"
         style="font-size:12px;line-height:125%;fill:#000050;font-family:DejaVu Sans Mono;-inkscape-font-specification:DejaVu Sans Mono"
         id="path3076" />
      <path
         d="m 235.24758,1080.0765 c 0,-0.2148 0.0742,-0.4003 0.22266,-0.5566 0.15234,-0.1562 0.33398,-0.2344 0.54492,-0.2344 0.21875,0 0.40625,0.078 0.5625,0.2344 0.15625,0.1563 0.23437,0.3418 0.23438,0.5566 -1e-5,0.2188 -0.0781,0.4043 -0.23438,0.5567 -0.15235,0.1523 -0.33985,0.2285 -0.5625,0.2285 -0.21875,0 -0.40235,-0.074 -0.55078,-0.2227 -0.14453,-0.1484 -0.2168,-0.3359 -0.2168,-0.5625 m 0.7793,-3.5742 c -0.55078,0 -0.96289,0.2969 -1.23633,0.8906 -0.26953,0.5938 -0.4043,1.4981 -0.4043,2.7129 0,1.211 0.13477,2.1133 0.4043,2.7071 0.27344,0.5937 0.68555,0.8906 1.23633,0.8906 0.55468,0 0.96679,-0.2969 1.23633,-0.8906 0.27343,-0.5938 0.41015,-1.4961 0.41015,-2.7071 0,-1.2148 -0.13672,-2.1191 -0.41015,-2.7129 -0.26954,-0.5937 -0.68165,-0.8906 -1.23633,-0.8906 m 0,-0.9375 c 0.93359,0 1.63867,0.3828 2.11523,1.1485 0.48047,0.7656 0.7207,1.8964 0.72071,3.3925 -1e-5,1.4922 -0.24024,2.6211 -0.72071,3.3868 -0.47656,0.7656 -1.18164,1.1484 -2.11523,1.1484 -0.9336,0 -1.63867,-0.3828 -2.11523,-1.1484 -0.47657,-0.7657 -0.71485,-1.8946 -0.71485,-3.3868 0,-1.4961 0.23828,-2.6269 0.71485,-3.3925 0.47656,-0.7657 1.18163,-1.1485 2.11523,-1.1485"
         style="font-size:12px;line-height:125%;fill:#000050;font-family:DejaVu Sans Mono;-inkscape-font-specification:DejaVu Sans Mono"
         id="path3078" />
      <path
         d="m 245.01516,1081.1957 c 0,-0.836 -0.13282,-1.4668 -0.39844,-1.8926 -0.26563,-0.4258 -0.6582,-0.6387 -1.17773,-0.6387 -0.52344,0 -0.91993,0.2149 -1.18945,0.6446 -0.26954,0.4257 -0.4043,1.0547 -0.4043,1.8867 0,0.8281 0.13476,1.457 0.4043,1.8867 0.26952,0.4297 0.66601,0.6445 1.18945,0.6445 0.51953,0 0.9121,-0.2129 1.17773,-0.6386 0.26562,-0.4258 0.39844,-1.0567 0.39844,-1.8926 m -3.16992,-2.4492 c 0.17187,-0.3203 0.4082,-0.5664 0.70898,-0.7383 0.30469,-0.1719 0.65625,-0.2578 1.05469,-0.2578 0.78906,0 1.41015,0.3047 1.86328,0.914 0.45312,0.6055 0.67968,1.4414 0.67969,2.5078 -1e-5,1.0821 -0.22852,1.9317 -0.68555,2.5489 -0.45313,0.6133 -1.07617,0.9199 -1.86914,0.9199 -0.39063,0 -0.73633,-0.084 -1.03711,-0.252 -0.29687,-0.1718 -0.53516,-0.4199 -0.71484,-0.7441 l 0,0.8262 -1.07813,0 0,-9.1172 1.07813,0 0,3.3926"
         style="font-size:12px;line-height:125%;fill:#000050;font-family:DejaVu Sans Mono;-inkscape-font-specification:DejaVu Sans Mono"
         id="path3080" />
      <path
         d="m 248.89407,1075.3656 0.9375,0 c 0.58984,0.9219 1.02929,1.8242 1.31836,2.707 0.28905,0.8828 0.43359,1.7598 0.43359,2.6309 0,0.8789 -0.14454,1.7598 -0.43359,2.6426 -0.28907,0.8828 -0.72852,1.7851 -1.31836,2.707 l -0.9375,0 c 0.51953,-0.9063 0.90624,-1.8027 1.16015,-2.6895 0.25781,-0.8867 0.38672,-1.7734 0.38672,-2.6601 0,-0.8906 -0.12891,-1.7793 -0.38672,-2.666 -0.25391,-0.8867 -0.64062,-1.7774 -1.16015,-2.6719"
         style="font-size:12px;line-height:125%;fill:#000050;font-family:DejaVu Sans Mono;-inkscape-font-specification:DejaVu Sans Mono"
         id="path3082" />
    </g>
  </g>
</svg>
